%TF.GenerationSoftware,KiCad,Pcbnew,8.0.4*%
%TF.CreationDate,2024-07-29T00:01:57+02:00*%
%TF.ProjectId,gps,6770732e-6b69-4636-9164-5f7063625858,rev?*%
%TF.SameCoordinates,Original*%
%TF.FileFunction,Drillmap*%
%TF.FilePolarity,Positive*%
%FSLAX45Y45*%
G04 Gerber Fmt 4.5, Leading zero omitted, Abs format (unit mm)*
G04 Created by KiCad (PCBNEW 8.0.4) date 2024-07-29 00:01:57*
%MOMM*%
%LPD*%
G01*
G04 APERTURE LIST*
%ADD10C,0.100000*%
%ADD11C,0.150000*%
%ADD12C,0.200000*%
%ADD13C,0.430000*%
G04 APERTURE END LIST*
D10*
X13525000Y-11050000D02*
X13725000Y-11050000D01*
X13750000Y-5627500D02*
G75*
G02*
X13690000Y-5627500I-30000J0D01*
G01*
X13690000Y-5627500D02*
G75*
G02*
X13750000Y-5627500I30000J0D01*
G01*
X13560000Y-5625000D02*
G75*
G02*
X13500000Y-5625000I-30000J0D01*
G01*
X13500000Y-5625000D02*
G75*
G02*
X13560000Y-5625000I30000J0D01*
G01*
X13560000Y-10575000D02*
G75*
G02*
X13500000Y-10575000I-30000J0D01*
G01*
X13500000Y-10575000D02*
G75*
G02*
X13560000Y-10575000I30000J0D01*
G01*
X13750000Y-10575000D02*
G75*
G02*
X13690000Y-10575000I-30000J0D01*
G01*
X13690000Y-10575000D02*
G75*
G02*
X13750000Y-10575000I30000J0D01*
G01*
X13525000Y-10500000D02*
X13725000Y-10500000D01*
X13525000Y-6100000D02*
X13725000Y-6100000D01*
X13525000Y-5550000D02*
X13725000Y-5550000D01*
X13560000Y-6025000D02*
G75*
G02*
X13500000Y-6025000I-30000J0D01*
G01*
X13500000Y-6025000D02*
G75*
G02*
X13560000Y-6025000I30000J0D01*
G01*
X15587000Y-4845000D02*
G75*
G02*
X15487000Y-4745000I0J100000D01*
G01*
X5275000Y-4575000D02*
G75*
G02*
X5675000Y-4175000I400000J0D01*
G01*
X15386000Y-4175000D02*
G75*
G02*
X15487298Y-4275000I1290J-100000D01*
G01*
X13750000Y-5927500D02*
G75*
G02*
X13690000Y-5927500I-30000J0D01*
G01*
X13690000Y-5927500D02*
G75*
G02*
X13750000Y-5927500I30000J0D01*
G01*
X13560000Y-5725000D02*
G75*
G02*
X13500000Y-5725000I-30000J0D01*
G01*
X13500000Y-5725000D02*
G75*
G02*
X13560000Y-5725000I30000J0D01*
G01*
X5657843Y-12425000D02*
G75*
G02*
X5275000Y-12017157I12507J395350D01*
G01*
X13560000Y-5825000D02*
G75*
G02*
X13500000Y-5825000I-30000J0D01*
G01*
X13500000Y-5825000D02*
G75*
G02*
X13560000Y-5825000I30000J0D01*
G01*
D11*
X21975000Y-12017157D02*
G75*
G02*
X21592157Y-12425000I-395340J-12503D01*
G01*
D10*
X13725000Y-10500000D02*
X13725000Y-6100000D01*
X13750000Y-5827500D02*
G75*
G02*
X13690000Y-5827500I-30000J0D01*
G01*
X13690000Y-5827500D02*
G75*
G02*
X13750000Y-5827500I30000J0D01*
G01*
X13560000Y-10875000D02*
G75*
G02*
X13500000Y-10875000I-30000J0D01*
G01*
X13500000Y-10875000D02*
G75*
G02*
X13560000Y-10875000I30000J0D01*
G01*
X13725000Y-4582843D02*
G75*
G02*
X14132843Y-4175000I407840J3D01*
G01*
X13560000Y-10975000D02*
G75*
G02*
X13500000Y-10975000I-30000J0D01*
G01*
X13500000Y-10975000D02*
G75*
G02*
X13560000Y-10975000I30000J0D01*
G01*
X17220000Y-4275000D02*
X17220000Y-4745000D01*
X13750000Y-6027500D02*
G75*
G02*
X13690000Y-6027500I-30000J0D01*
G01*
X13690000Y-6027500D02*
G75*
G02*
X13750000Y-6027500I30000J0D01*
G01*
X13750198Y-10675000D02*
G75*
G02*
X13690198Y-10675000I-30000J0D01*
G01*
X13690198Y-10675000D02*
G75*
G02*
X13750198Y-10675000I30000J0D01*
G01*
X13750198Y-10875000D02*
G75*
G02*
X13690198Y-10875000I-30000J0D01*
G01*
X13690198Y-10875000D02*
G75*
G02*
X13750198Y-10875000I30000J0D01*
G01*
X13525000Y-12017157D02*
G75*
G02*
X13117157Y-12425000I-407840J-3D01*
G01*
X5657843Y-12425000D02*
X13117157Y-12425000D01*
D11*
X21975000Y-12017157D02*
X21975000Y-4575000D01*
D10*
X15487000Y-4275000D02*
X15487000Y-4745000D01*
X13117157Y-4175000D02*
G75*
G02*
X13525000Y-4582843I3J-407840D01*
G01*
X5275000Y-4575000D02*
X5275000Y-12017157D01*
X21575000Y-4175000D02*
X17320000Y-4175000D01*
X21575000Y-4175000D02*
G75*
G02*
X21975000Y-4575000I0J-400000D01*
G01*
X14132843Y-12425000D02*
G75*
G02*
X13725000Y-12017157I-3J407840D01*
G01*
X14132843Y-4175000D02*
X15386000Y-4175000D01*
X13525000Y-12017157D02*
X13525000Y-11050000D01*
X13525000Y-6100000D02*
X13525000Y-10500000D01*
X14132843Y-12425000D02*
X21592157Y-12425000D01*
X13117157Y-4175000D02*
X5675000Y-4175000D01*
X13560000Y-10675000D02*
G75*
G02*
X13500000Y-10675000I-30000J0D01*
G01*
X13500000Y-10675000D02*
G75*
G02*
X13560000Y-10675000I30000J0D01*
G01*
X17220000Y-4275000D02*
G75*
G02*
X17320000Y-4175000I100000J0D01*
G01*
X13560000Y-5925000D02*
G75*
G02*
X13500000Y-5925000I-30000J0D01*
G01*
X13500000Y-5925000D02*
G75*
G02*
X13560000Y-5925000I30000J0D01*
G01*
X13750198Y-10775000D02*
G75*
G02*
X13690198Y-10775000I-30000J0D01*
G01*
X13690198Y-10775000D02*
G75*
G02*
X13750198Y-10775000I30000J0D01*
G01*
X13525000Y-4582843D02*
X13525000Y-5550000D01*
X17220000Y-4745000D02*
G75*
G02*
X17120000Y-4845000I-100000J0D01*
G01*
X13725000Y-5550000D02*
X13725000Y-4582843D01*
X13560000Y-10775000D02*
G75*
G02*
X13500000Y-10775000I-30000J0D01*
G01*
X13500000Y-10775000D02*
G75*
G02*
X13560000Y-10775000I30000J0D01*
G01*
X13750000Y-5727500D02*
G75*
G02*
X13690000Y-5727500I-30000J0D01*
G01*
X13690000Y-5727500D02*
G75*
G02*
X13750000Y-5727500I30000J0D01*
G01*
X13725000Y-12017157D02*
X13725000Y-11050000D01*
X17120000Y-4845000D02*
X15587000Y-4845000D01*
X13750198Y-10975000D02*
G75*
G02*
X13690198Y-10975000I-30000J0D01*
G01*
X13690198Y-10975000D02*
G75*
G02*
X13750198Y-10975000I30000J0D01*
G01*
D12*
X15266250Y-11700000D02*
X15466250Y-11900000D01*
X15466250Y-11700000D02*
X15266250Y-11900000D01*
X17486250Y-6020000D02*
X17686250Y-6220000D01*
X17686250Y-6020000D02*
X17486250Y-6220000D01*
D13*
X6465000Y-5150000D02*
G75*
G02*
X6035000Y-5150000I-215000J0D01*
G01*
X6035000Y-5150000D02*
G75*
G02*
X6465000Y-5150000I215000J0D01*
G01*
X12765000Y-5150000D02*
G75*
G02*
X12335000Y-5150000I-215000J0D01*
G01*
X12335000Y-5150000D02*
G75*
G02*
X12765000Y-5150000I215000J0D01*
G01*
X12765000Y-11450000D02*
G75*
G02*
X12335000Y-11450000I-215000J0D01*
G01*
X12335000Y-11450000D02*
G75*
G02*
X12765000Y-11450000I215000J0D01*
G01*
X14910000Y-7010000D02*
G75*
G02*
X14480000Y-7010000I-215000J0D01*
G01*
X14480000Y-7010000D02*
G75*
G02*
X14910000Y-7010000I215000J0D01*
G01*
X14915000Y-5150000D02*
G75*
G02*
X14485000Y-5150000I-215000J0D01*
G01*
X14485000Y-5150000D02*
G75*
G02*
X14915000Y-5150000I215000J0D01*
G01*
X18765000Y-6335000D02*
G75*
G02*
X18335000Y-6335000I-215000J0D01*
G01*
X18335000Y-6335000D02*
G75*
G02*
X18765000Y-6335000I215000J0D01*
G01*
X19760000Y-11450000D02*
G75*
G02*
X19330000Y-11450000I-215000J0D01*
G01*
X19330000Y-11450000D02*
G75*
G02*
X19760000Y-11450000I215000J0D01*
G01*
X21215000Y-5150000D02*
G75*
G02*
X20785000Y-5150000I-215000J0D01*
G01*
X20785000Y-5150000D02*
G75*
G02*
X21215000Y-5150000I215000J0D01*
G01*
X21215000Y-11450000D02*
G75*
G02*
X20785000Y-11450000I-215000J0D01*
G01*
X20785000Y-11450000D02*
G75*
G02*
X21215000Y-11450000I215000J0D01*
G01*
D12*
X5530579Y-12743984D02*
X5530579Y-12543984D01*
X5530579Y-12543984D02*
X5578198Y-12543984D01*
X5578198Y-12543984D02*
X5606769Y-12553508D01*
X5606769Y-12553508D02*
X5625817Y-12572555D01*
X5625817Y-12572555D02*
X5635341Y-12591603D01*
X5635341Y-12591603D02*
X5644865Y-12629698D01*
X5644865Y-12629698D02*
X5644865Y-12658269D01*
X5644865Y-12658269D02*
X5635341Y-12696365D01*
X5635341Y-12696365D02*
X5625817Y-12715412D01*
X5625817Y-12715412D02*
X5606769Y-12734460D01*
X5606769Y-12734460D02*
X5578198Y-12743984D01*
X5578198Y-12743984D02*
X5530579Y-12743984D01*
X5730579Y-12743984D02*
X5730579Y-12610650D01*
X5730579Y-12648746D02*
X5740103Y-12629698D01*
X5740103Y-12629698D02*
X5749627Y-12620174D01*
X5749627Y-12620174D02*
X5768674Y-12610650D01*
X5768674Y-12610650D02*
X5787722Y-12610650D01*
X5854388Y-12743984D02*
X5854388Y-12610650D01*
X5854388Y-12543984D02*
X5844865Y-12553508D01*
X5844865Y-12553508D02*
X5854388Y-12563031D01*
X5854388Y-12563031D02*
X5863912Y-12553508D01*
X5863912Y-12553508D02*
X5854388Y-12543984D01*
X5854388Y-12543984D02*
X5854388Y-12563031D01*
X5978198Y-12743984D02*
X5959150Y-12734460D01*
X5959150Y-12734460D02*
X5949627Y-12715412D01*
X5949627Y-12715412D02*
X5949627Y-12543984D01*
X6082960Y-12743984D02*
X6063912Y-12734460D01*
X6063912Y-12734460D02*
X6054388Y-12715412D01*
X6054388Y-12715412D02*
X6054388Y-12543984D01*
X6311531Y-12743984D02*
X6311531Y-12543984D01*
X6311531Y-12543984D02*
X6378198Y-12686841D01*
X6378198Y-12686841D02*
X6444865Y-12543984D01*
X6444865Y-12543984D02*
X6444865Y-12743984D01*
X6625817Y-12743984D02*
X6625817Y-12639222D01*
X6625817Y-12639222D02*
X6616293Y-12620174D01*
X6616293Y-12620174D02*
X6597246Y-12610650D01*
X6597246Y-12610650D02*
X6559150Y-12610650D01*
X6559150Y-12610650D02*
X6540103Y-12620174D01*
X6625817Y-12734460D02*
X6606769Y-12743984D01*
X6606769Y-12743984D02*
X6559150Y-12743984D01*
X6559150Y-12743984D02*
X6540103Y-12734460D01*
X6540103Y-12734460D02*
X6530579Y-12715412D01*
X6530579Y-12715412D02*
X6530579Y-12696365D01*
X6530579Y-12696365D02*
X6540103Y-12677317D01*
X6540103Y-12677317D02*
X6559150Y-12667793D01*
X6559150Y-12667793D02*
X6606769Y-12667793D01*
X6606769Y-12667793D02*
X6625817Y-12658269D01*
X6721055Y-12610650D02*
X6721055Y-12810650D01*
X6721055Y-12620174D02*
X6740103Y-12610650D01*
X6740103Y-12610650D02*
X6778198Y-12610650D01*
X6778198Y-12610650D02*
X6797246Y-12620174D01*
X6797246Y-12620174D02*
X6806769Y-12629698D01*
X6806769Y-12629698D02*
X6816293Y-12648746D01*
X6816293Y-12648746D02*
X6816293Y-12705888D01*
X6816293Y-12705888D02*
X6806769Y-12724936D01*
X6806769Y-12724936D02*
X6797246Y-12734460D01*
X6797246Y-12734460D02*
X6778198Y-12743984D01*
X6778198Y-12743984D02*
X6740103Y-12743984D01*
X6740103Y-12743984D02*
X6721055Y-12734460D01*
X6902008Y-12724936D02*
X6911531Y-12734460D01*
X6911531Y-12734460D02*
X6902008Y-12743984D01*
X6902008Y-12743984D02*
X6892484Y-12734460D01*
X6892484Y-12734460D02*
X6902008Y-12724936D01*
X6902008Y-12724936D02*
X6902008Y-12743984D01*
X6902008Y-12620174D02*
X6911531Y-12629698D01*
X6911531Y-12629698D02*
X6902008Y-12639222D01*
X6902008Y-12639222D02*
X6892484Y-12629698D01*
X6892484Y-12629698D02*
X6902008Y-12620174D01*
X6902008Y-12620174D02*
X6902008Y-12639222D01*
X5069802Y-12972500D02*
X5269802Y-13172500D01*
X5269802Y-12972500D02*
X5069802Y-13172500D01*
X5521055Y-12983031D02*
X5530579Y-12973508D01*
X5530579Y-12973508D02*
X5549627Y-12963984D01*
X5549627Y-12963984D02*
X5597246Y-12963984D01*
X5597246Y-12963984D02*
X5616293Y-12973508D01*
X5616293Y-12973508D02*
X5625817Y-12983031D01*
X5625817Y-12983031D02*
X5635341Y-13002079D01*
X5635341Y-13002079D02*
X5635341Y-13021127D01*
X5635341Y-13021127D02*
X5625817Y-13049698D01*
X5625817Y-13049698D02*
X5511531Y-13163984D01*
X5511531Y-13163984D02*
X5635341Y-13163984D01*
X5721055Y-13144936D02*
X5730579Y-13154460D01*
X5730579Y-13154460D02*
X5721055Y-13163984D01*
X5721055Y-13163984D02*
X5711531Y-13154460D01*
X5711531Y-13154460D02*
X5721055Y-13144936D01*
X5721055Y-13144936D02*
X5721055Y-13163984D01*
X5854388Y-12963984D02*
X5873436Y-12963984D01*
X5873436Y-12963984D02*
X5892484Y-12973508D01*
X5892484Y-12973508D02*
X5902008Y-12983031D01*
X5902008Y-12983031D02*
X5911531Y-13002079D01*
X5911531Y-13002079D02*
X5921055Y-13040174D01*
X5921055Y-13040174D02*
X5921055Y-13087793D01*
X5921055Y-13087793D02*
X5911531Y-13125888D01*
X5911531Y-13125888D02*
X5902008Y-13144936D01*
X5902008Y-13144936D02*
X5892484Y-13154460D01*
X5892484Y-13154460D02*
X5873436Y-13163984D01*
X5873436Y-13163984D02*
X5854388Y-13163984D01*
X5854388Y-13163984D02*
X5835341Y-13154460D01*
X5835341Y-13154460D02*
X5825817Y-13144936D01*
X5825817Y-13144936D02*
X5816293Y-13125888D01*
X5816293Y-13125888D02*
X5806769Y-13087793D01*
X5806769Y-13087793D02*
X5806769Y-13040174D01*
X5806769Y-13040174D02*
X5816293Y-13002079D01*
X5816293Y-13002079D02*
X5825817Y-12983031D01*
X5825817Y-12983031D02*
X5835341Y-12973508D01*
X5835341Y-12973508D02*
X5854388Y-12963984D01*
X6044865Y-12963984D02*
X6063912Y-12963984D01*
X6063912Y-12963984D02*
X6082960Y-12973508D01*
X6082960Y-12973508D02*
X6092484Y-12983031D01*
X6092484Y-12983031D02*
X6102008Y-13002079D01*
X6102008Y-13002079D02*
X6111531Y-13040174D01*
X6111531Y-13040174D02*
X6111531Y-13087793D01*
X6111531Y-13087793D02*
X6102008Y-13125888D01*
X6102008Y-13125888D02*
X6092484Y-13144936D01*
X6092484Y-13144936D02*
X6082960Y-13154460D01*
X6082960Y-13154460D02*
X6063912Y-13163984D01*
X6063912Y-13163984D02*
X6044865Y-13163984D01*
X6044865Y-13163984D02*
X6025817Y-13154460D01*
X6025817Y-13154460D02*
X6016293Y-13144936D01*
X6016293Y-13144936D02*
X6006769Y-13125888D01*
X6006769Y-13125888D02*
X5997246Y-13087793D01*
X5997246Y-13087793D02*
X5997246Y-13040174D01*
X5997246Y-13040174D02*
X6006769Y-13002079D01*
X6006769Y-13002079D02*
X6016293Y-12983031D01*
X6016293Y-12983031D02*
X6025817Y-12973508D01*
X6025817Y-12973508D02*
X6044865Y-12963984D01*
X6235341Y-12963984D02*
X6254389Y-12963984D01*
X6254389Y-12963984D02*
X6273436Y-12973508D01*
X6273436Y-12973508D02*
X6282960Y-12983031D01*
X6282960Y-12983031D02*
X6292484Y-13002079D01*
X6292484Y-13002079D02*
X6302008Y-13040174D01*
X6302008Y-13040174D02*
X6302008Y-13087793D01*
X6302008Y-13087793D02*
X6292484Y-13125888D01*
X6292484Y-13125888D02*
X6282960Y-13144936D01*
X6282960Y-13144936D02*
X6273436Y-13154460D01*
X6273436Y-13154460D02*
X6254389Y-13163984D01*
X6254389Y-13163984D02*
X6235341Y-13163984D01*
X6235341Y-13163984D02*
X6216293Y-13154460D01*
X6216293Y-13154460D02*
X6206769Y-13144936D01*
X6206769Y-13144936D02*
X6197246Y-13125888D01*
X6197246Y-13125888D02*
X6187722Y-13087793D01*
X6187722Y-13087793D02*
X6187722Y-13040174D01*
X6187722Y-13040174D02*
X6197246Y-13002079D01*
X6197246Y-13002079D02*
X6206769Y-12983031D01*
X6206769Y-12983031D02*
X6216293Y-12973508D01*
X6216293Y-12973508D02*
X6235341Y-12963984D01*
X6387722Y-13163984D02*
X6387722Y-13030650D01*
X6387722Y-13049698D02*
X6397246Y-13040174D01*
X6397246Y-13040174D02*
X6416293Y-13030650D01*
X6416293Y-13030650D02*
X6444865Y-13030650D01*
X6444865Y-13030650D02*
X6463912Y-13040174D01*
X6463912Y-13040174D02*
X6473436Y-13059222D01*
X6473436Y-13059222D02*
X6473436Y-13163984D01*
X6473436Y-13059222D02*
X6482960Y-13040174D01*
X6482960Y-13040174D02*
X6502008Y-13030650D01*
X6502008Y-13030650D02*
X6530579Y-13030650D01*
X6530579Y-13030650D02*
X6549627Y-13040174D01*
X6549627Y-13040174D02*
X6559150Y-13059222D01*
X6559150Y-13059222D02*
X6559150Y-13163984D01*
X6654389Y-13163984D02*
X6654389Y-13030650D01*
X6654389Y-13049698D02*
X6663912Y-13040174D01*
X6663912Y-13040174D02*
X6682960Y-13030650D01*
X6682960Y-13030650D02*
X6711531Y-13030650D01*
X6711531Y-13030650D02*
X6730579Y-13040174D01*
X6730579Y-13040174D02*
X6740103Y-13059222D01*
X6740103Y-13059222D02*
X6740103Y-13163984D01*
X6740103Y-13059222D02*
X6749627Y-13040174D01*
X6749627Y-13040174D02*
X6768674Y-13030650D01*
X6768674Y-13030650D02*
X6797246Y-13030650D01*
X6797246Y-13030650D02*
X6816293Y-13040174D01*
X6816293Y-13040174D02*
X6825817Y-13059222D01*
X6825817Y-13059222D02*
X6825817Y-13163984D01*
X7216293Y-12954460D02*
X7044865Y-13211603D01*
X7473436Y-12963984D02*
X7492484Y-12963984D01*
X7492484Y-12963984D02*
X7511532Y-12973508D01*
X7511532Y-12973508D02*
X7521055Y-12983031D01*
X7521055Y-12983031D02*
X7530579Y-13002079D01*
X7530579Y-13002079D02*
X7540103Y-13040174D01*
X7540103Y-13040174D02*
X7540103Y-13087793D01*
X7540103Y-13087793D02*
X7530579Y-13125888D01*
X7530579Y-13125888D02*
X7521055Y-13144936D01*
X7521055Y-13144936D02*
X7511532Y-13154460D01*
X7511532Y-13154460D02*
X7492484Y-13163984D01*
X7492484Y-13163984D02*
X7473436Y-13163984D01*
X7473436Y-13163984D02*
X7454389Y-13154460D01*
X7454389Y-13154460D02*
X7444865Y-13144936D01*
X7444865Y-13144936D02*
X7435341Y-13125888D01*
X7435341Y-13125888D02*
X7425817Y-13087793D01*
X7425817Y-13087793D02*
X7425817Y-13040174D01*
X7425817Y-13040174D02*
X7435341Y-13002079D01*
X7435341Y-13002079D02*
X7444865Y-12983031D01*
X7444865Y-12983031D02*
X7454389Y-12973508D01*
X7454389Y-12973508D02*
X7473436Y-12963984D01*
X7625817Y-13144936D02*
X7635341Y-13154460D01*
X7635341Y-13154460D02*
X7625817Y-13163984D01*
X7625817Y-13163984D02*
X7616293Y-13154460D01*
X7616293Y-13154460D02*
X7625817Y-13144936D01*
X7625817Y-13144936D02*
X7625817Y-13163984D01*
X7759151Y-12963984D02*
X7778198Y-12963984D01*
X7778198Y-12963984D02*
X7797246Y-12973508D01*
X7797246Y-12973508D02*
X7806770Y-12983031D01*
X7806770Y-12983031D02*
X7816293Y-13002079D01*
X7816293Y-13002079D02*
X7825817Y-13040174D01*
X7825817Y-13040174D02*
X7825817Y-13087793D01*
X7825817Y-13087793D02*
X7816293Y-13125888D01*
X7816293Y-13125888D02*
X7806770Y-13144936D01*
X7806770Y-13144936D02*
X7797246Y-13154460D01*
X7797246Y-13154460D02*
X7778198Y-13163984D01*
X7778198Y-13163984D02*
X7759151Y-13163984D01*
X7759151Y-13163984D02*
X7740103Y-13154460D01*
X7740103Y-13154460D02*
X7730579Y-13144936D01*
X7730579Y-13144936D02*
X7721055Y-13125888D01*
X7721055Y-13125888D02*
X7711532Y-13087793D01*
X7711532Y-13087793D02*
X7711532Y-13040174D01*
X7711532Y-13040174D02*
X7721055Y-13002079D01*
X7721055Y-13002079D02*
X7730579Y-12983031D01*
X7730579Y-12983031D02*
X7740103Y-12973508D01*
X7740103Y-12973508D02*
X7759151Y-12963984D01*
X7892484Y-12963984D02*
X8025817Y-12963984D01*
X8025817Y-12963984D02*
X7940103Y-13163984D01*
X8130579Y-13049698D02*
X8111532Y-13040174D01*
X8111532Y-13040174D02*
X8102008Y-13030650D01*
X8102008Y-13030650D02*
X8092484Y-13011603D01*
X8092484Y-13011603D02*
X8092484Y-13002079D01*
X8092484Y-13002079D02*
X8102008Y-12983031D01*
X8102008Y-12983031D02*
X8111532Y-12973508D01*
X8111532Y-12973508D02*
X8130579Y-12963984D01*
X8130579Y-12963984D02*
X8168674Y-12963984D01*
X8168674Y-12963984D02*
X8187722Y-12973508D01*
X8187722Y-12973508D02*
X8197246Y-12983031D01*
X8197246Y-12983031D02*
X8206770Y-13002079D01*
X8206770Y-13002079D02*
X8206770Y-13011603D01*
X8206770Y-13011603D02*
X8197246Y-13030650D01*
X8197246Y-13030650D02*
X8187722Y-13040174D01*
X8187722Y-13040174D02*
X8168674Y-13049698D01*
X8168674Y-13049698D02*
X8130579Y-13049698D01*
X8130579Y-13049698D02*
X8111532Y-13059222D01*
X8111532Y-13059222D02*
X8102008Y-13068746D01*
X8102008Y-13068746D02*
X8092484Y-13087793D01*
X8092484Y-13087793D02*
X8092484Y-13125888D01*
X8092484Y-13125888D02*
X8102008Y-13144936D01*
X8102008Y-13144936D02*
X8111532Y-13154460D01*
X8111532Y-13154460D02*
X8130579Y-13163984D01*
X8130579Y-13163984D02*
X8168674Y-13163984D01*
X8168674Y-13163984D02*
X8187722Y-13154460D01*
X8187722Y-13154460D02*
X8197246Y-13144936D01*
X8197246Y-13144936D02*
X8206770Y-13125888D01*
X8206770Y-13125888D02*
X8206770Y-13087793D01*
X8206770Y-13087793D02*
X8197246Y-13068746D01*
X8197246Y-13068746D02*
X8187722Y-13059222D01*
X8187722Y-13059222D02*
X8168674Y-13049698D01*
X8273436Y-12963984D02*
X8406770Y-12963984D01*
X8406770Y-12963984D02*
X8321055Y-13163984D01*
X8473436Y-12963984D02*
X8473436Y-13002079D01*
X8549627Y-12963984D02*
X8549627Y-13002079D01*
X8844865Y-13240174D02*
X8835341Y-13230650D01*
X8835341Y-13230650D02*
X8816294Y-13202079D01*
X8816294Y-13202079D02*
X8806770Y-13183031D01*
X8806770Y-13183031D02*
X8797246Y-13154460D01*
X8797246Y-13154460D02*
X8787722Y-13106841D01*
X8787722Y-13106841D02*
X8787722Y-13068746D01*
X8787722Y-13068746D02*
X8797246Y-13021127D01*
X8797246Y-13021127D02*
X8806770Y-12992555D01*
X8806770Y-12992555D02*
X8816294Y-12973508D01*
X8816294Y-12973508D02*
X8835341Y-12944936D01*
X8835341Y-12944936D02*
X8844865Y-12935412D01*
X8911532Y-12983031D02*
X8921056Y-12973508D01*
X8921056Y-12973508D02*
X8940103Y-12963984D01*
X8940103Y-12963984D02*
X8987722Y-12963984D01*
X8987722Y-12963984D02*
X9006770Y-12973508D01*
X9006770Y-12973508D02*
X9016294Y-12983031D01*
X9016294Y-12983031D02*
X9025817Y-13002079D01*
X9025817Y-13002079D02*
X9025817Y-13021127D01*
X9025817Y-13021127D02*
X9016294Y-13049698D01*
X9016294Y-13049698D02*
X8902008Y-13163984D01*
X8902008Y-13163984D02*
X9025817Y-13163984D01*
X9263913Y-13163984D02*
X9263913Y-12963984D01*
X9349627Y-13163984D02*
X9349627Y-13059222D01*
X9349627Y-13059222D02*
X9340103Y-13040174D01*
X9340103Y-13040174D02*
X9321056Y-13030650D01*
X9321056Y-13030650D02*
X9292484Y-13030650D01*
X9292484Y-13030650D02*
X9273437Y-13040174D01*
X9273437Y-13040174D02*
X9263913Y-13049698D01*
X9473437Y-13163984D02*
X9454389Y-13154460D01*
X9454389Y-13154460D02*
X9444865Y-13144936D01*
X9444865Y-13144936D02*
X9435341Y-13125888D01*
X9435341Y-13125888D02*
X9435341Y-13068746D01*
X9435341Y-13068746D02*
X9444865Y-13049698D01*
X9444865Y-13049698D02*
X9454389Y-13040174D01*
X9454389Y-13040174D02*
X9473437Y-13030650D01*
X9473437Y-13030650D02*
X9502008Y-13030650D01*
X9502008Y-13030650D02*
X9521056Y-13040174D01*
X9521056Y-13040174D02*
X9530579Y-13049698D01*
X9530579Y-13049698D02*
X9540103Y-13068746D01*
X9540103Y-13068746D02*
X9540103Y-13125888D01*
X9540103Y-13125888D02*
X9530579Y-13144936D01*
X9530579Y-13144936D02*
X9521056Y-13154460D01*
X9521056Y-13154460D02*
X9502008Y-13163984D01*
X9502008Y-13163984D02*
X9473437Y-13163984D01*
X9654389Y-13163984D02*
X9635341Y-13154460D01*
X9635341Y-13154460D02*
X9625818Y-13135412D01*
X9625818Y-13135412D02*
X9625818Y-12963984D01*
X9806770Y-13154460D02*
X9787722Y-13163984D01*
X9787722Y-13163984D02*
X9749627Y-13163984D01*
X9749627Y-13163984D02*
X9730579Y-13154460D01*
X9730579Y-13154460D02*
X9721056Y-13135412D01*
X9721056Y-13135412D02*
X9721056Y-13059222D01*
X9721056Y-13059222D02*
X9730579Y-13040174D01*
X9730579Y-13040174D02*
X9749627Y-13030650D01*
X9749627Y-13030650D02*
X9787722Y-13030650D01*
X9787722Y-13030650D02*
X9806770Y-13040174D01*
X9806770Y-13040174D02*
X9816294Y-13059222D01*
X9816294Y-13059222D02*
X9816294Y-13078269D01*
X9816294Y-13078269D02*
X9721056Y-13097317D01*
X9892484Y-13154460D02*
X9911532Y-13163984D01*
X9911532Y-13163984D02*
X9949627Y-13163984D01*
X9949627Y-13163984D02*
X9968675Y-13154460D01*
X9968675Y-13154460D02*
X9978199Y-13135412D01*
X9978199Y-13135412D02*
X9978199Y-13125888D01*
X9978199Y-13125888D02*
X9968675Y-13106841D01*
X9968675Y-13106841D02*
X9949627Y-13097317D01*
X9949627Y-13097317D02*
X9921056Y-13097317D01*
X9921056Y-13097317D02*
X9902008Y-13087793D01*
X9902008Y-13087793D02*
X9892484Y-13068746D01*
X9892484Y-13068746D02*
X9892484Y-13059222D01*
X9892484Y-13059222D02*
X9902008Y-13040174D01*
X9902008Y-13040174D02*
X9921056Y-13030650D01*
X9921056Y-13030650D02*
X9949627Y-13030650D01*
X9949627Y-13030650D02*
X9968675Y-13040174D01*
X10044865Y-13240174D02*
X10054389Y-13230650D01*
X10054389Y-13230650D02*
X10073437Y-13202079D01*
X10073437Y-13202079D02*
X10082960Y-13183031D01*
X10082960Y-13183031D02*
X10092484Y-13154460D01*
X10092484Y-13154460D02*
X10102008Y-13106841D01*
X10102008Y-13106841D02*
X10102008Y-13068746D01*
X10102008Y-13068746D02*
X10092484Y-13021127D01*
X10092484Y-13021127D02*
X10082960Y-12992555D01*
X10082960Y-12992555D02*
X10073437Y-12973508D01*
X10073437Y-12973508D02*
X10054389Y-12944936D01*
X10054389Y-12944936D02*
X10044865Y-12935412D01*
X10406770Y-13240174D02*
X10397246Y-13230650D01*
X10397246Y-13230650D02*
X10378199Y-13202079D01*
X10378199Y-13202079D02*
X10368675Y-13183031D01*
X10368675Y-13183031D02*
X10359151Y-13154460D01*
X10359151Y-13154460D02*
X10349627Y-13106841D01*
X10349627Y-13106841D02*
X10349627Y-13068746D01*
X10349627Y-13068746D02*
X10359151Y-13021127D01*
X10359151Y-13021127D02*
X10368675Y-12992555D01*
X10368675Y-12992555D02*
X10378199Y-12973508D01*
X10378199Y-12973508D02*
X10397246Y-12944936D01*
X10397246Y-12944936D02*
X10406770Y-12935412D01*
X10482960Y-13030650D02*
X10482960Y-13163984D01*
X10482960Y-13049698D02*
X10492484Y-13040174D01*
X10492484Y-13040174D02*
X10511532Y-13030650D01*
X10511532Y-13030650D02*
X10540103Y-13030650D01*
X10540103Y-13030650D02*
X10559151Y-13040174D01*
X10559151Y-13040174D02*
X10568675Y-13059222D01*
X10568675Y-13059222D02*
X10568675Y-13163984D01*
X10692484Y-13163984D02*
X10673437Y-13154460D01*
X10673437Y-13154460D02*
X10663913Y-13144936D01*
X10663913Y-13144936D02*
X10654389Y-13125888D01*
X10654389Y-13125888D02*
X10654389Y-13068746D01*
X10654389Y-13068746D02*
X10663913Y-13049698D01*
X10663913Y-13049698D02*
X10673437Y-13040174D01*
X10673437Y-13040174D02*
X10692484Y-13030650D01*
X10692484Y-13030650D02*
X10721056Y-13030650D01*
X10721056Y-13030650D02*
X10740103Y-13040174D01*
X10740103Y-13040174D02*
X10749627Y-13049698D01*
X10749627Y-13049698D02*
X10759151Y-13068746D01*
X10759151Y-13068746D02*
X10759151Y-13125888D01*
X10759151Y-13125888D02*
X10749627Y-13144936D01*
X10749627Y-13144936D02*
X10740103Y-13154460D01*
X10740103Y-13154460D02*
X10721056Y-13163984D01*
X10721056Y-13163984D02*
X10692484Y-13163984D01*
X10816294Y-13030650D02*
X10892484Y-13030650D01*
X10844865Y-12963984D02*
X10844865Y-13135412D01*
X10844865Y-13135412D02*
X10854389Y-13154460D01*
X10854389Y-13154460D02*
X10873437Y-13163984D01*
X10873437Y-13163984D02*
X10892484Y-13163984D01*
X11111532Y-13030650D02*
X11111532Y-13230650D01*
X11111532Y-13040174D02*
X11130580Y-13030650D01*
X11130580Y-13030650D02*
X11168675Y-13030650D01*
X11168675Y-13030650D02*
X11187722Y-13040174D01*
X11187722Y-13040174D02*
X11197246Y-13049698D01*
X11197246Y-13049698D02*
X11206770Y-13068746D01*
X11206770Y-13068746D02*
X11206770Y-13125888D01*
X11206770Y-13125888D02*
X11197246Y-13144936D01*
X11197246Y-13144936D02*
X11187722Y-13154460D01*
X11187722Y-13154460D02*
X11168675Y-13163984D01*
X11168675Y-13163984D02*
X11130580Y-13163984D01*
X11130580Y-13163984D02*
X11111532Y-13154460D01*
X11321056Y-13163984D02*
X11302008Y-13154460D01*
X11302008Y-13154460D02*
X11292484Y-13135412D01*
X11292484Y-13135412D02*
X11292484Y-12963984D01*
X11482960Y-13163984D02*
X11482960Y-13059222D01*
X11482960Y-13059222D02*
X11473437Y-13040174D01*
X11473437Y-13040174D02*
X11454389Y-13030650D01*
X11454389Y-13030650D02*
X11416294Y-13030650D01*
X11416294Y-13030650D02*
X11397246Y-13040174D01*
X11482960Y-13154460D02*
X11463913Y-13163984D01*
X11463913Y-13163984D02*
X11416294Y-13163984D01*
X11416294Y-13163984D02*
X11397246Y-13154460D01*
X11397246Y-13154460D02*
X11387722Y-13135412D01*
X11387722Y-13135412D02*
X11387722Y-13116365D01*
X11387722Y-13116365D02*
X11397246Y-13097317D01*
X11397246Y-13097317D02*
X11416294Y-13087793D01*
X11416294Y-13087793D02*
X11463913Y-13087793D01*
X11463913Y-13087793D02*
X11482960Y-13078269D01*
X11549627Y-13030650D02*
X11625818Y-13030650D01*
X11578199Y-12963984D02*
X11578199Y-13135412D01*
X11578199Y-13135412D02*
X11587722Y-13154460D01*
X11587722Y-13154460D02*
X11606770Y-13163984D01*
X11606770Y-13163984D02*
X11625818Y-13163984D01*
X11768675Y-13154460D02*
X11749627Y-13163984D01*
X11749627Y-13163984D02*
X11711532Y-13163984D01*
X11711532Y-13163984D02*
X11692484Y-13154460D01*
X11692484Y-13154460D02*
X11682960Y-13135412D01*
X11682960Y-13135412D02*
X11682960Y-13059222D01*
X11682960Y-13059222D02*
X11692484Y-13040174D01*
X11692484Y-13040174D02*
X11711532Y-13030650D01*
X11711532Y-13030650D02*
X11749627Y-13030650D01*
X11749627Y-13030650D02*
X11768675Y-13040174D01*
X11768675Y-13040174D02*
X11778199Y-13059222D01*
X11778199Y-13059222D02*
X11778199Y-13078269D01*
X11778199Y-13078269D02*
X11682960Y-13097317D01*
X11949627Y-13163984D02*
X11949627Y-12963984D01*
X11949627Y-13154460D02*
X11930580Y-13163984D01*
X11930580Y-13163984D02*
X11892484Y-13163984D01*
X11892484Y-13163984D02*
X11873437Y-13154460D01*
X11873437Y-13154460D02*
X11863913Y-13144936D01*
X11863913Y-13144936D02*
X11854389Y-13125888D01*
X11854389Y-13125888D02*
X11854389Y-13068746D01*
X11854389Y-13068746D02*
X11863913Y-13049698D01*
X11863913Y-13049698D02*
X11873437Y-13040174D01*
X11873437Y-13040174D02*
X11892484Y-13030650D01*
X11892484Y-13030650D02*
X11930580Y-13030650D01*
X11930580Y-13030650D02*
X11949627Y-13040174D01*
X12025818Y-13240174D02*
X12035341Y-13230650D01*
X12035341Y-13230650D02*
X12054389Y-13202079D01*
X12054389Y-13202079D02*
X12063913Y-13183031D01*
X12063913Y-13183031D02*
X12073437Y-13154460D01*
X12073437Y-13154460D02*
X12082960Y-13106841D01*
X12082960Y-13106841D02*
X12082960Y-13068746D01*
X12082960Y-13068746D02*
X12073437Y-13021127D01*
X12073437Y-13021127D02*
X12063913Y-12992555D01*
X12063913Y-12992555D02*
X12054389Y-12973508D01*
X12054389Y-12973508D02*
X12035341Y-12944936D01*
X12035341Y-12944936D02*
X12025818Y-12935412D01*
X5269802Y-13392500D02*
G75*
G02*
X5069802Y-13392500I-100000J0D01*
G01*
X5069802Y-13392500D02*
G75*
G02*
X5269802Y-13392500I100000J0D01*
G01*
X5616293Y-13350650D02*
X5616293Y-13483984D01*
X5568674Y-13274460D02*
X5521055Y-13417317D01*
X5521055Y-13417317D02*
X5644865Y-13417317D01*
X5721055Y-13464936D02*
X5730579Y-13474460D01*
X5730579Y-13474460D02*
X5721055Y-13483984D01*
X5721055Y-13483984D02*
X5711531Y-13474460D01*
X5711531Y-13474460D02*
X5721055Y-13464936D01*
X5721055Y-13464936D02*
X5721055Y-13483984D01*
X5797246Y-13283984D02*
X5921055Y-13283984D01*
X5921055Y-13283984D02*
X5854388Y-13360174D01*
X5854388Y-13360174D02*
X5882960Y-13360174D01*
X5882960Y-13360174D02*
X5902008Y-13369698D01*
X5902008Y-13369698D02*
X5911531Y-13379222D01*
X5911531Y-13379222D02*
X5921055Y-13398269D01*
X5921055Y-13398269D02*
X5921055Y-13445888D01*
X5921055Y-13445888D02*
X5911531Y-13464936D01*
X5911531Y-13464936D02*
X5902008Y-13474460D01*
X5902008Y-13474460D02*
X5882960Y-13483984D01*
X5882960Y-13483984D02*
X5825817Y-13483984D01*
X5825817Y-13483984D02*
X5806769Y-13474460D01*
X5806769Y-13474460D02*
X5797246Y-13464936D01*
X6044865Y-13283984D02*
X6063912Y-13283984D01*
X6063912Y-13283984D02*
X6082960Y-13293508D01*
X6082960Y-13293508D02*
X6092484Y-13303031D01*
X6092484Y-13303031D02*
X6102008Y-13322079D01*
X6102008Y-13322079D02*
X6111531Y-13360174D01*
X6111531Y-13360174D02*
X6111531Y-13407793D01*
X6111531Y-13407793D02*
X6102008Y-13445888D01*
X6102008Y-13445888D02*
X6092484Y-13464936D01*
X6092484Y-13464936D02*
X6082960Y-13474460D01*
X6082960Y-13474460D02*
X6063912Y-13483984D01*
X6063912Y-13483984D02*
X6044865Y-13483984D01*
X6044865Y-13483984D02*
X6025817Y-13474460D01*
X6025817Y-13474460D02*
X6016293Y-13464936D01*
X6016293Y-13464936D02*
X6006769Y-13445888D01*
X6006769Y-13445888D02*
X5997246Y-13407793D01*
X5997246Y-13407793D02*
X5997246Y-13360174D01*
X5997246Y-13360174D02*
X6006769Y-13322079D01*
X6006769Y-13322079D02*
X6016293Y-13303031D01*
X6016293Y-13303031D02*
X6025817Y-13293508D01*
X6025817Y-13293508D02*
X6044865Y-13283984D01*
X6235341Y-13283984D02*
X6254389Y-13283984D01*
X6254389Y-13283984D02*
X6273436Y-13293508D01*
X6273436Y-13293508D02*
X6282960Y-13303031D01*
X6282960Y-13303031D02*
X6292484Y-13322079D01*
X6292484Y-13322079D02*
X6302008Y-13360174D01*
X6302008Y-13360174D02*
X6302008Y-13407793D01*
X6302008Y-13407793D02*
X6292484Y-13445888D01*
X6292484Y-13445888D02*
X6282960Y-13464936D01*
X6282960Y-13464936D02*
X6273436Y-13474460D01*
X6273436Y-13474460D02*
X6254389Y-13483984D01*
X6254389Y-13483984D02*
X6235341Y-13483984D01*
X6235341Y-13483984D02*
X6216293Y-13474460D01*
X6216293Y-13474460D02*
X6206769Y-13464936D01*
X6206769Y-13464936D02*
X6197246Y-13445888D01*
X6197246Y-13445888D02*
X6187722Y-13407793D01*
X6187722Y-13407793D02*
X6187722Y-13360174D01*
X6187722Y-13360174D02*
X6197246Y-13322079D01*
X6197246Y-13322079D02*
X6206769Y-13303031D01*
X6206769Y-13303031D02*
X6216293Y-13293508D01*
X6216293Y-13293508D02*
X6235341Y-13283984D01*
X6387722Y-13483984D02*
X6387722Y-13350650D01*
X6387722Y-13369698D02*
X6397246Y-13360174D01*
X6397246Y-13360174D02*
X6416293Y-13350650D01*
X6416293Y-13350650D02*
X6444865Y-13350650D01*
X6444865Y-13350650D02*
X6463912Y-13360174D01*
X6463912Y-13360174D02*
X6473436Y-13379222D01*
X6473436Y-13379222D02*
X6473436Y-13483984D01*
X6473436Y-13379222D02*
X6482960Y-13360174D01*
X6482960Y-13360174D02*
X6502008Y-13350650D01*
X6502008Y-13350650D02*
X6530579Y-13350650D01*
X6530579Y-13350650D02*
X6549627Y-13360174D01*
X6549627Y-13360174D02*
X6559150Y-13379222D01*
X6559150Y-13379222D02*
X6559150Y-13483984D01*
X6654389Y-13483984D02*
X6654389Y-13350650D01*
X6654389Y-13369698D02*
X6663912Y-13360174D01*
X6663912Y-13360174D02*
X6682960Y-13350650D01*
X6682960Y-13350650D02*
X6711531Y-13350650D01*
X6711531Y-13350650D02*
X6730579Y-13360174D01*
X6730579Y-13360174D02*
X6740103Y-13379222D01*
X6740103Y-13379222D02*
X6740103Y-13483984D01*
X6740103Y-13379222D02*
X6749627Y-13360174D01*
X6749627Y-13360174D02*
X6768674Y-13350650D01*
X6768674Y-13350650D02*
X6797246Y-13350650D01*
X6797246Y-13350650D02*
X6816293Y-13360174D01*
X6816293Y-13360174D02*
X6825817Y-13379222D01*
X6825817Y-13379222D02*
X6825817Y-13483984D01*
X7216293Y-13274460D02*
X7044865Y-13531603D01*
X7473436Y-13283984D02*
X7492484Y-13283984D01*
X7492484Y-13283984D02*
X7511532Y-13293508D01*
X7511532Y-13293508D02*
X7521055Y-13303031D01*
X7521055Y-13303031D02*
X7530579Y-13322079D01*
X7530579Y-13322079D02*
X7540103Y-13360174D01*
X7540103Y-13360174D02*
X7540103Y-13407793D01*
X7540103Y-13407793D02*
X7530579Y-13445888D01*
X7530579Y-13445888D02*
X7521055Y-13464936D01*
X7521055Y-13464936D02*
X7511532Y-13474460D01*
X7511532Y-13474460D02*
X7492484Y-13483984D01*
X7492484Y-13483984D02*
X7473436Y-13483984D01*
X7473436Y-13483984D02*
X7454389Y-13474460D01*
X7454389Y-13474460D02*
X7444865Y-13464936D01*
X7444865Y-13464936D02*
X7435341Y-13445888D01*
X7435341Y-13445888D02*
X7425817Y-13407793D01*
X7425817Y-13407793D02*
X7425817Y-13360174D01*
X7425817Y-13360174D02*
X7435341Y-13322079D01*
X7435341Y-13322079D02*
X7444865Y-13303031D01*
X7444865Y-13303031D02*
X7454389Y-13293508D01*
X7454389Y-13293508D02*
X7473436Y-13283984D01*
X7625817Y-13464936D02*
X7635341Y-13474460D01*
X7635341Y-13474460D02*
X7625817Y-13483984D01*
X7625817Y-13483984D02*
X7616293Y-13474460D01*
X7616293Y-13474460D02*
X7625817Y-13464936D01*
X7625817Y-13464936D02*
X7625817Y-13483984D01*
X7825817Y-13483984D02*
X7711532Y-13483984D01*
X7768674Y-13483984D02*
X7768674Y-13283984D01*
X7768674Y-13283984D02*
X7749627Y-13312555D01*
X7749627Y-13312555D02*
X7730579Y-13331603D01*
X7730579Y-13331603D02*
X7711532Y-13341127D01*
X7997246Y-13283984D02*
X7959151Y-13283984D01*
X7959151Y-13283984D02*
X7940103Y-13293508D01*
X7940103Y-13293508D02*
X7930579Y-13303031D01*
X7930579Y-13303031D02*
X7911532Y-13331603D01*
X7911532Y-13331603D02*
X7902008Y-13369698D01*
X7902008Y-13369698D02*
X7902008Y-13445888D01*
X7902008Y-13445888D02*
X7911532Y-13464936D01*
X7911532Y-13464936D02*
X7921055Y-13474460D01*
X7921055Y-13474460D02*
X7940103Y-13483984D01*
X7940103Y-13483984D02*
X7978198Y-13483984D01*
X7978198Y-13483984D02*
X7997246Y-13474460D01*
X7997246Y-13474460D02*
X8006770Y-13464936D01*
X8006770Y-13464936D02*
X8016293Y-13445888D01*
X8016293Y-13445888D02*
X8016293Y-13398269D01*
X8016293Y-13398269D02*
X8006770Y-13379222D01*
X8006770Y-13379222D02*
X7997246Y-13369698D01*
X7997246Y-13369698D02*
X7978198Y-13360174D01*
X7978198Y-13360174D02*
X7940103Y-13360174D01*
X7940103Y-13360174D02*
X7921055Y-13369698D01*
X7921055Y-13369698D02*
X7911532Y-13379222D01*
X7911532Y-13379222D02*
X7902008Y-13398269D01*
X8111532Y-13483984D02*
X8149627Y-13483984D01*
X8149627Y-13483984D02*
X8168674Y-13474460D01*
X8168674Y-13474460D02*
X8178198Y-13464936D01*
X8178198Y-13464936D02*
X8197246Y-13436365D01*
X8197246Y-13436365D02*
X8206770Y-13398269D01*
X8206770Y-13398269D02*
X8206770Y-13322079D01*
X8206770Y-13322079D02*
X8197246Y-13303031D01*
X8197246Y-13303031D02*
X8187722Y-13293508D01*
X8187722Y-13293508D02*
X8168674Y-13283984D01*
X8168674Y-13283984D02*
X8130579Y-13283984D01*
X8130579Y-13283984D02*
X8111532Y-13293508D01*
X8111532Y-13293508D02*
X8102008Y-13303031D01*
X8102008Y-13303031D02*
X8092484Y-13322079D01*
X8092484Y-13322079D02*
X8092484Y-13369698D01*
X8092484Y-13369698D02*
X8102008Y-13388746D01*
X8102008Y-13388746D02*
X8111532Y-13398269D01*
X8111532Y-13398269D02*
X8130579Y-13407793D01*
X8130579Y-13407793D02*
X8168674Y-13407793D01*
X8168674Y-13407793D02*
X8187722Y-13398269D01*
X8187722Y-13398269D02*
X8197246Y-13388746D01*
X8197246Y-13388746D02*
X8206770Y-13369698D01*
X8273436Y-13283984D02*
X8397246Y-13283984D01*
X8397246Y-13283984D02*
X8330579Y-13360174D01*
X8330579Y-13360174D02*
X8359151Y-13360174D01*
X8359151Y-13360174D02*
X8378198Y-13369698D01*
X8378198Y-13369698D02*
X8387722Y-13379222D01*
X8387722Y-13379222D02*
X8397246Y-13398269D01*
X8397246Y-13398269D02*
X8397246Y-13445888D01*
X8397246Y-13445888D02*
X8387722Y-13464936D01*
X8387722Y-13464936D02*
X8378198Y-13474460D01*
X8378198Y-13474460D02*
X8359151Y-13483984D01*
X8359151Y-13483984D02*
X8302008Y-13483984D01*
X8302008Y-13483984D02*
X8282960Y-13474460D01*
X8282960Y-13474460D02*
X8273436Y-13464936D01*
X8473436Y-13283984D02*
X8473436Y-13322079D01*
X8549627Y-13283984D02*
X8549627Y-13322079D01*
X8844865Y-13560174D02*
X8835341Y-13550650D01*
X8835341Y-13550650D02*
X8816294Y-13522079D01*
X8816294Y-13522079D02*
X8806770Y-13503031D01*
X8806770Y-13503031D02*
X8797246Y-13474460D01*
X8797246Y-13474460D02*
X8787722Y-13426841D01*
X8787722Y-13426841D02*
X8787722Y-13388746D01*
X8787722Y-13388746D02*
X8797246Y-13341127D01*
X8797246Y-13341127D02*
X8806770Y-13312555D01*
X8806770Y-13312555D02*
X8816294Y-13293508D01*
X8816294Y-13293508D02*
X8835341Y-13264936D01*
X8835341Y-13264936D02*
X8844865Y-13255412D01*
X8930579Y-13483984D02*
X8968675Y-13483984D01*
X8968675Y-13483984D02*
X8987722Y-13474460D01*
X8987722Y-13474460D02*
X8997246Y-13464936D01*
X8997246Y-13464936D02*
X9016294Y-13436365D01*
X9016294Y-13436365D02*
X9025817Y-13398269D01*
X9025817Y-13398269D02*
X9025817Y-13322079D01*
X9025817Y-13322079D02*
X9016294Y-13303031D01*
X9016294Y-13303031D02*
X9006770Y-13293508D01*
X9006770Y-13293508D02*
X8987722Y-13283984D01*
X8987722Y-13283984D02*
X8949627Y-13283984D01*
X8949627Y-13283984D02*
X8930579Y-13293508D01*
X8930579Y-13293508D02*
X8921056Y-13303031D01*
X8921056Y-13303031D02*
X8911532Y-13322079D01*
X8911532Y-13322079D02*
X8911532Y-13369698D01*
X8911532Y-13369698D02*
X8921056Y-13388746D01*
X8921056Y-13388746D02*
X8930579Y-13398269D01*
X8930579Y-13398269D02*
X8949627Y-13407793D01*
X8949627Y-13407793D02*
X8987722Y-13407793D01*
X8987722Y-13407793D02*
X9006770Y-13398269D01*
X9006770Y-13398269D02*
X9016294Y-13388746D01*
X9016294Y-13388746D02*
X9025817Y-13369698D01*
X9263913Y-13483984D02*
X9263913Y-13283984D01*
X9349627Y-13483984D02*
X9349627Y-13379222D01*
X9349627Y-13379222D02*
X9340103Y-13360174D01*
X9340103Y-13360174D02*
X9321056Y-13350650D01*
X9321056Y-13350650D02*
X9292484Y-13350650D01*
X9292484Y-13350650D02*
X9273437Y-13360174D01*
X9273437Y-13360174D02*
X9263913Y-13369698D01*
X9473437Y-13483984D02*
X9454389Y-13474460D01*
X9454389Y-13474460D02*
X9444865Y-13464936D01*
X9444865Y-13464936D02*
X9435341Y-13445888D01*
X9435341Y-13445888D02*
X9435341Y-13388746D01*
X9435341Y-13388746D02*
X9444865Y-13369698D01*
X9444865Y-13369698D02*
X9454389Y-13360174D01*
X9454389Y-13360174D02*
X9473437Y-13350650D01*
X9473437Y-13350650D02*
X9502008Y-13350650D01*
X9502008Y-13350650D02*
X9521056Y-13360174D01*
X9521056Y-13360174D02*
X9530579Y-13369698D01*
X9530579Y-13369698D02*
X9540103Y-13388746D01*
X9540103Y-13388746D02*
X9540103Y-13445888D01*
X9540103Y-13445888D02*
X9530579Y-13464936D01*
X9530579Y-13464936D02*
X9521056Y-13474460D01*
X9521056Y-13474460D02*
X9502008Y-13483984D01*
X9502008Y-13483984D02*
X9473437Y-13483984D01*
X9654389Y-13483984D02*
X9635341Y-13474460D01*
X9635341Y-13474460D02*
X9625818Y-13455412D01*
X9625818Y-13455412D02*
X9625818Y-13283984D01*
X9806770Y-13474460D02*
X9787722Y-13483984D01*
X9787722Y-13483984D02*
X9749627Y-13483984D01*
X9749627Y-13483984D02*
X9730579Y-13474460D01*
X9730579Y-13474460D02*
X9721056Y-13455412D01*
X9721056Y-13455412D02*
X9721056Y-13379222D01*
X9721056Y-13379222D02*
X9730579Y-13360174D01*
X9730579Y-13360174D02*
X9749627Y-13350650D01*
X9749627Y-13350650D02*
X9787722Y-13350650D01*
X9787722Y-13350650D02*
X9806770Y-13360174D01*
X9806770Y-13360174D02*
X9816294Y-13379222D01*
X9816294Y-13379222D02*
X9816294Y-13398269D01*
X9816294Y-13398269D02*
X9721056Y-13417317D01*
X9892484Y-13474460D02*
X9911532Y-13483984D01*
X9911532Y-13483984D02*
X9949627Y-13483984D01*
X9949627Y-13483984D02*
X9968675Y-13474460D01*
X9968675Y-13474460D02*
X9978199Y-13455412D01*
X9978199Y-13455412D02*
X9978199Y-13445888D01*
X9978199Y-13445888D02*
X9968675Y-13426841D01*
X9968675Y-13426841D02*
X9949627Y-13417317D01*
X9949627Y-13417317D02*
X9921056Y-13417317D01*
X9921056Y-13417317D02*
X9902008Y-13407793D01*
X9902008Y-13407793D02*
X9892484Y-13388746D01*
X9892484Y-13388746D02*
X9892484Y-13379222D01*
X9892484Y-13379222D02*
X9902008Y-13360174D01*
X9902008Y-13360174D02*
X9921056Y-13350650D01*
X9921056Y-13350650D02*
X9949627Y-13350650D01*
X9949627Y-13350650D02*
X9968675Y-13360174D01*
X10044865Y-13560174D02*
X10054389Y-13550650D01*
X10054389Y-13550650D02*
X10073437Y-13522079D01*
X10073437Y-13522079D02*
X10082960Y-13503031D01*
X10082960Y-13503031D02*
X10092484Y-13474460D01*
X10092484Y-13474460D02*
X10102008Y-13426841D01*
X10102008Y-13426841D02*
X10102008Y-13388746D01*
X10102008Y-13388746D02*
X10092484Y-13341127D01*
X10092484Y-13341127D02*
X10082960Y-13312555D01*
X10082960Y-13312555D02*
X10073437Y-13293508D01*
X10073437Y-13293508D02*
X10054389Y-13264936D01*
X10054389Y-13264936D02*
X10044865Y-13255412D01*
X10406770Y-13560174D02*
X10397246Y-13550650D01*
X10397246Y-13550650D02*
X10378199Y-13522079D01*
X10378199Y-13522079D02*
X10368675Y-13503031D01*
X10368675Y-13503031D02*
X10359151Y-13474460D01*
X10359151Y-13474460D02*
X10349627Y-13426841D01*
X10349627Y-13426841D02*
X10349627Y-13388746D01*
X10349627Y-13388746D02*
X10359151Y-13341127D01*
X10359151Y-13341127D02*
X10368675Y-13312555D01*
X10368675Y-13312555D02*
X10378199Y-13293508D01*
X10378199Y-13293508D02*
X10397246Y-13264936D01*
X10397246Y-13264936D02*
X10406770Y-13255412D01*
X10482960Y-13350650D02*
X10482960Y-13483984D01*
X10482960Y-13369698D02*
X10492484Y-13360174D01*
X10492484Y-13360174D02*
X10511532Y-13350650D01*
X10511532Y-13350650D02*
X10540103Y-13350650D01*
X10540103Y-13350650D02*
X10559151Y-13360174D01*
X10559151Y-13360174D02*
X10568675Y-13379222D01*
X10568675Y-13379222D02*
X10568675Y-13483984D01*
X10692484Y-13483984D02*
X10673437Y-13474460D01*
X10673437Y-13474460D02*
X10663913Y-13464936D01*
X10663913Y-13464936D02*
X10654389Y-13445888D01*
X10654389Y-13445888D02*
X10654389Y-13388746D01*
X10654389Y-13388746D02*
X10663913Y-13369698D01*
X10663913Y-13369698D02*
X10673437Y-13360174D01*
X10673437Y-13360174D02*
X10692484Y-13350650D01*
X10692484Y-13350650D02*
X10721056Y-13350650D01*
X10721056Y-13350650D02*
X10740103Y-13360174D01*
X10740103Y-13360174D02*
X10749627Y-13369698D01*
X10749627Y-13369698D02*
X10759151Y-13388746D01*
X10759151Y-13388746D02*
X10759151Y-13445888D01*
X10759151Y-13445888D02*
X10749627Y-13464936D01*
X10749627Y-13464936D02*
X10740103Y-13474460D01*
X10740103Y-13474460D02*
X10721056Y-13483984D01*
X10721056Y-13483984D02*
X10692484Y-13483984D01*
X10816294Y-13350650D02*
X10892484Y-13350650D01*
X10844865Y-13283984D02*
X10844865Y-13455412D01*
X10844865Y-13455412D02*
X10854389Y-13474460D01*
X10854389Y-13474460D02*
X10873437Y-13483984D01*
X10873437Y-13483984D02*
X10892484Y-13483984D01*
X11111532Y-13350650D02*
X11111532Y-13550650D01*
X11111532Y-13360174D02*
X11130580Y-13350650D01*
X11130580Y-13350650D02*
X11168675Y-13350650D01*
X11168675Y-13350650D02*
X11187722Y-13360174D01*
X11187722Y-13360174D02*
X11197246Y-13369698D01*
X11197246Y-13369698D02*
X11206770Y-13388746D01*
X11206770Y-13388746D02*
X11206770Y-13445888D01*
X11206770Y-13445888D02*
X11197246Y-13464936D01*
X11197246Y-13464936D02*
X11187722Y-13474460D01*
X11187722Y-13474460D02*
X11168675Y-13483984D01*
X11168675Y-13483984D02*
X11130580Y-13483984D01*
X11130580Y-13483984D02*
X11111532Y-13474460D01*
X11321056Y-13483984D02*
X11302008Y-13474460D01*
X11302008Y-13474460D02*
X11292484Y-13455412D01*
X11292484Y-13455412D02*
X11292484Y-13283984D01*
X11482960Y-13483984D02*
X11482960Y-13379222D01*
X11482960Y-13379222D02*
X11473437Y-13360174D01*
X11473437Y-13360174D02*
X11454389Y-13350650D01*
X11454389Y-13350650D02*
X11416294Y-13350650D01*
X11416294Y-13350650D02*
X11397246Y-13360174D01*
X11482960Y-13474460D02*
X11463913Y-13483984D01*
X11463913Y-13483984D02*
X11416294Y-13483984D01*
X11416294Y-13483984D02*
X11397246Y-13474460D01*
X11397246Y-13474460D02*
X11387722Y-13455412D01*
X11387722Y-13455412D02*
X11387722Y-13436365D01*
X11387722Y-13436365D02*
X11397246Y-13417317D01*
X11397246Y-13417317D02*
X11416294Y-13407793D01*
X11416294Y-13407793D02*
X11463913Y-13407793D01*
X11463913Y-13407793D02*
X11482960Y-13398269D01*
X11549627Y-13350650D02*
X11625818Y-13350650D01*
X11578199Y-13283984D02*
X11578199Y-13455412D01*
X11578199Y-13455412D02*
X11587722Y-13474460D01*
X11587722Y-13474460D02*
X11606770Y-13483984D01*
X11606770Y-13483984D02*
X11625818Y-13483984D01*
X11768675Y-13474460D02*
X11749627Y-13483984D01*
X11749627Y-13483984D02*
X11711532Y-13483984D01*
X11711532Y-13483984D02*
X11692484Y-13474460D01*
X11692484Y-13474460D02*
X11682960Y-13455412D01*
X11682960Y-13455412D02*
X11682960Y-13379222D01*
X11682960Y-13379222D02*
X11692484Y-13360174D01*
X11692484Y-13360174D02*
X11711532Y-13350650D01*
X11711532Y-13350650D02*
X11749627Y-13350650D01*
X11749627Y-13350650D02*
X11768675Y-13360174D01*
X11768675Y-13360174D02*
X11778199Y-13379222D01*
X11778199Y-13379222D02*
X11778199Y-13398269D01*
X11778199Y-13398269D02*
X11682960Y-13417317D01*
X11949627Y-13483984D02*
X11949627Y-13283984D01*
X11949627Y-13474460D02*
X11930580Y-13483984D01*
X11930580Y-13483984D02*
X11892484Y-13483984D01*
X11892484Y-13483984D02*
X11873437Y-13474460D01*
X11873437Y-13474460D02*
X11863913Y-13464936D01*
X11863913Y-13464936D02*
X11854389Y-13445888D01*
X11854389Y-13445888D02*
X11854389Y-13388746D01*
X11854389Y-13388746D02*
X11863913Y-13369698D01*
X11863913Y-13369698D02*
X11873437Y-13360174D01*
X11873437Y-13360174D02*
X11892484Y-13350650D01*
X11892484Y-13350650D02*
X11930580Y-13350650D01*
X11930580Y-13350650D02*
X11949627Y-13360174D01*
X12025818Y-13560174D02*
X12035341Y-13550650D01*
X12035341Y-13550650D02*
X12054389Y-13522079D01*
X12054389Y-13522079D02*
X12063913Y-13503031D01*
X12063913Y-13503031D02*
X12073437Y-13474460D01*
X12073437Y-13474460D02*
X12082960Y-13426841D01*
X12082960Y-13426841D02*
X12082960Y-13388746D01*
X12082960Y-13388746D02*
X12073437Y-13341127D01*
X12073437Y-13341127D02*
X12063913Y-13312555D01*
X12063913Y-13312555D02*
X12054389Y-13293508D01*
X12054389Y-13293508D02*
X12035341Y-13264936D01*
X12035341Y-13264936D02*
X12025818Y-13255412D01*
M02*
