G04 #@! TF.GenerationSoftware,KiCad,Pcbnew,8.0.4*
G04 #@! TF.CreationDate,2024-07-29T00:38:19+02:00*
G04 #@! TF.ProjectId,gps,6770732e-6b69-4636-9164-5f7063625858,rev?*
G04 #@! TF.SameCoordinates,Original*
G04 #@! TF.FileFunction,Profile,NP*
%FSLAX46Y46*%
G04 Gerber Fmt 4.6, Leading zero omitted, Abs format (unit mm)*
G04 Created by KiCad (PCBNEW 8.0.4) date 2024-07-29 00:38:19*
%MOMM*%
%LPD*%
G01*
G04 APERTURE LIST*
G04 #@! TA.AperFunction,Profile*
%ADD10C,0.100000*%
G04 #@! TD*
G04 #@! TA.AperFunction,Profile*
%ADD11C,0.150000*%
G04 #@! TD*
G04 APERTURE END LIST*
D10*
X135250000Y-110500000D02*
X137250000Y-110500000D01*
X137500000Y-56275000D02*
G75*
G02*
X136900000Y-56275000I-300000J0D01*
G01*
X136900000Y-56275000D02*
G75*
G02*
X137500000Y-56275000I300000J0D01*
G01*
X135600000Y-56250000D02*
G75*
G02*
X135000000Y-56250000I-300000J0D01*
G01*
X135000000Y-56250000D02*
G75*
G02*
X135600000Y-56250000I300000J0D01*
G01*
X135600000Y-105750000D02*
G75*
G02*
X135000000Y-105750000I-300000J0D01*
G01*
X135000000Y-105750000D02*
G75*
G02*
X135600000Y-105750000I300000J0D01*
G01*
X137500000Y-105750000D02*
G75*
G02*
X136900000Y-105750000I-300000J0D01*
G01*
X136900000Y-105750000D02*
G75*
G02*
X137500000Y-105750000I300000J0D01*
G01*
X135250000Y-105000000D02*
X137250000Y-105000000D01*
X135250000Y-61000000D02*
X137250000Y-61000000D01*
X135250000Y-55500000D02*
X137250000Y-55500000D01*
X135600000Y-60250000D02*
G75*
G02*
X135000000Y-60250000I-300000J0D01*
G01*
X135000000Y-60250000D02*
G75*
G02*
X135600000Y-60250000I300000J0D01*
G01*
X155870000Y-48450000D02*
G75*
G02*
X154870000Y-47450000I0J1000000D01*
G01*
X52750000Y-45750000D02*
G75*
G02*
X56750000Y-41750000I4000000J0D01*
G01*
X153860000Y-41750000D02*
G75*
G02*
X154872983Y-42750000I12900J-1000000D01*
G01*
X137500000Y-59275000D02*
G75*
G02*
X136900000Y-59275000I-300000J0D01*
G01*
X136900000Y-59275000D02*
G75*
G02*
X137500000Y-59275000I300000J0D01*
G01*
X135600000Y-57250000D02*
G75*
G02*
X135000000Y-57250000I-300000J0D01*
G01*
X135000000Y-57250000D02*
G75*
G02*
X135600000Y-57250000I300000J0D01*
G01*
X56578427Y-124250000D02*
G75*
G02*
X52749995Y-120171573I125073J3953500D01*
G01*
X135600000Y-58250000D02*
G75*
G02*
X135000000Y-58250000I-300000J0D01*
G01*
X135000000Y-58250000D02*
G75*
G02*
X135600000Y-58250000I300000J0D01*
G01*
D11*
X219750000Y-120171573D02*
G75*
G02*
X215921573Y-124250002I-3953400J-125027D01*
G01*
D10*
X137250000Y-105000000D02*
X137250000Y-61000000D01*
X137500000Y-58275000D02*
G75*
G02*
X136900000Y-58275000I-300000J0D01*
G01*
X136900000Y-58275000D02*
G75*
G02*
X137500000Y-58275000I300000J0D01*
G01*
X135600000Y-108750000D02*
G75*
G02*
X135000000Y-108750000I-300000J0D01*
G01*
X135000000Y-108750000D02*
G75*
G02*
X135600000Y-108750000I300000J0D01*
G01*
X137250000Y-45828427D02*
G75*
G02*
X141328427Y-41750000I4078400J27D01*
G01*
X135600000Y-109750000D02*
G75*
G02*
X135000000Y-109750000I-300000J0D01*
G01*
X135000000Y-109750000D02*
G75*
G02*
X135600000Y-109750000I300000J0D01*
G01*
X172200000Y-42750000D02*
X172200000Y-47450000D01*
X137500000Y-60275000D02*
G75*
G02*
X136900000Y-60275000I-300000J0D01*
G01*
X136900000Y-60275000D02*
G75*
G02*
X137500000Y-60275000I300000J0D01*
G01*
X137501976Y-106750000D02*
G75*
G02*
X136901976Y-106750000I-300000J0D01*
G01*
X136901976Y-106750000D02*
G75*
G02*
X137501976Y-106750000I300000J0D01*
G01*
X137501976Y-108750000D02*
G75*
G02*
X136901976Y-108750000I-300000J0D01*
G01*
X136901976Y-108750000D02*
G75*
G02*
X137501976Y-108750000I300000J0D01*
G01*
X135250000Y-120171573D02*
G75*
G02*
X131171573Y-124250000I-4078400J-27D01*
G01*
X56578427Y-124250000D02*
X131171573Y-124250000D01*
D11*
X219750000Y-120171573D02*
X219750000Y-45750000D01*
D10*
X154870000Y-42750000D02*
X154870000Y-47450000D01*
X131171573Y-41750000D02*
G75*
G02*
X135250000Y-45828427I27J-4078400D01*
G01*
X52750000Y-45750000D02*
X52750000Y-120171573D01*
X215750000Y-41750000D02*
X173200000Y-41750000D01*
X215750000Y-41750000D02*
G75*
G02*
X219750000Y-45750000I0J-4000000D01*
G01*
X141328427Y-124250000D02*
G75*
G02*
X137250000Y-120171573I-27J4078400D01*
G01*
X141328427Y-41750000D02*
X153860000Y-41750000D01*
X135250000Y-120171573D02*
X135250000Y-110500000D01*
X135250000Y-61000000D02*
X135250000Y-105000000D01*
X141328427Y-124250000D02*
X215921573Y-124250000D01*
X131171573Y-41750000D02*
X56750000Y-41750000D01*
X135600000Y-106750000D02*
G75*
G02*
X135000000Y-106750000I-300000J0D01*
G01*
X135000000Y-106750000D02*
G75*
G02*
X135600000Y-106750000I300000J0D01*
G01*
X172200000Y-42750000D02*
G75*
G02*
X173200000Y-41750000I1000000J0D01*
G01*
X135600000Y-59250000D02*
G75*
G02*
X135000000Y-59250000I-300000J0D01*
G01*
X135000000Y-59250000D02*
G75*
G02*
X135600000Y-59250000I300000J0D01*
G01*
X137501976Y-107750000D02*
G75*
G02*
X136901976Y-107750000I-300000J0D01*
G01*
X136901976Y-107750000D02*
G75*
G02*
X137501976Y-107750000I300000J0D01*
G01*
X135250000Y-45828427D02*
X135250000Y-55500000D01*
X172200000Y-47450000D02*
G75*
G02*
X171200000Y-48450000I-1000000J0D01*
G01*
X137250000Y-55500000D02*
X137250000Y-45828427D01*
X135600000Y-107750000D02*
G75*
G02*
X135000000Y-107750000I-300000J0D01*
G01*
X135000000Y-107750000D02*
G75*
G02*
X135600000Y-107750000I300000J0D01*
G01*
X137500000Y-57275000D02*
G75*
G02*
X136900000Y-57275000I-300000J0D01*
G01*
X136900000Y-57275000D02*
G75*
G02*
X137500000Y-57275000I300000J0D01*
G01*
X137250000Y-120171573D02*
X137250000Y-110500000D01*
X171200000Y-48450000D02*
X155870000Y-48450000D01*
X137501976Y-109750000D02*
G75*
G02*
X136901976Y-109750000I-300000J0D01*
G01*
X136901976Y-109750000D02*
G75*
G02*
X137501976Y-109750000I300000J0D01*
G01*
M02*
