M48
; DRILL file {KiCad 8.0.4} date 2024-07-29T00:01:39+0200
; FORMAT={-:-/ absolute / metric / decimal}
; #@! TF.CreationDate,2024-07-29T00:01:39+02:00
; #@! TF.GenerationSoftware,Kicad,Pcbnew,8.0.4
; #@! TF.FileFunction,Plated,1,2,PTH
FMAT,2
METRIC
; #@! TA.AperFunction,Plated,PTH,ViaDrill
T1C0.400
; #@! TA.AperFunction,Plated,PTH,ComponentDrill
T2C0.400
; #@! TA.AperFunction,Plated,PTH,ComponentDrill
T3C0.762
; #@! TA.AperFunction,Plated,PTH,ComponentDrill
T4C0.780
; #@! TA.AperFunction,Plated,PTH,ComponentDrill
T5C1.000
; #@! TA.AperFunction,Plated,PTH,ComponentDrill
T6C1.200
; #@! TA.AperFunction,Plated,PTH,ComponentDrill
T7C1.202
; #@! TA.AperFunction,Plated,PTH,ComponentDrill
T8C1.350
%
G90
G05
T1
X54.067Y-48.0
X54.067Y-53.0
X54.067Y-58.0
X54.067Y-63.0
X54.067Y-68.0
X54.067Y-73.0
X54.067Y-78.0
X54.067Y-83.0
X54.067Y-88.0
X54.067Y-93.0
X54.067Y-98.0
X54.067Y-103.0
X54.067Y-108.0
X54.067Y-113.0
X54.067Y-118.0
X55.067Y-44.0
X55.067Y-122.0
X55.97Y-98.04
X56.01Y-72.97
X56.17Y-67.99
X57.26Y-117.38
X57.81Y-108.97
X58.0Y-102.8
X58.42Y-115.6
X59.067Y-43.0
X59.067Y-123.0
X60.91Y-102.86
X62.47Y-58.87
X63.0Y-80.6
X63.46Y-96.23
X64.067Y-43.0
X64.067Y-123.0
X65.34Y-96.18
X67.348Y-108.252
X68.15Y-66.775
X68.25Y-57.26
X68.26Y-61.96
X69.067Y-43.0
X69.067Y-123.0
X69.1Y-70.9
X69.48Y-54.82
X69.7Y-77.9
X69.7Y-80.6
X70.64Y-68.02
X70.69Y-57.29
X70.74Y-62.03
X71.75Y-71.55
X73.445Y-68.575
X74.067Y-43.0
X74.067Y-123.0
X74.86Y-71.77
X75.445Y-67.7
X75.81Y-57.26
X75.82Y-99.06
X75.85Y-54.76
X75.95Y-72.78
X76.82Y-117.87
X77.37Y-68.6
X77.76Y-99.23
X79.067Y-43.0
X79.067Y-123.0
X79.09Y-100.75
X79.1Y-50.74
X79.81Y-88.52
X80.28Y-45.43
X80.425Y-87.608
X80.54Y-102.47
X80.7Y-80.7
X81.67Y-96.67
X81.688Y-95.525
X82.279Y-81.729
X83.149Y-96.986
X83.305Y-98.075
X83.5Y-83.15
X83.74Y-120.5
X83.87Y-57.32
X83.88Y-59.48
X83.89Y-54.77
X84.067Y-43.0
X84.067Y-123.0
X84.45Y-98.75
X84.56Y-106.41
X84.675Y-87.645
X85.38Y-91.661
X85.44Y-88.45
X86.04Y-86.93
X86.25Y-119.37
X86.35Y-110.81
X86.47Y-91.81
X88.31Y-86.86
X89.014Y-93.607
X89.067Y-43.0
X89.067Y-123.0
X89.1Y-92.51
X89.57Y-110.25
X90.006Y-117.814
X90.31Y-82.0
X90.48Y-100.97
X90.624Y-103.484
X90.79Y-110.28
X91.4Y-116.6
X91.75Y-54.82
X91.77Y-57.29
X91.77Y-112.03
X92.78Y-115.22
X93.111Y-104.081
X93.54Y-86.86
X93.66Y-91.66
X93.99Y-120.54
X94.067Y-43.0
X94.067Y-123.0
X94.32Y-107.58
X94.46Y-113.34
X95.5Y-103.18
X96.02Y-86.87
X96.55Y-82.6
X96.875Y-101.73
X97.035Y-118.7
X97.72Y-115.11
X98.24Y-87.52
X98.785Y-115.735
X99.067Y-43.0
X99.067Y-123.0
X99.11Y-120.49
X99.25Y-101.38
X100.32Y-88.54
X100.68Y-57.31
X100.8Y-102.94
X101.625Y-103.815
X101.86Y-97.951
X102.81Y-84.12
X102.83Y-92.79
X102.88Y-78.09
X102.904Y-88.672
X103.375Y-103.815
X103.45Y-94.775
X104.02Y-54.72
X104.03Y-102.88
X104.067Y-43.0
X104.067Y-123.0
X104.1Y-59.56
X104.12Y-57.29
X105.35Y-78.11
X106.01Y-88.43
X106.41Y-105.79
X106.9Y-117.51
X107.34Y-89.86
X108.93Y-92.8
X109.01Y-77.96
X109.067Y-43.0
X109.067Y-123.0
X110.04Y-67.97
X110.461Y-88.539
X111.37Y-78.2
X111.43Y-64.23
X111.56Y-57.31
X111.863Y-89.535
X112.0Y-87.55
X112.862Y-89.86
X112.9Y-87.01
X113.58Y-51.57
X113.6Y-54.76
X113.747Y-89.295
X113.765Y-82.74
X113.81Y-77.55
X113.99Y-57.35
X114.04Y-109.78
X114.067Y-43.0
X114.067Y-123.0
X114.07Y-73.05
X114.72Y-69.68
X115.37Y-62.03
X115.51Y-65.48
X117.615Y-69.692
X118.805Y-78.94
X118.897Y-90.414
X119.06Y-85.34
X119.067Y-43.0
X119.067Y-123.0
X119.88Y-86.31
X119.902Y-90.93
X120.78Y-86.97
X120.78Y-88.65
X120.787Y-90.365
X120.9Y-72.78
X124.067Y-43.0
X124.067Y-123.0
X124.18Y-57.13
X124.21Y-72.69
X124.69Y-94.81
X125.96Y-82.06
X126.37Y-93.36
X127.53Y-96.16
X128.85Y-62.0
X129.067Y-43.0
X129.067Y-123.0
X129.4Y-51.87
X130.02Y-84.26
X131.06Y-60.03
X133.067Y-44.0
X133.067Y-122.0
X134.067Y-48.0
X134.067Y-53.0
X134.067Y-58.0
X134.067Y-63.0
X134.067Y-68.0
X134.067Y-73.0
X134.067Y-78.0
X134.067Y-83.0
X134.067Y-88.0
X134.067Y-93.0
X134.067Y-98.0
X134.067Y-103.0
X134.067Y-108.0
X134.067Y-113.0
X134.067Y-118.0
X138.552Y-48.0
X138.552Y-53.0
X138.552Y-58.0
X138.552Y-63.0
X138.552Y-68.0
X138.552Y-73.0
X138.552Y-78.0
X138.552Y-83.0
X138.552Y-88.0
X138.552Y-93.0
X138.552Y-98.0
X138.552Y-103.0
X138.552Y-108.0
X138.552Y-113.0
X138.552Y-118.0
X139.552Y-44.0
X139.552Y-122.0
X142.59Y-97.91
X142.9Y-103.34
X143.552Y-43.0
X143.552Y-123.0
X144.36Y-106.99
X145.2Y-97.1
X145.21Y-86.53
X145.46Y-101.13
X145.49Y-89.48
X146.6Y-94.4
X146.975Y-79.871
X146.975Y-82.272
X147.25Y-86.51
X147.77Y-96.96
X148.552Y-43.0
X148.552Y-123.0
X148.725Y-79.871
X148.725Y-82.272
X149.52Y-104.19
X151.495Y-79.871
X151.495Y-82.272
X151.71Y-55.21
X151.92Y-58.2
X152.19Y-112.85
X153.55Y-42.997
X153.552Y-123.0
X153.6Y-49.4
X154.68Y-112.84
X155.2Y-101.15
X155.2Y-103.22
X155.39Y-105.54
X156.02Y-73.82
X156.03Y-75.72
X158.552Y-123.0
X159.05Y-49.4
X161.21Y-120.07
X162.22Y-88.57
X163.552Y-123.0
X164.06Y-88.51
X166.04Y-77.787
X167.52Y-76.41
X167.65Y-49.4
X168.22Y-106.94
X168.552Y-123.0
X168.76Y-103.85
X169.04Y-112.56
X169.12Y-100.67
X169.16Y-110.59
X173.55Y-43.05
X173.55Y-49.4
X173.552Y-123.0
X174.79Y-92.52
X177.11Y-92.52
X178.54Y-113.95
X178.55Y-43.0
X178.552Y-123.0
X178.61Y-120.225
X179.18Y-84.61
X179.78Y-86.8
X179.78Y-115.21
X180.32Y-90.79
X181.24Y-92.64
X183.552Y-43.0
X183.552Y-123.0
X186.0Y-100.51
X186.665Y-101.425
X187.05Y-83.59
X187.502Y-80.48
X188.41Y-87.01
X188.415Y-101.425
X188.552Y-43.0
X188.552Y-123.0
X189.2Y-100.55
X189.75Y-90.66
X189.82Y-99.51
X189.99Y-94.81
X189.992Y-106.45
X191.632Y-91.48
X191.632Y-107.48
X191.67Y-87.48
X192.27Y-58.06
X192.41Y-55.35
X193.19Y-100.48
X193.202Y-106.45
X193.552Y-43.0
X193.552Y-123.0
X193.775Y-99.548
X194.1Y-49.46
X195.42Y-74.92
X195.45Y-72.04
X195.525Y-99.72
X195.95Y-86.86
X196.09Y-106.36
X196.152Y-81.08
X196.27Y-100.58
X198.15Y-64.05
X198.552Y-43.0
X198.552Y-123.0
X200.05Y-90.71
X200.27Y-85.54
X200.28Y-94.22
X200.38Y-82.36
X200.91Y-83.266
X200.91Y-86.372
X201.48Y-95.61
X202.01Y-68.157
X202.11Y-104.28
X202.11Y-106.49
X203.21Y-86.406
X203.22Y-83.185
X203.24Y-57.86
X203.552Y-43.0
X203.552Y-123.0
X203.632Y-107.48
X203.74Y-85.5
X203.9Y-82.36
X204.07Y-66.13
X205.242Y-106.864
X205.26Y-103.89
X205.57Y-93.63
X206.25Y-90.89
X207.08Y-95.84
X207.251Y-81.105
X207.57Y-103.868
X207.58Y-106.865
X208.552Y-43.0
X208.552Y-123.0
X209.19Y-74.93
X209.609Y-103.895
X209.61Y-106.865
X210.011Y-101.58
X210.011Y-109.08
X211.05Y-73.01
X211.7Y-86.75
X213.25Y-67.92
X213.552Y-43.0
X213.552Y-123.0
X213.811Y-101.23
X213.811Y-103.5
X213.811Y-107.24
X213.811Y-109.43
X214.47Y-84.26
X217.552Y-44.0
X217.552Y-122.0
X217.611Y-101.58
X217.611Y-109.08
X218.552Y-48.0
X218.552Y-53.0
X218.552Y-58.0
X218.552Y-63.0
X218.552Y-68.0
X218.552Y-73.0
X218.552Y-78.0
X218.552Y-83.0
X218.552Y-88.0
X218.552Y-93.0
X218.552Y-98.0
X218.552Y-103.0
X218.552Y-108.0
X218.552Y-113.0
X218.552Y-118.0
T2
X83.02Y-49.43
X83.67Y-48.43
X84.32Y-49.43
X84.97Y-48.43
X85.62Y-49.43
T3
X93.13Y-47.73
X93.13Y-50.93
X96.33Y-49.33
X101.03Y-49.33
X105.73Y-49.33
X108.93Y-47.73
X108.93Y-50.93
T4
X85.11Y-109.72
X87.65Y-109.72
X87.65Y-119.88
X90.19Y-119.88
X92.73Y-109.72
X92.73Y-119.88
X95.27Y-109.72
X95.27Y-119.88
X97.81Y-119.88
X100.35Y-119.88
X102.89Y-109.72
X102.89Y-119.88
T5
X55.5Y-112.0
X55.5Y-117.0
X56.975Y-76.675
X56.975Y-79.215
X56.975Y-81.755
X56.975Y-84.295
X56.975Y-86.835
X56.975Y-89.375
X66.0Y-56.05
X66.0Y-58.59
X66.0Y-61.13
X70.0Y-112.0
X70.0Y-114.5
X70.0Y-117.0
X71.69Y-49.515
X74.23Y-49.515
X76.77Y-49.515
X79.94Y-70.41
X81.5Y-56.05
X81.5Y-58.59
X81.5Y-61.13
X86.25Y-56.05
X86.25Y-58.59
X86.25Y-61.13
X87.65Y-83.8
X87.65Y-105.7
X90.19Y-83.8
X90.19Y-105.7
X92.73Y-83.8
X92.73Y-105.7
X95.27Y-83.8
X95.27Y-105.7
X97.81Y-83.8
X97.81Y-105.7
X100.35Y-83.8
X100.35Y-105.7
X101.75Y-56.05
X101.75Y-58.59
X101.75Y-61.13
X106.5Y-56.05
X106.5Y-58.59
X106.5Y-61.13
X122.0Y-56.05
X122.0Y-58.59
X122.0Y-61.13
X131.0Y-75.38
X131.0Y-77.92
X131.0Y-80.46
X131.0Y-83.0
X131.0Y-85.54
X131.0Y-88.08
X131.0Y-90.62
X141.45Y-76.65
X141.45Y-79.19
X141.45Y-81.73
X141.45Y-84.27
X141.45Y-86.81
X141.45Y-89.35
X144.16Y-61.38
X146.63Y-99.02
X146.63Y-105.74
X146.7Y-61.38
X146.74Y-110.81
X146.79Y-115.25
X146.87Y-91.907
X180.64Y-112.84
X180.9Y-119.73
X185.62Y-81.61
X185.65Y-88.02
X185.94Y-72.4
X209.2Y-95.28
X211.74Y-95.28
X214.28Y-95.28
X215.45Y-75.38
X215.45Y-77.92
X215.45Y-80.46
X215.45Y-83.0
X215.45Y-85.54
X215.45Y-88.08
X215.45Y-90.62
X216.82Y-95.28
T6
X153.512Y-81.08
X153.512Y-83.62
X153.512Y-86.16
X153.512Y-88.7
X153.512Y-91.24
X153.512Y-93.78
X153.512Y-106.48
X153.512Y-109.02
X153.512Y-111.56
X153.512Y-114.1
X176.012Y-70.92
X176.012Y-73.46
X176.012Y-76.0
X176.012Y-78.54
X176.012Y-81.08
X176.012Y-83.62
X176.012Y-86.16
X176.012Y-88.7
X176.012Y-91.24
X176.012Y-93.78
X176.012Y-96.32
X176.012Y-98.86
X176.012Y-101.4
X176.012Y-103.94
X176.012Y-106.48
X176.012Y-109.02
X176.012Y-111.56
X176.012Y-114.1
T7
X80.745Y-49.54
X87.895Y-49.54
T8
X211.271Y-102.84
X211.271Y-107.92
X213.811Y-105.38
X216.351Y-102.84
X216.351Y-107.92
M30
