G04 #@! TF.GenerationSoftware,KiCad,Pcbnew,8.0.4*
G04 #@! TF.CreationDate,2024-07-29T21:25:00+02:00*
G04 #@! TF.ProjectId,gps,6770732e-6b69-4636-9164-5f7063625858,rev?*
G04 #@! TF.SameCoordinates,Original*
G04 #@! TF.FileFunction,Legend,Bot*
G04 #@! TF.FilePolarity,Positive*
%FSLAX46Y46*%
G04 Gerber Fmt 4.6, Leading zero omitted, Abs format (unit mm)*
G04 Created by KiCad (PCBNEW 8.0.4) date 2024-07-29 21:25:00*
%MOMM*%
%LPD*%
G01*
G04 APERTURE LIST*
G04 Aperture macros list*
%AMRoundRect*
0 Rectangle with rounded corners*
0 $1 Rounding radius*
0 $2 $3 $4 $5 $6 $7 $8 $9 X,Y pos of 4 corners*
0 Add a 4 corners polygon primitive as box body*
4,1,4,$2,$3,$4,$5,$6,$7,$8,$9,$2,$3,0*
0 Add four circle primitives for the rounded corners*
1,1,$1+$1,$2,$3*
1,1,$1+$1,$4,$5*
1,1,$1+$1,$6,$7*
1,1,$1+$1,$8,$9*
0 Add four rect primitives between the rounded corners*
20,1,$1+$1,$2,$3,$4,$5,0*
20,1,$1+$1,$4,$5,$6,$7,0*
20,1,$1+$1,$6,$7,$8,$9,0*
20,1,$1+$1,$8,$9,$2,$3,0*%
G04 Aperture macros list end*
%ADD10C,0.150000*%
%ADD11C,0.125000*%
%ADD12C,0.304800*%
%ADD13C,0.200000*%
%ADD14C,0.254000*%
%ADD15C,0.120000*%
%ADD16C,0.127000*%
%ADD17C,0.800000*%
%ADD18C,1.700000*%
%ADD19C,4.300000*%
%ADD20C,1.800000*%
%ADD21C,1.600000*%
%ADD22C,0.800000*%
%ADD23C,1.803150*%
%ADD24R,1.700000X1.700000*%
%ADD25O,1.700000X1.700000*%
%ADD26R,1.337000X1.337000*%
%ADD27C,1.337000*%
%ADD28R,2.000000X2.000000*%
%ADD29C,2.000000*%
%ADD30RoundRect,0.150000X0.150000X-0.825000X0.150000X0.825000X-0.150000X0.825000X-0.150000X-0.825000X0*%
%ADD31RoundRect,0.237500X0.237500X-0.300000X0.237500X0.300000X-0.237500X0.300000X-0.237500X-0.300000X0*%
%ADD32RoundRect,0.200000X0.700000X0.200000X-0.700000X0.200000X-0.700000X-0.200000X0.700000X-0.200000X0*%
%ADD33RoundRect,0.250000X-0.337500X-0.475000X0.337500X-0.475000X0.337500X0.475000X-0.337500X0.475000X0*%
%ADD34RoundRect,0.150000X-0.512500X-0.150000X0.512500X-0.150000X0.512500X0.150000X-0.512500X0.150000X0*%
%ADD35RoundRect,0.102000X0.900000X0.900000X-0.900000X0.900000X-0.900000X-0.900000X0.900000X-0.900000X0*%
%ADD36C,2.004000*%
%ADD37RoundRect,0.250000X-0.450000X0.350000X-0.450000X-0.350000X0.450000X-0.350000X0.450000X0.350000X0*%
%ADD38RoundRect,0.250000X0.350000X0.450000X-0.350000X0.450000X-0.350000X-0.450000X0.350000X-0.450000X0*%
%ADD39RoundRect,0.250001X0.462499X0.849999X-0.462499X0.849999X-0.462499X-0.849999X0.462499X-0.849999X0*%
%ADD40RoundRect,0.160000X0.160000X-0.222500X0.160000X0.222500X-0.160000X0.222500X-0.160000X-0.222500X0*%
%ADD41RoundRect,0.250000X-0.475000X0.337500X-0.475000X-0.337500X0.475000X-0.337500X0.475000X0.337500X0*%
%ADD42RoundRect,0.250000X-0.350000X-0.450000X0.350000X-0.450000X0.350000X0.450000X-0.350000X0.450000X0*%
%ADD43RoundRect,0.250000X0.450000X-0.350000X0.450000X0.350000X-0.450000X0.350000X-0.450000X-0.350000X0*%
%ADD44RoundRect,0.250000X0.337500X0.475000X-0.337500X0.475000X-0.337500X-0.475000X0.337500X-0.475000X0*%
%ADD45RoundRect,0.250000X-0.625000X0.400000X-0.625000X-0.400000X0.625000X-0.400000X0.625000X0.400000X0*%
%ADD46RoundRect,0.125000X0.537500X0.125000X-0.537500X0.125000X-0.537500X-0.125000X0.537500X-0.125000X0*%
%ADD47RoundRect,0.250000X-0.650000X1.000000X-0.650000X-1.000000X0.650000X-1.000000X0.650000X1.000000X0*%
%ADD48C,2.300000*%
%ADD49R,0.510000X1.500000*%
%ADD50RoundRect,0.250001X0.499999X0.924999X-0.499999X0.924999X-0.499999X-0.924999X0.499999X-0.924999X0*%
%ADD51R,3.500000X1.000000*%
%ADD52R,3.400000X1.500000*%
G04 APERTURE END LIST*
D10*
X74639819Y-51986779D02*
X73639819Y-51986779D01*
X73639819Y-51986779D02*
X73639819Y-52224874D01*
X73639819Y-52224874D02*
X73687438Y-52367731D01*
X73687438Y-52367731D02*
X73782676Y-52462969D01*
X73782676Y-52462969D02*
X73877914Y-52510588D01*
X73877914Y-52510588D02*
X74068390Y-52558207D01*
X74068390Y-52558207D02*
X74211247Y-52558207D01*
X74211247Y-52558207D02*
X74401723Y-52510588D01*
X74401723Y-52510588D02*
X74496961Y-52462969D01*
X74496961Y-52462969D02*
X74592200Y-52367731D01*
X74592200Y-52367731D02*
X74639819Y-52224874D01*
X74639819Y-52224874D02*
X74639819Y-51986779D01*
X74258866Y-52986779D02*
X74258866Y-53748684D01*
X77459819Y-51906779D02*
X76459819Y-51906779D01*
X76459819Y-51906779D02*
X76459819Y-52144874D01*
X76459819Y-52144874D02*
X76507438Y-52287731D01*
X76507438Y-52287731D02*
X76602676Y-52382969D01*
X76602676Y-52382969D02*
X76697914Y-52430588D01*
X76697914Y-52430588D02*
X76888390Y-52478207D01*
X76888390Y-52478207D02*
X77031247Y-52478207D01*
X77031247Y-52478207D02*
X77221723Y-52430588D01*
X77221723Y-52430588D02*
X77316961Y-52382969D01*
X77316961Y-52382969D02*
X77412200Y-52287731D01*
X77412200Y-52287731D02*
X77459819Y-52144874D01*
X77459819Y-52144874D02*
X77459819Y-51906779D01*
X77078866Y-52906779D02*
X77078866Y-53668684D01*
X77459819Y-53287731D02*
X76697914Y-53287731D01*
X71119819Y-51413922D02*
X72119819Y-51747255D01*
X72119819Y-51747255D02*
X71119819Y-52080588D01*
X71596009Y-52747255D02*
X71643628Y-52890112D01*
X71643628Y-52890112D02*
X71691247Y-52937731D01*
X71691247Y-52937731D02*
X71786485Y-52985350D01*
X71786485Y-52985350D02*
X71929342Y-52985350D01*
X71929342Y-52985350D02*
X72024580Y-52937731D01*
X72024580Y-52937731D02*
X72072200Y-52890112D01*
X72072200Y-52890112D02*
X72119819Y-52794874D01*
X72119819Y-52794874D02*
X72119819Y-52413922D01*
X72119819Y-52413922D02*
X71119819Y-52413922D01*
X71119819Y-52413922D02*
X71119819Y-52747255D01*
X71119819Y-52747255D02*
X71167438Y-52842493D01*
X71167438Y-52842493D02*
X71215057Y-52890112D01*
X71215057Y-52890112D02*
X71310295Y-52937731D01*
X71310295Y-52937731D02*
X71405533Y-52937731D01*
X71405533Y-52937731D02*
X71500771Y-52890112D01*
X71500771Y-52890112D02*
X71548390Y-52842493D01*
X71548390Y-52842493D02*
X71596009Y-52747255D01*
X71596009Y-52747255D02*
X71596009Y-52413922D01*
X71119819Y-53413922D02*
X71929342Y-53413922D01*
X71929342Y-53413922D02*
X72024580Y-53461541D01*
X72024580Y-53461541D02*
X72072200Y-53509160D01*
X72072200Y-53509160D02*
X72119819Y-53604398D01*
X72119819Y-53604398D02*
X72119819Y-53794874D01*
X72119819Y-53794874D02*
X72072200Y-53890112D01*
X72072200Y-53890112D02*
X72024580Y-53937731D01*
X72024580Y-53937731D02*
X71929342Y-53985350D01*
X71929342Y-53985350D02*
X71119819Y-53985350D01*
X72072200Y-54413922D02*
X72119819Y-54556779D01*
X72119819Y-54556779D02*
X72119819Y-54794874D01*
X72119819Y-54794874D02*
X72072200Y-54890112D01*
X72072200Y-54890112D02*
X72024580Y-54937731D01*
X72024580Y-54937731D02*
X71929342Y-54985350D01*
X71929342Y-54985350D02*
X71834104Y-54985350D01*
X71834104Y-54985350D02*
X71738866Y-54937731D01*
X71738866Y-54937731D02*
X71691247Y-54890112D01*
X71691247Y-54890112D02*
X71643628Y-54794874D01*
X71643628Y-54794874D02*
X71596009Y-54604398D01*
X71596009Y-54604398D02*
X71548390Y-54509160D01*
X71548390Y-54509160D02*
X71500771Y-54461541D01*
X71500771Y-54461541D02*
X71405533Y-54413922D01*
X71405533Y-54413922D02*
X71310295Y-54413922D01*
X71310295Y-54413922D02*
X71215057Y-54461541D01*
X71215057Y-54461541D02*
X71167438Y-54509160D01*
X71167438Y-54509160D02*
X71119819Y-54604398D01*
X71119819Y-54604398D02*
X71119819Y-54842493D01*
X71119819Y-54842493D02*
X71167438Y-54985350D01*
X148541133Y-59713220D02*
X148541133Y-58951316D01*
X148160180Y-59332268D02*
X148922085Y-59332268D01*
X216163220Y-72169819D02*
X216163220Y-72979342D01*
X216163220Y-72979342D02*
X216115601Y-73074580D01*
X216115601Y-73074580D02*
X216067982Y-73122200D01*
X216067982Y-73122200D02*
X215972744Y-73169819D01*
X215972744Y-73169819D02*
X215782268Y-73169819D01*
X215782268Y-73169819D02*
X215687030Y-73122200D01*
X215687030Y-73122200D02*
X215639411Y-73074580D01*
X215639411Y-73074580D02*
X215591792Y-72979342D01*
X215591792Y-72979342D02*
X215591792Y-72169819D01*
X215115601Y-73169819D02*
X215115601Y-72169819D01*
X215115601Y-72169819D02*
X214734649Y-72169819D01*
X214734649Y-72169819D02*
X214639411Y-72217438D01*
X214639411Y-72217438D02*
X214591792Y-72265057D01*
X214591792Y-72265057D02*
X214544173Y-72360295D01*
X214544173Y-72360295D02*
X214544173Y-72503152D01*
X214544173Y-72503152D02*
X214591792Y-72598390D01*
X214591792Y-72598390D02*
X214639411Y-72646009D01*
X214639411Y-72646009D02*
X214734649Y-72693628D01*
X214734649Y-72693628D02*
X215115601Y-72693628D01*
X57613220Y-73669819D02*
X57613220Y-74479342D01*
X57613220Y-74479342D02*
X57565601Y-74574580D01*
X57565601Y-74574580D02*
X57517982Y-74622200D01*
X57517982Y-74622200D02*
X57422744Y-74669819D01*
X57422744Y-74669819D02*
X57232268Y-74669819D01*
X57232268Y-74669819D02*
X57137030Y-74622200D01*
X57137030Y-74622200D02*
X57089411Y-74574580D01*
X57089411Y-74574580D02*
X57041792Y-74479342D01*
X57041792Y-74479342D02*
X57041792Y-73669819D01*
X56565601Y-74669819D02*
X56565601Y-73669819D01*
X56565601Y-73669819D02*
X56184649Y-73669819D01*
X56184649Y-73669819D02*
X56089411Y-73717438D01*
X56089411Y-73717438D02*
X56041792Y-73765057D01*
X56041792Y-73765057D02*
X55994173Y-73860295D01*
X55994173Y-73860295D02*
X55994173Y-74003152D01*
X55994173Y-74003152D02*
X56041792Y-74098390D01*
X56041792Y-74098390D02*
X56089411Y-74146009D01*
X56089411Y-74146009D02*
X56184649Y-74193628D01*
X56184649Y-74193628D02*
X56565601Y-74193628D01*
X142163220Y-73719819D02*
X142163220Y-74529342D01*
X142163220Y-74529342D02*
X142115601Y-74624580D01*
X142115601Y-74624580D02*
X142067982Y-74672200D01*
X142067982Y-74672200D02*
X141972744Y-74719819D01*
X141972744Y-74719819D02*
X141782268Y-74719819D01*
X141782268Y-74719819D02*
X141687030Y-74672200D01*
X141687030Y-74672200D02*
X141639411Y-74624580D01*
X141639411Y-74624580D02*
X141591792Y-74529342D01*
X141591792Y-74529342D02*
X141591792Y-73719819D01*
X141115601Y-74719819D02*
X141115601Y-73719819D01*
X141115601Y-73719819D02*
X140734649Y-73719819D01*
X140734649Y-73719819D02*
X140639411Y-73767438D01*
X140639411Y-73767438D02*
X140591792Y-73815057D01*
X140591792Y-73815057D02*
X140544173Y-73910295D01*
X140544173Y-73910295D02*
X140544173Y-74053152D01*
X140544173Y-74053152D02*
X140591792Y-74148390D01*
X140591792Y-74148390D02*
X140639411Y-74196009D01*
X140639411Y-74196009D02*
X140734649Y-74243628D01*
X140734649Y-74243628D02*
X141115601Y-74243628D01*
X122597619Y-118697550D02*
X122692857Y-118649931D01*
X122692857Y-118649931D02*
X122835714Y-118649931D01*
X122835714Y-118649931D02*
X122978571Y-118697550D01*
X122978571Y-118697550D02*
X123073809Y-118792788D01*
X123073809Y-118792788D02*
X123121428Y-118888026D01*
X123121428Y-118888026D02*
X123169047Y-119078502D01*
X123169047Y-119078502D02*
X123169047Y-119221359D01*
X123169047Y-119221359D02*
X123121428Y-119411835D01*
X123121428Y-119411835D02*
X123073809Y-119507073D01*
X123073809Y-119507073D02*
X122978571Y-119602312D01*
X122978571Y-119602312D02*
X122835714Y-119649931D01*
X122835714Y-119649931D02*
X122740476Y-119649931D01*
X122740476Y-119649931D02*
X122597619Y-119602312D01*
X122597619Y-119602312D02*
X122550000Y-119554692D01*
X122550000Y-119554692D02*
X122550000Y-119221359D01*
X122550000Y-119221359D02*
X122740476Y-119221359D01*
X122121428Y-119649931D02*
X122121428Y-118649931D01*
X122121428Y-118649931D02*
X121550000Y-119649931D01*
X121550000Y-119649931D02*
X121550000Y-118649931D01*
X121121428Y-119602312D02*
X120978571Y-119649931D01*
X120978571Y-119649931D02*
X120740476Y-119649931D01*
X120740476Y-119649931D02*
X120645238Y-119602312D01*
X120645238Y-119602312D02*
X120597619Y-119554692D01*
X120597619Y-119554692D02*
X120550000Y-119459454D01*
X120550000Y-119459454D02*
X120550000Y-119364216D01*
X120550000Y-119364216D02*
X120597619Y-119268978D01*
X120597619Y-119268978D02*
X120645238Y-119221359D01*
X120645238Y-119221359D02*
X120740476Y-119173740D01*
X120740476Y-119173740D02*
X120930952Y-119126121D01*
X120930952Y-119126121D02*
X121026190Y-119078502D01*
X121026190Y-119078502D02*
X121073809Y-119030883D01*
X121073809Y-119030883D02*
X121121428Y-118935645D01*
X121121428Y-118935645D02*
X121121428Y-118840407D01*
X121121428Y-118840407D02*
X121073809Y-118745169D01*
X121073809Y-118745169D02*
X121026190Y-118697550D01*
X121026190Y-118697550D02*
X120930952Y-118649931D01*
X120930952Y-118649931D02*
X120692857Y-118649931D01*
X120692857Y-118649931D02*
X120550000Y-118697550D01*
X120169047Y-119602312D02*
X120026190Y-119649931D01*
X120026190Y-119649931D02*
X119788095Y-119649931D01*
X119788095Y-119649931D02*
X119692857Y-119602312D01*
X119692857Y-119602312D02*
X119645238Y-119554692D01*
X119645238Y-119554692D02*
X119597619Y-119459454D01*
X119597619Y-119459454D02*
X119597619Y-119364216D01*
X119597619Y-119364216D02*
X119645238Y-119268978D01*
X119645238Y-119268978D02*
X119692857Y-119221359D01*
X119692857Y-119221359D02*
X119788095Y-119173740D01*
X119788095Y-119173740D02*
X119978571Y-119126121D01*
X119978571Y-119126121D02*
X120073809Y-119078502D01*
X120073809Y-119078502D02*
X120121428Y-119030883D01*
X120121428Y-119030883D02*
X120169047Y-118935645D01*
X120169047Y-118935645D02*
X120169047Y-118840407D01*
X120169047Y-118840407D02*
X120121428Y-118745169D01*
X120121428Y-118745169D02*
X120073809Y-118697550D01*
X120073809Y-118697550D02*
X119978571Y-118649931D01*
X119978571Y-118649931D02*
X119740476Y-118649931D01*
X119740476Y-118649931D02*
X119597619Y-118697550D01*
X119407143Y-119745169D02*
X118645238Y-119745169D01*
X117883333Y-118697550D02*
X117978571Y-118649931D01*
X117978571Y-118649931D02*
X118121428Y-118649931D01*
X118121428Y-118649931D02*
X118264285Y-118697550D01*
X118264285Y-118697550D02*
X118359523Y-118792788D01*
X118359523Y-118792788D02*
X118407142Y-118888026D01*
X118407142Y-118888026D02*
X118454761Y-119078502D01*
X118454761Y-119078502D02*
X118454761Y-119221359D01*
X118454761Y-119221359D02*
X118407142Y-119411835D01*
X118407142Y-119411835D02*
X118359523Y-119507073D01*
X118359523Y-119507073D02*
X118264285Y-119602312D01*
X118264285Y-119602312D02*
X118121428Y-119649931D01*
X118121428Y-119649931D02*
X118026190Y-119649931D01*
X118026190Y-119649931D02*
X117883333Y-119602312D01*
X117883333Y-119602312D02*
X117835714Y-119554692D01*
X117835714Y-119554692D02*
X117835714Y-119221359D01*
X117835714Y-119221359D02*
X118026190Y-119221359D01*
X117026190Y-119602312D02*
X117121428Y-119649931D01*
X117121428Y-119649931D02*
X117311904Y-119649931D01*
X117311904Y-119649931D02*
X117407142Y-119602312D01*
X117407142Y-119602312D02*
X117454761Y-119507073D01*
X117454761Y-119507073D02*
X117454761Y-119126121D01*
X117454761Y-119126121D02*
X117407142Y-119030883D01*
X117407142Y-119030883D02*
X117311904Y-118983264D01*
X117311904Y-118983264D02*
X117121428Y-118983264D01*
X117121428Y-118983264D02*
X117026190Y-119030883D01*
X117026190Y-119030883D02*
X116978571Y-119126121D01*
X116978571Y-119126121D02*
X116978571Y-119221359D01*
X116978571Y-119221359D02*
X117454761Y-119316597D01*
X116549999Y-119649931D02*
X116549999Y-118983264D01*
X116549999Y-119173740D02*
X116502380Y-119078502D01*
X116502380Y-119078502D02*
X116454761Y-119030883D01*
X116454761Y-119030883D02*
X116359523Y-118983264D01*
X116359523Y-118983264D02*
X116264285Y-118983264D01*
X115549999Y-119602312D02*
X115645237Y-119649931D01*
X115645237Y-119649931D02*
X115835713Y-119649931D01*
X115835713Y-119649931D02*
X115930951Y-119602312D01*
X115930951Y-119602312D02*
X115978570Y-119507073D01*
X115978570Y-119507073D02*
X115978570Y-119126121D01*
X115978570Y-119126121D02*
X115930951Y-119030883D01*
X115930951Y-119030883D02*
X115835713Y-118983264D01*
X115835713Y-118983264D02*
X115645237Y-118983264D01*
X115645237Y-118983264D02*
X115549999Y-119030883D01*
X115549999Y-119030883D02*
X115502380Y-119126121D01*
X115502380Y-119126121D02*
X115502380Y-119221359D01*
X115502380Y-119221359D02*
X115978570Y-119316597D01*
X115216665Y-118983264D02*
X114835713Y-118983264D01*
X115073808Y-118649931D02*
X115073808Y-119507073D01*
X115073808Y-119507073D02*
X115026189Y-119602312D01*
X115026189Y-119602312D02*
X114930951Y-119649931D01*
X114930951Y-119649931D02*
X114835713Y-119649931D01*
X120907142Y-120259875D02*
X120573809Y-121259875D01*
X120573809Y-121259875D02*
X120240476Y-120259875D01*
X119907142Y-121164636D02*
X119859523Y-121212256D01*
X119859523Y-121212256D02*
X119907142Y-121259875D01*
X119907142Y-121259875D02*
X119954761Y-121212256D01*
X119954761Y-121212256D02*
X119907142Y-121164636D01*
X119907142Y-121164636D02*
X119907142Y-121259875D01*
X118907143Y-121259875D02*
X119478571Y-121259875D01*
X119192857Y-121259875D02*
X119192857Y-120259875D01*
X119192857Y-120259875D02*
X119288095Y-120402732D01*
X119288095Y-120402732D02*
X119383333Y-120497970D01*
X119383333Y-120497970D02*
X119478571Y-120545589D01*
X118526190Y-120974160D02*
X118050000Y-120974160D01*
X118621428Y-121259875D02*
X118288095Y-120259875D01*
X118288095Y-120259875D02*
X117954762Y-121259875D01*
X117764285Y-120259875D02*
X117192857Y-120259875D01*
X117478571Y-121259875D02*
X117478571Y-120259875D01*
X131663220Y-72169819D02*
X131663220Y-72979342D01*
X131663220Y-72979342D02*
X131615601Y-73074580D01*
X131615601Y-73074580D02*
X131567982Y-73122200D01*
X131567982Y-73122200D02*
X131472744Y-73169819D01*
X131472744Y-73169819D02*
X131282268Y-73169819D01*
X131282268Y-73169819D02*
X131187030Y-73122200D01*
X131187030Y-73122200D02*
X131139411Y-73074580D01*
X131139411Y-73074580D02*
X131091792Y-72979342D01*
X131091792Y-72979342D02*
X131091792Y-72169819D01*
X130615601Y-73169819D02*
X130615601Y-72169819D01*
X130615601Y-72169819D02*
X130234649Y-72169819D01*
X130234649Y-72169819D02*
X130139411Y-72217438D01*
X130139411Y-72217438D02*
X130091792Y-72265057D01*
X130091792Y-72265057D02*
X130044173Y-72360295D01*
X130044173Y-72360295D02*
X130044173Y-72503152D01*
X130044173Y-72503152D02*
X130091792Y-72598390D01*
X130091792Y-72598390D02*
X130139411Y-72646009D01*
X130139411Y-72646009D02*
X130234649Y-72693628D01*
X130234649Y-72693628D02*
X130615601Y-72693628D01*
X212119819Y-91836779D02*
X211119819Y-91836779D01*
X211119819Y-91836779D02*
X211119819Y-92074874D01*
X211119819Y-92074874D02*
X211167438Y-92217731D01*
X211167438Y-92217731D02*
X211262676Y-92312969D01*
X211262676Y-92312969D02*
X211357914Y-92360588D01*
X211357914Y-92360588D02*
X211548390Y-92408207D01*
X211548390Y-92408207D02*
X211691247Y-92408207D01*
X211691247Y-92408207D02*
X211881723Y-92360588D01*
X211881723Y-92360588D02*
X211976961Y-92312969D01*
X211976961Y-92312969D02*
X212072200Y-92217731D01*
X212072200Y-92217731D02*
X212119819Y-92074874D01*
X212119819Y-92074874D02*
X212119819Y-91836779D01*
X212119819Y-92836779D02*
X211119819Y-92836779D01*
X211119819Y-92836779D02*
X211834104Y-93170112D01*
X211834104Y-93170112D02*
X211119819Y-93503445D01*
X211119819Y-93503445D02*
X212119819Y-93503445D01*
D11*
X214276547Y-97189378D02*
X214314642Y-97303664D01*
X214314642Y-97303664D02*
X214352738Y-97341759D01*
X214352738Y-97341759D02*
X214428928Y-97379855D01*
X214428928Y-97379855D02*
X214543214Y-97379855D01*
X214543214Y-97379855D02*
X214619404Y-97341759D01*
X214619404Y-97341759D02*
X214657500Y-97303664D01*
X214657500Y-97303664D02*
X214695595Y-97227474D01*
X214695595Y-97227474D02*
X214695595Y-96922712D01*
X214695595Y-96922712D02*
X213895595Y-96922712D01*
X213895595Y-96922712D02*
X213895595Y-97189378D01*
X213895595Y-97189378D02*
X213933690Y-97265569D01*
X213933690Y-97265569D02*
X213971785Y-97303664D01*
X213971785Y-97303664D02*
X214047976Y-97341759D01*
X214047976Y-97341759D02*
X214124166Y-97341759D01*
X214124166Y-97341759D02*
X214200357Y-97303664D01*
X214200357Y-97303664D02*
X214238452Y-97265569D01*
X214238452Y-97265569D02*
X214276547Y-97189378D01*
X214276547Y-97189378D02*
X214276547Y-96922712D01*
X213895595Y-97875093D02*
X213895595Y-98027474D01*
X213895595Y-98027474D02*
X213933690Y-98103664D01*
X213933690Y-98103664D02*
X214009880Y-98179855D01*
X214009880Y-98179855D02*
X214162261Y-98217950D01*
X214162261Y-98217950D02*
X214428928Y-98217950D01*
X214428928Y-98217950D02*
X214581309Y-98179855D01*
X214581309Y-98179855D02*
X214657500Y-98103664D01*
X214657500Y-98103664D02*
X214695595Y-98027474D01*
X214695595Y-98027474D02*
X214695595Y-97875093D01*
X214695595Y-97875093D02*
X214657500Y-97798902D01*
X214657500Y-97798902D02*
X214581309Y-97722712D01*
X214581309Y-97722712D02*
X214428928Y-97684616D01*
X214428928Y-97684616D02*
X214162261Y-97684616D01*
X214162261Y-97684616D02*
X214009880Y-97722712D01*
X214009880Y-97722712D02*
X213933690Y-97798902D01*
X213933690Y-97798902D02*
X213895595Y-97875093D01*
X213895595Y-98713188D02*
X213895595Y-98865569D01*
X213895595Y-98865569D02*
X213933690Y-98941759D01*
X213933690Y-98941759D02*
X214009880Y-99017950D01*
X214009880Y-99017950D02*
X214162261Y-99056045D01*
X214162261Y-99056045D02*
X214428928Y-99056045D01*
X214428928Y-99056045D02*
X214581309Y-99017950D01*
X214581309Y-99017950D02*
X214657500Y-98941759D01*
X214657500Y-98941759D02*
X214695595Y-98865569D01*
X214695595Y-98865569D02*
X214695595Y-98713188D01*
X214695595Y-98713188D02*
X214657500Y-98636997D01*
X214657500Y-98636997D02*
X214581309Y-98560807D01*
X214581309Y-98560807D02*
X214428928Y-98522711D01*
X214428928Y-98522711D02*
X214162261Y-98522711D01*
X214162261Y-98522711D02*
X214009880Y-98560807D01*
X214009880Y-98560807D02*
X213933690Y-98636997D01*
X213933690Y-98636997D02*
X213895595Y-98713188D01*
X213895595Y-99284616D02*
X213895595Y-99741759D01*
X214695595Y-99513187D02*
X213895595Y-99513187D01*
D10*
X178568866Y-46903220D02*
X178568866Y-46141316D01*
X142493220Y-59538866D02*
X141731316Y-59538866D01*
X178608866Y-52836779D02*
X178608866Y-53598684D01*
X178989819Y-53217731D02*
X178227914Y-53217731D01*
X207097619Y-118697550D02*
X207192857Y-118649931D01*
X207192857Y-118649931D02*
X207335714Y-118649931D01*
X207335714Y-118649931D02*
X207478571Y-118697550D01*
X207478571Y-118697550D02*
X207573809Y-118792788D01*
X207573809Y-118792788D02*
X207621428Y-118888026D01*
X207621428Y-118888026D02*
X207669047Y-119078502D01*
X207669047Y-119078502D02*
X207669047Y-119221359D01*
X207669047Y-119221359D02*
X207621428Y-119411835D01*
X207621428Y-119411835D02*
X207573809Y-119507073D01*
X207573809Y-119507073D02*
X207478571Y-119602312D01*
X207478571Y-119602312D02*
X207335714Y-119649931D01*
X207335714Y-119649931D02*
X207240476Y-119649931D01*
X207240476Y-119649931D02*
X207097619Y-119602312D01*
X207097619Y-119602312D02*
X207050000Y-119554692D01*
X207050000Y-119554692D02*
X207050000Y-119221359D01*
X207050000Y-119221359D02*
X207240476Y-119221359D01*
X206621428Y-119649931D02*
X206621428Y-118649931D01*
X206621428Y-118649931D02*
X206050000Y-119649931D01*
X206050000Y-119649931D02*
X206050000Y-118649931D01*
X205621428Y-119602312D02*
X205478571Y-119649931D01*
X205478571Y-119649931D02*
X205240476Y-119649931D01*
X205240476Y-119649931D02*
X205145238Y-119602312D01*
X205145238Y-119602312D02*
X205097619Y-119554692D01*
X205097619Y-119554692D02*
X205050000Y-119459454D01*
X205050000Y-119459454D02*
X205050000Y-119364216D01*
X205050000Y-119364216D02*
X205097619Y-119268978D01*
X205097619Y-119268978D02*
X205145238Y-119221359D01*
X205145238Y-119221359D02*
X205240476Y-119173740D01*
X205240476Y-119173740D02*
X205430952Y-119126121D01*
X205430952Y-119126121D02*
X205526190Y-119078502D01*
X205526190Y-119078502D02*
X205573809Y-119030883D01*
X205573809Y-119030883D02*
X205621428Y-118935645D01*
X205621428Y-118935645D02*
X205621428Y-118840407D01*
X205621428Y-118840407D02*
X205573809Y-118745169D01*
X205573809Y-118745169D02*
X205526190Y-118697550D01*
X205526190Y-118697550D02*
X205430952Y-118649931D01*
X205430952Y-118649931D02*
X205192857Y-118649931D01*
X205192857Y-118649931D02*
X205050000Y-118697550D01*
X204669047Y-119602312D02*
X204526190Y-119649931D01*
X204526190Y-119649931D02*
X204288095Y-119649931D01*
X204288095Y-119649931D02*
X204192857Y-119602312D01*
X204192857Y-119602312D02*
X204145238Y-119554692D01*
X204145238Y-119554692D02*
X204097619Y-119459454D01*
X204097619Y-119459454D02*
X204097619Y-119364216D01*
X204097619Y-119364216D02*
X204145238Y-119268978D01*
X204145238Y-119268978D02*
X204192857Y-119221359D01*
X204192857Y-119221359D02*
X204288095Y-119173740D01*
X204288095Y-119173740D02*
X204478571Y-119126121D01*
X204478571Y-119126121D02*
X204573809Y-119078502D01*
X204573809Y-119078502D02*
X204621428Y-119030883D01*
X204621428Y-119030883D02*
X204669047Y-118935645D01*
X204669047Y-118935645D02*
X204669047Y-118840407D01*
X204669047Y-118840407D02*
X204621428Y-118745169D01*
X204621428Y-118745169D02*
X204573809Y-118697550D01*
X204573809Y-118697550D02*
X204478571Y-118649931D01*
X204478571Y-118649931D02*
X204240476Y-118649931D01*
X204240476Y-118649931D02*
X204097619Y-118697550D01*
X203907143Y-119745169D02*
X203145238Y-119745169D01*
X202383333Y-118697550D02*
X202478571Y-118649931D01*
X202478571Y-118649931D02*
X202621428Y-118649931D01*
X202621428Y-118649931D02*
X202764285Y-118697550D01*
X202764285Y-118697550D02*
X202859523Y-118792788D01*
X202859523Y-118792788D02*
X202907142Y-118888026D01*
X202907142Y-118888026D02*
X202954761Y-119078502D01*
X202954761Y-119078502D02*
X202954761Y-119221359D01*
X202954761Y-119221359D02*
X202907142Y-119411835D01*
X202907142Y-119411835D02*
X202859523Y-119507073D01*
X202859523Y-119507073D02*
X202764285Y-119602312D01*
X202764285Y-119602312D02*
X202621428Y-119649931D01*
X202621428Y-119649931D02*
X202526190Y-119649931D01*
X202526190Y-119649931D02*
X202383333Y-119602312D01*
X202383333Y-119602312D02*
X202335714Y-119554692D01*
X202335714Y-119554692D02*
X202335714Y-119221359D01*
X202335714Y-119221359D02*
X202526190Y-119221359D01*
X201526190Y-119602312D02*
X201621428Y-119649931D01*
X201621428Y-119649931D02*
X201811904Y-119649931D01*
X201811904Y-119649931D02*
X201907142Y-119602312D01*
X201907142Y-119602312D02*
X201954761Y-119507073D01*
X201954761Y-119507073D02*
X201954761Y-119126121D01*
X201954761Y-119126121D02*
X201907142Y-119030883D01*
X201907142Y-119030883D02*
X201811904Y-118983264D01*
X201811904Y-118983264D02*
X201621428Y-118983264D01*
X201621428Y-118983264D02*
X201526190Y-119030883D01*
X201526190Y-119030883D02*
X201478571Y-119126121D01*
X201478571Y-119126121D02*
X201478571Y-119221359D01*
X201478571Y-119221359D02*
X201954761Y-119316597D01*
X201049999Y-119649931D02*
X201049999Y-118983264D01*
X201049999Y-119173740D02*
X201002380Y-119078502D01*
X201002380Y-119078502D02*
X200954761Y-119030883D01*
X200954761Y-119030883D02*
X200859523Y-118983264D01*
X200859523Y-118983264D02*
X200764285Y-118983264D01*
X200049999Y-119602312D02*
X200145237Y-119649931D01*
X200145237Y-119649931D02*
X200335713Y-119649931D01*
X200335713Y-119649931D02*
X200430951Y-119602312D01*
X200430951Y-119602312D02*
X200478570Y-119507073D01*
X200478570Y-119507073D02*
X200478570Y-119126121D01*
X200478570Y-119126121D02*
X200430951Y-119030883D01*
X200430951Y-119030883D02*
X200335713Y-118983264D01*
X200335713Y-118983264D02*
X200145237Y-118983264D01*
X200145237Y-118983264D02*
X200049999Y-119030883D01*
X200049999Y-119030883D02*
X200002380Y-119126121D01*
X200002380Y-119126121D02*
X200002380Y-119221359D01*
X200002380Y-119221359D02*
X200478570Y-119316597D01*
X199716665Y-118983264D02*
X199335713Y-118983264D01*
X199573808Y-118649931D02*
X199573808Y-119507073D01*
X199573808Y-119507073D02*
X199526189Y-119602312D01*
X199526189Y-119602312D02*
X199430951Y-119649931D01*
X199430951Y-119649931D02*
X199335713Y-119649931D01*
X205478570Y-120259875D02*
X205145237Y-121259875D01*
X205145237Y-121259875D02*
X204811904Y-120259875D01*
X204478570Y-121164636D02*
X204430951Y-121212256D01*
X204430951Y-121212256D02*
X204478570Y-121259875D01*
X204478570Y-121259875D02*
X204526189Y-121212256D01*
X204526189Y-121212256D02*
X204478570Y-121164636D01*
X204478570Y-121164636D02*
X204478570Y-121259875D01*
X203478571Y-121259875D02*
X204049999Y-121259875D01*
X203764285Y-121259875D02*
X203764285Y-120259875D01*
X203764285Y-120259875D02*
X203859523Y-120402732D01*
X203859523Y-120402732D02*
X203954761Y-120497970D01*
X203954761Y-120497970D02*
X204049999Y-120545589D01*
X202716666Y-120736065D02*
X202573809Y-120783684D01*
X202573809Y-120783684D02*
X202526190Y-120831303D01*
X202526190Y-120831303D02*
X202478571Y-120926541D01*
X202478571Y-120926541D02*
X202478571Y-121069398D01*
X202478571Y-121069398D02*
X202526190Y-121164636D01*
X202526190Y-121164636D02*
X202573809Y-121212256D01*
X202573809Y-121212256D02*
X202669047Y-121259875D01*
X202669047Y-121259875D02*
X203049999Y-121259875D01*
X203049999Y-121259875D02*
X203049999Y-120259875D01*
X203049999Y-120259875D02*
X202716666Y-120259875D01*
X202716666Y-120259875D02*
X202621428Y-120307494D01*
X202621428Y-120307494D02*
X202573809Y-120355113D01*
X202573809Y-120355113D02*
X202526190Y-120450351D01*
X202526190Y-120450351D02*
X202526190Y-120545589D01*
X202526190Y-120545589D02*
X202573809Y-120640827D01*
X202573809Y-120640827D02*
X202621428Y-120688446D01*
X202621428Y-120688446D02*
X202716666Y-120736065D01*
X202716666Y-120736065D02*
X203049999Y-120736065D01*
X202192856Y-120259875D02*
X201621428Y-120259875D01*
X201907142Y-121259875D02*
X201907142Y-120259875D01*
X208580180Y-93313220D02*
X209580180Y-93313220D01*
X209580180Y-93313220D02*
X209580180Y-93075125D01*
X209580180Y-93075125D02*
X209532561Y-92932268D01*
X209532561Y-92932268D02*
X209437323Y-92837030D01*
X209437323Y-92837030D02*
X209342085Y-92789411D01*
X209342085Y-92789411D02*
X209151609Y-92741792D01*
X209151609Y-92741792D02*
X209008752Y-92741792D01*
X209008752Y-92741792D02*
X208818276Y-92789411D01*
X208818276Y-92789411D02*
X208723038Y-92837030D01*
X208723038Y-92837030D02*
X208627800Y-92932268D01*
X208627800Y-92932268D02*
X208580180Y-93075125D01*
X208580180Y-93075125D02*
X208580180Y-93313220D01*
X208580180Y-92313220D02*
X209580180Y-92313220D01*
X209580180Y-92313220D02*
X209580180Y-91932268D01*
X209580180Y-91932268D02*
X209532561Y-91837030D01*
X209532561Y-91837030D02*
X209484942Y-91789411D01*
X209484942Y-91789411D02*
X209389704Y-91741792D01*
X209389704Y-91741792D02*
X209246847Y-91741792D01*
X209246847Y-91741792D02*
X209151609Y-91789411D01*
X209151609Y-91789411D02*
X209103990Y-91837030D01*
X209103990Y-91837030D02*
X209056371Y-91932268D01*
X209056371Y-91932268D02*
X209056371Y-92313220D01*
X113049819Y-69483881D02*
X113859342Y-69483881D01*
X113859342Y-69483881D02*
X113954580Y-69531500D01*
X113954580Y-69531500D02*
X114002200Y-69579119D01*
X114002200Y-69579119D02*
X114049819Y-69674357D01*
X114049819Y-69674357D02*
X114049819Y-69864833D01*
X114049819Y-69864833D02*
X114002200Y-69960071D01*
X114002200Y-69960071D02*
X113954580Y-70007690D01*
X113954580Y-70007690D02*
X113859342Y-70055309D01*
X113859342Y-70055309D02*
X113049819Y-70055309D01*
X114049819Y-71055309D02*
X114049819Y-70483881D01*
X114049819Y-70769595D02*
X113049819Y-70769595D01*
X113049819Y-70769595D02*
X113192676Y-70674357D01*
X113192676Y-70674357D02*
X113287914Y-70579119D01*
X113287914Y-70579119D02*
X113335533Y-70483881D01*
X113049819Y-71674357D02*
X113049819Y-71769595D01*
X113049819Y-71769595D02*
X113097438Y-71864833D01*
X113097438Y-71864833D02*
X113145057Y-71912452D01*
X113145057Y-71912452D02*
X113240295Y-71960071D01*
X113240295Y-71960071D02*
X113430771Y-72007690D01*
X113430771Y-72007690D02*
X113668866Y-72007690D01*
X113668866Y-72007690D02*
X113859342Y-71960071D01*
X113859342Y-71960071D02*
X113954580Y-71912452D01*
X113954580Y-71912452D02*
X114002200Y-71864833D01*
X114002200Y-71864833D02*
X114049819Y-71769595D01*
X114049819Y-71769595D02*
X114049819Y-71674357D01*
X114049819Y-71674357D02*
X114002200Y-71579119D01*
X114002200Y-71579119D02*
X113954580Y-71531500D01*
X113954580Y-71531500D02*
X113859342Y-71483881D01*
X113859342Y-71483881D02*
X113668866Y-71436262D01*
X113668866Y-71436262D02*
X113430771Y-71436262D01*
X113430771Y-71436262D02*
X113240295Y-71483881D01*
X113240295Y-71483881D02*
X113145057Y-71531500D01*
X113145057Y-71531500D02*
X113097438Y-71579119D01*
X113097438Y-71579119D02*
X113049819Y-71674357D01*
X76729510Y-66783333D02*
X76777130Y-66735714D01*
X76777130Y-66735714D02*
X76824749Y-66592857D01*
X76824749Y-66592857D02*
X76824749Y-66497619D01*
X76824749Y-66497619D02*
X76777130Y-66354762D01*
X76777130Y-66354762D02*
X76681891Y-66259524D01*
X76681891Y-66259524D02*
X76586653Y-66211905D01*
X76586653Y-66211905D02*
X76396177Y-66164286D01*
X76396177Y-66164286D02*
X76253320Y-66164286D01*
X76253320Y-66164286D02*
X76062844Y-66211905D01*
X76062844Y-66211905D02*
X75967606Y-66259524D01*
X75967606Y-66259524D02*
X75872368Y-66354762D01*
X75872368Y-66354762D02*
X75824749Y-66497619D01*
X75824749Y-66497619D02*
X75824749Y-66592857D01*
X75824749Y-66592857D02*
X75872368Y-66735714D01*
X75872368Y-66735714D02*
X75919987Y-66783333D01*
X75824749Y-67688095D02*
X75824749Y-67211905D01*
X75824749Y-67211905D02*
X76300939Y-67164286D01*
X76300939Y-67164286D02*
X76253320Y-67211905D01*
X76253320Y-67211905D02*
X76205701Y-67307143D01*
X76205701Y-67307143D02*
X76205701Y-67545238D01*
X76205701Y-67545238D02*
X76253320Y-67640476D01*
X76253320Y-67640476D02*
X76300939Y-67688095D01*
X76300939Y-67688095D02*
X76396177Y-67735714D01*
X76396177Y-67735714D02*
X76634272Y-67735714D01*
X76634272Y-67735714D02*
X76729510Y-67688095D01*
X76729510Y-67688095D02*
X76777130Y-67640476D01*
X76777130Y-67640476D02*
X76824749Y-67545238D01*
X76824749Y-67545238D02*
X76824749Y-67307143D01*
X76824749Y-67307143D02*
X76777130Y-67211905D01*
X76777130Y-67211905D02*
X76729510Y-67164286D01*
X198431904Y-89934819D02*
X198431904Y-90744342D01*
X198431904Y-90744342D02*
X198384285Y-90839580D01*
X198384285Y-90839580D02*
X198336666Y-90887200D01*
X198336666Y-90887200D02*
X198241428Y-90934819D01*
X198241428Y-90934819D02*
X198050952Y-90934819D01*
X198050952Y-90934819D02*
X197955714Y-90887200D01*
X197955714Y-90887200D02*
X197908095Y-90839580D01*
X197908095Y-90839580D02*
X197860476Y-90744342D01*
X197860476Y-90744342D02*
X197860476Y-89934819D01*
X196860476Y-90934819D02*
X197431904Y-90934819D01*
X197146190Y-90934819D02*
X197146190Y-89934819D01*
X197146190Y-89934819D02*
X197241428Y-90077676D01*
X197241428Y-90077676D02*
X197336666Y-90172914D01*
X197336666Y-90172914D02*
X197431904Y-90220533D01*
X131383333Y-92604819D02*
X131383333Y-93319104D01*
X131383333Y-93319104D02*
X131430952Y-93461961D01*
X131430952Y-93461961D02*
X131526190Y-93557200D01*
X131526190Y-93557200D02*
X131669047Y-93604819D01*
X131669047Y-93604819D02*
X131764285Y-93604819D01*
X130954761Y-92700057D02*
X130907142Y-92652438D01*
X130907142Y-92652438D02*
X130811904Y-92604819D01*
X130811904Y-92604819D02*
X130573809Y-92604819D01*
X130573809Y-92604819D02*
X130478571Y-92652438D01*
X130478571Y-92652438D02*
X130430952Y-92700057D01*
X130430952Y-92700057D02*
X130383333Y-92795295D01*
X130383333Y-92795295D02*
X130383333Y-92890533D01*
X130383333Y-92890533D02*
X130430952Y-93033390D01*
X130430952Y-93033390D02*
X131002380Y-93604819D01*
X131002380Y-93604819D02*
X130383333Y-93604819D01*
X105133336Y-91939580D02*
X105180955Y-91987200D01*
X105180955Y-91987200D02*
X105323812Y-92034819D01*
X105323812Y-92034819D02*
X105419050Y-92034819D01*
X105419050Y-92034819D02*
X105561907Y-91987200D01*
X105561907Y-91987200D02*
X105657145Y-91891961D01*
X105657145Y-91891961D02*
X105704764Y-91796723D01*
X105704764Y-91796723D02*
X105752383Y-91606247D01*
X105752383Y-91606247D02*
X105752383Y-91463390D01*
X105752383Y-91463390D02*
X105704764Y-91272914D01*
X105704764Y-91272914D02*
X105657145Y-91177676D01*
X105657145Y-91177676D02*
X105561907Y-91082438D01*
X105561907Y-91082438D02*
X105419050Y-91034819D01*
X105419050Y-91034819D02*
X105323812Y-91034819D01*
X105323812Y-91034819D02*
X105180955Y-91082438D01*
X105180955Y-91082438D02*
X105133336Y-91130057D01*
X104800002Y-91034819D02*
X104133336Y-91034819D01*
X104133336Y-91034819D02*
X104561907Y-92034819D01*
X62228094Y-61014819D02*
X62228094Y-61824342D01*
X62228094Y-61824342D02*
X62180475Y-61919580D01*
X62180475Y-61919580D02*
X62132856Y-61967200D01*
X62132856Y-61967200D02*
X62037618Y-62014819D01*
X62037618Y-62014819D02*
X61847142Y-62014819D01*
X61847142Y-62014819D02*
X61751904Y-61967200D01*
X61751904Y-61967200D02*
X61704285Y-61919580D01*
X61704285Y-61919580D02*
X61656666Y-61824342D01*
X61656666Y-61824342D02*
X61656666Y-61014819D01*
X60656666Y-62014819D02*
X61228094Y-62014819D01*
X60942380Y-62014819D02*
X60942380Y-61014819D01*
X60942380Y-61014819D02*
X61037618Y-61157676D01*
X61037618Y-61157676D02*
X61132856Y-61252914D01*
X61132856Y-61252914D02*
X61228094Y-61300533D01*
X59704285Y-62014819D02*
X60275713Y-62014819D01*
X59989999Y-62014819D02*
X59989999Y-61014819D01*
X59989999Y-61014819D02*
X60085237Y-61157676D01*
X60085237Y-61157676D02*
X60180475Y-61252914D01*
X60180475Y-61252914D02*
X60275713Y-61300533D01*
X217133333Y-92504819D02*
X217133333Y-93219104D01*
X217133333Y-93219104D02*
X217180952Y-93361961D01*
X217180952Y-93361961D02*
X217276190Y-93457200D01*
X217276190Y-93457200D02*
X217419047Y-93504819D01*
X217419047Y-93504819D02*
X217514285Y-93504819D01*
X216752380Y-92504819D02*
X216133333Y-92504819D01*
X216133333Y-92504819D02*
X216466666Y-92885771D01*
X216466666Y-92885771D02*
X216323809Y-92885771D01*
X216323809Y-92885771D02*
X216228571Y-92933390D01*
X216228571Y-92933390D02*
X216180952Y-92981009D01*
X216180952Y-92981009D02*
X216133333Y-93076247D01*
X216133333Y-93076247D02*
X216133333Y-93314342D01*
X216133333Y-93314342D02*
X216180952Y-93409580D01*
X216180952Y-93409580D02*
X216228571Y-93457200D01*
X216228571Y-93457200D02*
X216323809Y-93504819D01*
X216323809Y-93504819D02*
X216609523Y-93504819D01*
X216609523Y-93504819D02*
X216704761Y-93457200D01*
X216704761Y-93457200D02*
X216752380Y-93409580D01*
X165274404Y-88774819D02*
X165274404Y-89584342D01*
X165274404Y-89584342D02*
X165226785Y-89679580D01*
X165226785Y-89679580D02*
X165179166Y-89727200D01*
X165179166Y-89727200D02*
X165083928Y-89774819D01*
X165083928Y-89774819D02*
X164893452Y-89774819D01*
X164893452Y-89774819D02*
X164798214Y-89727200D01*
X164798214Y-89727200D02*
X164750595Y-89679580D01*
X164750595Y-89679580D02*
X164702976Y-89584342D01*
X164702976Y-89584342D02*
X164702976Y-88774819D01*
X164322023Y-88774819D02*
X163702976Y-88774819D01*
X163702976Y-88774819D02*
X164036309Y-89155771D01*
X164036309Y-89155771D02*
X163893452Y-89155771D01*
X163893452Y-89155771D02*
X163798214Y-89203390D01*
X163798214Y-89203390D02*
X163750595Y-89251009D01*
X163750595Y-89251009D02*
X163702976Y-89346247D01*
X163702976Y-89346247D02*
X163702976Y-89584342D01*
X163702976Y-89584342D02*
X163750595Y-89679580D01*
X163750595Y-89679580D02*
X163798214Y-89727200D01*
X163798214Y-89727200D02*
X163893452Y-89774819D01*
X163893452Y-89774819D02*
X164179166Y-89774819D01*
X164179166Y-89774819D02*
X164274404Y-89727200D01*
X164274404Y-89727200D02*
X164322023Y-89679580D01*
X125494819Y-85753333D02*
X125018628Y-85420000D01*
X125494819Y-85181905D02*
X124494819Y-85181905D01*
X124494819Y-85181905D02*
X124494819Y-85562857D01*
X124494819Y-85562857D02*
X124542438Y-85658095D01*
X124542438Y-85658095D02*
X124590057Y-85705714D01*
X124590057Y-85705714D02*
X124685295Y-85753333D01*
X124685295Y-85753333D02*
X124828152Y-85753333D01*
X124828152Y-85753333D02*
X124923390Y-85705714D01*
X124923390Y-85705714D02*
X124971009Y-85658095D01*
X124971009Y-85658095D02*
X125018628Y-85562857D01*
X125018628Y-85562857D02*
X125018628Y-85181905D01*
X124494819Y-86658095D02*
X124494819Y-86181905D01*
X124494819Y-86181905D02*
X124971009Y-86134286D01*
X124971009Y-86134286D02*
X124923390Y-86181905D01*
X124923390Y-86181905D02*
X124875771Y-86277143D01*
X124875771Y-86277143D02*
X124875771Y-86515238D01*
X124875771Y-86515238D02*
X124923390Y-86610476D01*
X124923390Y-86610476D02*
X124971009Y-86658095D01*
X124971009Y-86658095D02*
X125066247Y-86705714D01*
X125066247Y-86705714D02*
X125304342Y-86705714D01*
X125304342Y-86705714D02*
X125399580Y-86658095D01*
X125399580Y-86658095D02*
X125447200Y-86610476D01*
X125447200Y-86610476D02*
X125494819Y-86515238D01*
X125494819Y-86515238D02*
X125494819Y-86277143D01*
X125494819Y-86277143D02*
X125447200Y-86181905D01*
X125447200Y-86181905D02*
X125399580Y-86134286D01*
X149424819Y-83371905D02*
X149424819Y-83943333D01*
X150424819Y-83657619D02*
X149424819Y-83657619D01*
X150424819Y-84276667D02*
X149424819Y-84276667D01*
X149424819Y-84276667D02*
X149424819Y-84657619D01*
X149424819Y-84657619D02*
X149472438Y-84752857D01*
X149472438Y-84752857D02*
X149520057Y-84800476D01*
X149520057Y-84800476D02*
X149615295Y-84848095D01*
X149615295Y-84848095D02*
X149758152Y-84848095D01*
X149758152Y-84848095D02*
X149853390Y-84800476D01*
X149853390Y-84800476D02*
X149901009Y-84752857D01*
X149901009Y-84752857D02*
X149948628Y-84657619D01*
X149948628Y-84657619D02*
X149948628Y-84276667D01*
X150424819Y-85800476D02*
X150424819Y-85229048D01*
X150424819Y-85514762D02*
X149424819Y-85514762D01*
X149424819Y-85514762D02*
X149567676Y-85419524D01*
X149567676Y-85419524D02*
X149662914Y-85324286D01*
X149662914Y-85324286D02*
X149710533Y-85229048D01*
X149424819Y-86419524D02*
X149424819Y-86514762D01*
X149424819Y-86514762D02*
X149472438Y-86610000D01*
X149472438Y-86610000D02*
X149520057Y-86657619D01*
X149520057Y-86657619D02*
X149615295Y-86705238D01*
X149615295Y-86705238D02*
X149805771Y-86752857D01*
X149805771Y-86752857D02*
X150043866Y-86752857D01*
X150043866Y-86752857D02*
X150234342Y-86705238D01*
X150234342Y-86705238D02*
X150329580Y-86657619D01*
X150329580Y-86657619D02*
X150377200Y-86610000D01*
X150377200Y-86610000D02*
X150424819Y-86514762D01*
X150424819Y-86514762D02*
X150424819Y-86419524D01*
X150424819Y-86419524D02*
X150377200Y-86324286D01*
X150377200Y-86324286D02*
X150329580Y-86276667D01*
X150329580Y-86276667D02*
X150234342Y-86229048D01*
X150234342Y-86229048D02*
X150043866Y-86181429D01*
X150043866Y-86181429D02*
X149805771Y-86181429D01*
X149805771Y-86181429D02*
X149615295Y-86229048D01*
X149615295Y-86229048D02*
X149520057Y-86276667D01*
X149520057Y-86276667D02*
X149472438Y-86324286D01*
X149472438Y-86324286D02*
X149424819Y-86419524D01*
X188729580Y-93043333D02*
X188777200Y-92995714D01*
X188777200Y-92995714D02*
X188824819Y-92852857D01*
X188824819Y-92852857D02*
X188824819Y-92757619D01*
X188824819Y-92757619D02*
X188777200Y-92614762D01*
X188777200Y-92614762D02*
X188681961Y-92519524D01*
X188681961Y-92519524D02*
X188586723Y-92471905D01*
X188586723Y-92471905D02*
X188396247Y-92424286D01*
X188396247Y-92424286D02*
X188253390Y-92424286D01*
X188253390Y-92424286D02*
X188062914Y-92471905D01*
X188062914Y-92471905D02*
X187967676Y-92519524D01*
X187967676Y-92519524D02*
X187872438Y-92614762D01*
X187872438Y-92614762D02*
X187824819Y-92757619D01*
X187824819Y-92757619D02*
X187824819Y-92852857D01*
X187824819Y-92852857D02*
X187872438Y-92995714D01*
X187872438Y-92995714D02*
X187920057Y-93043333D01*
X187920057Y-93424286D02*
X187872438Y-93471905D01*
X187872438Y-93471905D02*
X187824819Y-93567143D01*
X187824819Y-93567143D02*
X187824819Y-93805238D01*
X187824819Y-93805238D02*
X187872438Y-93900476D01*
X187872438Y-93900476D02*
X187920057Y-93948095D01*
X187920057Y-93948095D02*
X188015295Y-93995714D01*
X188015295Y-93995714D02*
X188110533Y-93995714D01*
X188110533Y-93995714D02*
X188253390Y-93948095D01*
X188253390Y-93948095D02*
X188824819Y-93376667D01*
X188824819Y-93376667D02*
X188824819Y-93995714D01*
X71836596Y-77504819D02*
X72312786Y-77504819D01*
X72312786Y-77504819D02*
X72312786Y-76504819D01*
X71550881Y-76600057D02*
X71503262Y-76552438D01*
X71503262Y-76552438D02*
X71408024Y-76504819D01*
X71408024Y-76504819D02*
X71169929Y-76504819D01*
X71169929Y-76504819D02*
X71074691Y-76552438D01*
X71074691Y-76552438D02*
X71027072Y-76600057D01*
X71027072Y-76600057D02*
X70979453Y-76695295D01*
X70979453Y-76695295D02*
X70979453Y-76790533D01*
X70979453Y-76790533D02*
X71027072Y-76933390D01*
X71027072Y-76933390D02*
X71598500Y-77504819D01*
X71598500Y-77504819D02*
X70979453Y-77504819D01*
X208984819Y-106903333D02*
X208984819Y-106427143D01*
X208984819Y-106427143D02*
X207984819Y-106427143D01*
X208984819Y-107760476D02*
X208984819Y-107189048D01*
X208984819Y-107474762D02*
X207984819Y-107474762D01*
X207984819Y-107474762D02*
X208127676Y-107379524D01*
X208127676Y-107379524D02*
X208222914Y-107284286D01*
X208222914Y-107284286D02*
X208270533Y-107189048D01*
X76634510Y-73483333D02*
X76682130Y-73435714D01*
X76682130Y-73435714D02*
X76729749Y-73292857D01*
X76729749Y-73292857D02*
X76729749Y-73197619D01*
X76729749Y-73197619D02*
X76682130Y-73054762D01*
X76682130Y-73054762D02*
X76586891Y-72959524D01*
X76586891Y-72959524D02*
X76491653Y-72911905D01*
X76491653Y-72911905D02*
X76301177Y-72864286D01*
X76301177Y-72864286D02*
X76158320Y-72864286D01*
X76158320Y-72864286D02*
X75967844Y-72911905D01*
X75967844Y-72911905D02*
X75872606Y-72959524D01*
X75872606Y-72959524D02*
X75777368Y-73054762D01*
X75777368Y-73054762D02*
X75729749Y-73197619D01*
X75729749Y-73197619D02*
X75729749Y-73292857D01*
X75729749Y-73292857D02*
X75777368Y-73435714D01*
X75777368Y-73435714D02*
X75824987Y-73483333D01*
X76063082Y-74340476D02*
X76729749Y-74340476D01*
X75682130Y-74102381D02*
X76396415Y-73864286D01*
X76396415Y-73864286D02*
X76396415Y-74483333D01*
X117986666Y-64139580D02*
X118034285Y-64187200D01*
X118034285Y-64187200D02*
X118177142Y-64234819D01*
X118177142Y-64234819D02*
X118272380Y-64234819D01*
X118272380Y-64234819D02*
X118415237Y-64187200D01*
X118415237Y-64187200D02*
X118510475Y-64091961D01*
X118510475Y-64091961D02*
X118558094Y-63996723D01*
X118558094Y-63996723D02*
X118605713Y-63806247D01*
X118605713Y-63806247D02*
X118605713Y-63663390D01*
X118605713Y-63663390D02*
X118558094Y-63472914D01*
X118558094Y-63472914D02*
X118510475Y-63377676D01*
X118510475Y-63377676D02*
X118415237Y-63282438D01*
X118415237Y-63282438D02*
X118272380Y-63234819D01*
X118272380Y-63234819D02*
X118177142Y-63234819D01*
X118177142Y-63234819D02*
X118034285Y-63282438D01*
X118034285Y-63282438D02*
X117986666Y-63330057D01*
X117415237Y-63663390D02*
X117510475Y-63615771D01*
X117510475Y-63615771D02*
X117558094Y-63568152D01*
X117558094Y-63568152D02*
X117605713Y-63472914D01*
X117605713Y-63472914D02*
X117605713Y-63425295D01*
X117605713Y-63425295D02*
X117558094Y-63330057D01*
X117558094Y-63330057D02*
X117510475Y-63282438D01*
X117510475Y-63282438D02*
X117415237Y-63234819D01*
X117415237Y-63234819D02*
X117224761Y-63234819D01*
X117224761Y-63234819D02*
X117129523Y-63282438D01*
X117129523Y-63282438D02*
X117081904Y-63330057D01*
X117081904Y-63330057D02*
X117034285Y-63425295D01*
X117034285Y-63425295D02*
X117034285Y-63472914D01*
X117034285Y-63472914D02*
X117081904Y-63568152D01*
X117081904Y-63568152D02*
X117129523Y-63615771D01*
X117129523Y-63615771D02*
X117224761Y-63663390D01*
X117224761Y-63663390D02*
X117415237Y-63663390D01*
X117415237Y-63663390D02*
X117510475Y-63711009D01*
X117510475Y-63711009D02*
X117558094Y-63758628D01*
X117558094Y-63758628D02*
X117605713Y-63853866D01*
X117605713Y-63853866D02*
X117605713Y-64044342D01*
X117605713Y-64044342D02*
X117558094Y-64139580D01*
X117558094Y-64139580D02*
X117510475Y-64187200D01*
X117510475Y-64187200D02*
X117415237Y-64234819D01*
X117415237Y-64234819D02*
X117224761Y-64234819D01*
X117224761Y-64234819D02*
X117129523Y-64187200D01*
X117129523Y-64187200D02*
X117081904Y-64139580D01*
X117081904Y-64139580D02*
X117034285Y-64044342D01*
X117034285Y-64044342D02*
X117034285Y-63853866D01*
X117034285Y-63853866D02*
X117081904Y-63758628D01*
X117081904Y-63758628D02*
X117129523Y-63711009D01*
X117129523Y-63711009D02*
X117224761Y-63663390D01*
X208969580Y-97493333D02*
X209017200Y-97445714D01*
X209017200Y-97445714D02*
X209064819Y-97302857D01*
X209064819Y-97302857D02*
X209064819Y-97207619D01*
X209064819Y-97207619D02*
X209017200Y-97064762D01*
X209017200Y-97064762D02*
X208921961Y-96969524D01*
X208921961Y-96969524D02*
X208826723Y-96921905D01*
X208826723Y-96921905D02*
X208636247Y-96874286D01*
X208636247Y-96874286D02*
X208493390Y-96874286D01*
X208493390Y-96874286D02*
X208302914Y-96921905D01*
X208302914Y-96921905D02*
X208207676Y-96969524D01*
X208207676Y-96969524D02*
X208112438Y-97064762D01*
X208112438Y-97064762D02*
X208064819Y-97207619D01*
X208064819Y-97207619D02*
X208064819Y-97302857D01*
X208064819Y-97302857D02*
X208112438Y-97445714D01*
X208112438Y-97445714D02*
X208160057Y-97493333D01*
X208064819Y-97826667D02*
X208064819Y-98445714D01*
X208064819Y-98445714D02*
X208445771Y-98112381D01*
X208445771Y-98112381D02*
X208445771Y-98255238D01*
X208445771Y-98255238D02*
X208493390Y-98350476D01*
X208493390Y-98350476D02*
X208541009Y-98398095D01*
X208541009Y-98398095D02*
X208636247Y-98445714D01*
X208636247Y-98445714D02*
X208874342Y-98445714D01*
X208874342Y-98445714D02*
X208969580Y-98398095D01*
X208969580Y-98398095D02*
X209017200Y-98350476D01*
X209017200Y-98350476D02*
X209064819Y-98255238D01*
X209064819Y-98255238D02*
X209064819Y-97969524D01*
X209064819Y-97969524D02*
X209017200Y-97874286D01*
X209017200Y-97874286D02*
X208969580Y-97826667D01*
X64120000Y-122094819D02*
X64453333Y-121618628D01*
X64691428Y-122094819D02*
X64691428Y-121094819D01*
X64691428Y-121094819D02*
X64310476Y-121094819D01*
X64310476Y-121094819D02*
X64215238Y-121142438D01*
X64215238Y-121142438D02*
X64167619Y-121190057D01*
X64167619Y-121190057D02*
X64120000Y-121285295D01*
X64120000Y-121285295D02*
X64120000Y-121428152D01*
X64120000Y-121428152D02*
X64167619Y-121523390D01*
X64167619Y-121523390D02*
X64215238Y-121571009D01*
X64215238Y-121571009D02*
X64310476Y-121618628D01*
X64310476Y-121618628D02*
X64691428Y-121618628D01*
X63929524Y-122190057D02*
X63167619Y-122190057D01*
X62929523Y-121571009D02*
X62596190Y-121571009D01*
X62453333Y-122094819D02*
X62929523Y-122094819D01*
X62929523Y-122094819D02*
X62929523Y-121094819D01*
X62929523Y-121094819D02*
X62453333Y-121094819D01*
X62119999Y-121094819D02*
X61500952Y-121094819D01*
X61500952Y-121094819D02*
X61834285Y-121475771D01*
X61834285Y-121475771D02*
X61691428Y-121475771D01*
X61691428Y-121475771D02*
X61596190Y-121523390D01*
X61596190Y-121523390D02*
X61548571Y-121571009D01*
X61548571Y-121571009D02*
X61500952Y-121666247D01*
X61500952Y-121666247D02*
X61500952Y-121904342D01*
X61500952Y-121904342D02*
X61548571Y-121999580D01*
X61548571Y-121999580D02*
X61596190Y-122047200D01*
X61596190Y-122047200D02*
X61691428Y-122094819D01*
X61691428Y-122094819D02*
X61977142Y-122094819D01*
X61977142Y-122094819D02*
X62072380Y-122047200D01*
X62072380Y-122047200D02*
X62119999Y-121999580D01*
X115809819Y-79327142D02*
X115333628Y-78993809D01*
X115809819Y-78755714D02*
X114809819Y-78755714D01*
X114809819Y-78755714D02*
X114809819Y-79136666D01*
X114809819Y-79136666D02*
X114857438Y-79231904D01*
X114857438Y-79231904D02*
X114905057Y-79279523D01*
X114905057Y-79279523D02*
X115000295Y-79327142D01*
X115000295Y-79327142D02*
X115143152Y-79327142D01*
X115143152Y-79327142D02*
X115238390Y-79279523D01*
X115238390Y-79279523D02*
X115286009Y-79231904D01*
X115286009Y-79231904D02*
X115333628Y-79136666D01*
X115333628Y-79136666D02*
X115333628Y-78755714D01*
X115809819Y-80279523D02*
X115809819Y-79708095D01*
X115809819Y-79993809D02*
X114809819Y-79993809D01*
X114809819Y-79993809D02*
X114952676Y-79898571D01*
X114952676Y-79898571D02*
X115047914Y-79803333D01*
X115047914Y-79803333D02*
X115095533Y-79708095D01*
X115809819Y-80755714D02*
X115809819Y-80946190D01*
X115809819Y-80946190D02*
X115762200Y-81041428D01*
X115762200Y-81041428D02*
X115714580Y-81089047D01*
X115714580Y-81089047D02*
X115571723Y-81184285D01*
X115571723Y-81184285D02*
X115381247Y-81231904D01*
X115381247Y-81231904D02*
X115000295Y-81231904D01*
X115000295Y-81231904D02*
X114905057Y-81184285D01*
X114905057Y-81184285D02*
X114857438Y-81136666D01*
X114857438Y-81136666D02*
X114809819Y-81041428D01*
X114809819Y-81041428D02*
X114809819Y-80850952D01*
X114809819Y-80850952D02*
X114857438Y-80755714D01*
X114857438Y-80755714D02*
X114905057Y-80708095D01*
X114905057Y-80708095D02*
X115000295Y-80660476D01*
X115000295Y-80660476D02*
X115238390Y-80660476D01*
X115238390Y-80660476D02*
X115333628Y-80708095D01*
X115333628Y-80708095D02*
X115381247Y-80755714D01*
X115381247Y-80755714D02*
X115428866Y-80850952D01*
X115428866Y-80850952D02*
X115428866Y-81041428D01*
X115428866Y-81041428D02*
X115381247Y-81136666D01*
X115381247Y-81136666D02*
X115333628Y-81184285D01*
X115333628Y-81184285D02*
X115238390Y-81231904D01*
X123004819Y-68933333D02*
X122528628Y-68600000D01*
X123004819Y-68361905D02*
X122004819Y-68361905D01*
X122004819Y-68361905D02*
X122004819Y-68742857D01*
X122004819Y-68742857D02*
X122052438Y-68838095D01*
X122052438Y-68838095D02*
X122100057Y-68885714D01*
X122100057Y-68885714D02*
X122195295Y-68933333D01*
X122195295Y-68933333D02*
X122338152Y-68933333D01*
X122338152Y-68933333D02*
X122433390Y-68885714D01*
X122433390Y-68885714D02*
X122481009Y-68838095D01*
X122481009Y-68838095D02*
X122528628Y-68742857D01*
X122528628Y-68742857D02*
X122528628Y-68361905D01*
X122338152Y-69790476D02*
X123004819Y-69790476D01*
X121957200Y-69552381D02*
X122671485Y-69314286D01*
X122671485Y-69314286D02*
X122671485Y-69933333D01*
X120392857Y-84869580D02*
X120440476Y-84917200D01*
X120440476Y-84917200D02*
X120583333Y-84964819D01*
X120583333Y-84964819D02*
X120678571Y-84964819D01*
X120678571Y-84964819D02*
X120821428Y-84917200D01*
X120821428Y-84917200D02*
X120916666Y-84821961D01*
X120916666Y-84821961D02*
X120964285Y-84726723D01*
X120964285Y-84726723D02*
X121011904Y-84536247D01*
X121011904Y-84536247D02*
X121011904Y-84393390D01*
X121011904Y-84393390D02*
X120964285Y-84202914D01*
X120964285Y-84202914D02*
X120916666Y-84107676D01*
X120916666Y-84107676D02*
X120821428Y-84012438D01*
X120821428Y-84012438D02*
X120678571Y-83964819D01*
X120678571Y-83964819D02*
X120583333Y-83964819D01*
X120583333Y-83964819D02*
X120440476Y-84012438D01*
X120440476Y-84012438D02*
X120392857Y-84060057D01*
X119440476Y-84964819D02*
X120011904Y-84964819D01*
X119726190Y-84964819D02*
X119726190Y-83964819D01*
X119726190Y-83964819D02*
X119821428Y-84107676D01*
X119821428Y-84107676D02*
X119916666Y-84202914D01*
X119916666Y-84202914D02*
X120011904Y-84250533D01*
X118821428Y-83964819D02*
X118726190Y-83964819D01*
X118726190Y-83964819D02*
X118630952Y-84012438D01*
X118630952Y-84012438D02*
X118583333Y-84060057D01*
X118583333Y-84060057D02*
X118535714Y-84155295D01*
X118535714Y-84155295D02*
X118488095Y-84345771D01*
X118488095Y-84345771D02*
X118488095Y-84583866D01*
X118488095Y-84583866D02*
X118535714Y-84774342D01*
X118535714Y-84774342D02*
X118583333Y-84869580D01*
X118583333Y-84869580D02*
X118630952Y-84917200D01*
X118630952Y-84917200D02*
X118726190Y-84964819D01*
X118726190Y-84964819D02*
X118821428Y-84964819D01*
X118821428Y-84964819D02*
X118916666Y-84917200D01*
X118916666Y-84917200D02*
X118964285Y-84869580D01*
X118964285Y-84869580D02*
X119011904Y-84774342D01*
X119011904Y-84774342D02*
X119059523Y-84583866D01*
X119059523Y-84583866D02*
X119059523Y-84345771D01*
X119059523Y-84345771D02*
X119011904Y-84155295D01*
X119011904Y-84155295D02*
X118964285Y-84060057D01*
X118964285Y-84060057D02*
X118916666Y-84012438D01*
X118916666Y-84012438D02*
X118821428Y-83964819D01*
X57759523Y-91404819D02*
X57759523Y-92119104D01*
X57759523Y-92119104D02*
X57807142Y-92261961D01*
X57807142Y-92261961D02*
X57902380Y-92357200D01*
X57902380Y-92357200D02*
X58045237Y-92404819D01*
X58045237Y-92404819D02*
X58140475Y-92404819D01*
X56759523Y-92404819D02*
X57330951Y-92404819D01*
X57045237Y-92404819D02*
X57045237Y-91404819D01*
X57045237Y-91404819D02*
X57140475Y-91547676D01*
X57140475Y-91547676D02*
X57235713Y-91642914D01*
X57235713Y-91642914D02*
X57330951Y-91690533D01*
X56378570Y-91500057D02*
X56330951Y-91452438D01*
X56330951Y-91452438D02*
X56235713Y-91404819D01*
X56235713Y-91404819D02*
X55997618Y-91404819D01*
X55997618Y-91404819D02*
X55902380Y-91452438D01*
X55902380Y-91452438D02*
X55854761Y-91500057D01*
X55854761Y-91500057D02*
X55807142Y-91595295D01*
X55807142Y-91595295D02*
X55807142Y-91690533D01*
X55807142Y-91690533D02*
X55854761Y-91833390D01*
X55854761Y-91833390D02*
X56426189Y-92404819D01*
X56426189Y-92404819D02*
X55807142Y-92404819D01*
X206764819Y-97523333D02*
X206288628Y-97190000D01*
X206764819Y-96951905D02*
X205764819Y-96951905D01*
X205764819Y-96951905D02*
X205764819Y-97332857D01*
X205764819Y-97332857D02*
X205812438Y-97428095D01*
X205812438Y-97428095D02*
X205860057Y-97475714D01*
X205860057Y-97475714D02*
X205955295Y-97523333D01*
X205955295Y-97523333D02*
X206098152Y-97523333D01*
X206098152Y-97523333D02*
X206193390Y-97475714D01*
X206193390Y-97475714D02*
X206241009Y-97428095D01*
X206241009Y-97428095D02*
X206288628Y-97332857D01*
X206288628Y-97332857D02*
X206288628Y-96951905D01*
X205860057Y-97904286D02*
X205812438Y-97951905D01*
X205812438Y-97951905D02*
X205764819Y-98047143D01*
X205764819Y-98047143D02*
X205764819Y-98285238D01*
X205764819Y-98285238D02*
X205812438Y-98380476D01*
X205812438Y-98380476D02*
X205860057Y-98428095D01*
X205860057Y-98428095D02*
X205955295Y-98475714D01*
X205955295Y-98475714D02*
X206050533Y-98475714D01*
X206050533Y-98475714D02*
X206193390Y-98428095D01*
X206193390Y-98428095D02*
X206764819Y-97856667D01*
X206764819Y-97856667D02*
X206764819Y-98475714D01*
X125584819Y-90813333D02*
X125108628Y-90480000D01*
X125584819Y-90241905D02*
X124584819Y-90241905D01*
X124584819Y-90241905D02*
X124584819Y-90622857D01*
X124584819Y-90622857D02*
X124632438Y-90718095D01*
X124632438Y-90718095D02*
X124680057Y-90765714D01*
X124680057Y-90765714D02*
X124775295Y-90813333D01*
X124775295Y-90813333D02*
X124918152Y-90813333D01*
X124918152Y-90813333D02*
X125013390Y-90765714D01*
X125013390Y-90765714D02*
X125061009Y-90718095D01*
X125061009Y-90718095D02*
X125108628Y-90622857D01*
X125108628Y-90622857D02*
X125108628Y-90241905D01*
X124584819Y-91670476D02*
X124584819Y-91480000D01*
X124584819Y-91480000D02*
X124632438Y-91384762D01*
X124632438Y-91384762D02*
X124680057Y-91337143D01*
X124680057Y-91337143D02*
X124822914Y-91241905D01*
X124822914Y-91241905D02*
X125013390Y-91194286D01*
X125013390Y-91194286D02*
X125394342Y-91194286D01*
X125394342Y-91194286D02*
X125489580Y-91241905D01*
X125489580Y-91241905D02*
X125537200Y-91289524D01*
X125537200Y-91289524D02*
X125584819Y-91384762D01*
X125584819Y-91384762D02*
X125584819Y-91575238D01*
X125584819Y-91575238D02*
X125537200Y-91670476D01*
X125537200Y-91670476D02*
X125489580Y-91718095D01*
X125489580Y-91718095D02*
X125394342Y-91765714D01*
X125394342Y-91765714D02*
X125156247Y-91765714D01*
X125156247Y-91765714D02*
X125061009Y-91718095D01*
X125061009Y-91718095D02*
X125013390Y-91670476D01*
X125013390Y-91670476D02*
X124965771Y-91575238D01*
X124965771Y-91575238D02*
X124965771Y-91384762D01*
X124965771Y-91384762D02*
X125013390Y-91289524D01*
X125013390Y-91289524D02*
X125061009Y-91241905D01*
X125061009Y-91241905D02*
X125156247Y-91194286D01*
X117241904Y-89404819D02*
X117241904Y-90214342D01*
X117241904Y-90214342D02*
X117194285Y-90309580D01*
X117194285Y-90309580D02*
X117146666Y-90357200D01*
X117146666Y-90357200D02*
X117051428Y-90404819D01*
X117051428Y-90404819D02*
X116860952Y-90404819D01*
X116860952Y-90404819D02*
X116765714Y-90357200D01*
X116765714Y-90357200D02*
X116718095Y-90309580D01*
X116718095Y-90309580D02*
X116670476Y-90214342D01*
X116670476Y-90214342D02*
X116670476Y-89404819D01*
X116146666Y-90404819D02*
X115956190Y-90404819D01*
X115956190Y-90404819D02*
X115860952Y-90357200D01*
X115860952Y-90357200D02*
X115813333Y-90309580D01*
X115813333Y-90309580D02*
X115718095Y-90166723D01*
X115718095Y-90166723D02*
X115670476Y-89976247D01*
X115670476Y-89976247D02*
X115670476Y-89595295D01*
X115670476Y-89595295D02*
X115718095Y-89500057D01*
X115718095Y-89500057D02*
X115765714Y-89452438D01*
X115765714Y-89452438D02*
X115860952Y-89404819D01*
X115860952Y-89404819D02*
X116051428Y-89404819D01*
X116051428Y-89404819D02*
X116146666Y-89452438D01*
X116146666Y-89452438D02*
X116194285Y-89500057D01*
X116194285Y-89500057D02*
X116241904Y-89595295D01*
X116241904Y-89595295D02*
X116241904Y-89833390D01*
X116241904Y-89833390D02*
X116194285Y-89928628D01*
X116194285Y-89928628D02*
X116146666Y-89976247D01*
X116146666Y-89976247D02*
X116051428Y-90023866D01*
X116051428Y-90023866D02*
X115860952Y-90023866D01*
X115860952Y-90023866D02*
X115765714Y-89976247D01*
X115765714Y-89976247D02*
X115718095Y-89928628D01*
X115718095Y-89928628D02*
X115670476Y-89833390D01*
X111644819Y-66393333D02*
X111168628Y-66060000D01*
X111644819Y-65821905D02*
X110644819Y-65821905D01*
X110644819Y-65821905D02*
X110644819Y-66202857D01*
X110644819Y-66202857D02*
X110692438Y-66298095D01*
X110692438Y-66298095D02*
X110740057Y-66345714D01*
X110740057Y-66345714D02*
X110835295Y-66393333D01*
X110835295Y-66393333D02*
X110978152Y-66393333D01*
X110978152Y-66393333D02*
X111073390Y-66345714D01*
X111073390Y-66345714D02*
X111121009Y-66298095D01*
X111121009Y-66298095D02*
X111168628Y-66202857D01*
X111168628Y-66202857D02*
X111168628Y-65821905D01*
X110644819Y-66726667D02*
X110644819Y-67345714D01*
X110644819Y-67345714D02*
X111025771Y-67012381D01*
X111025771Y-67012381D02*
X111025771Y-67155238D01*
X111025771Y-67155238D02*
X111073390Y-67250476D01*
X111073390Y-67250476D02*
X111121009Y-67298095D01*
X111121009Y-67298095D02*
X111216247Y-67345714D01*
X111216247Y-67345714D02*
X111454342Y-67345714D01*
X111454342Y-67345714D02*
X111549580Y-67298095D01*
X111549580Y-67298095D02*
X111597200Y-67250476D01*
X111597200Y-67250476D02*
X111644819Y-67155238D01*
X111644819Y-67155238D02*
X111644819Y-66869524D01*
X111644819Y-66869524D02*
X111597200Y-66774286D01*
X111597200Y-66774286D02*
X111549580Y-66726667D01*
X65664819Y-71421905D02*
X64664819Y-71421905D01*
X64664819Y-71421905D02*
X64664819Y-71660000D01*
X64664819Y-71660000D02*
X64712438Y-71802857D01*
X64712438Y-71802857D02*
X64807676Y-71898095D01*
X64807676Y-71898095D02*
X64902914Y-71945714D01*
X64902914Y-71945714D02*
X65093390Y-71993333D01*
X65093390Y-71993333D02*
X65236247Y-71993333D01*
X65236247Y-71993333D02*
X65426723Y-71945714D01*
X65426723Y-71945714D02*
X65521961Y-71898095D01*
X65521961Y-71898095D02*
X65617200Y-71802857D01*
X65617200Y-71802857D02*
X65664819Y-71660000D01*
X65664819Y-71660000D02*
X65664819Y-71421905D01*
X64760057Y-72374286D02*
X64712438Y-72421905D01*
X64712438Y-72421905D02*
X64664819Y-72517143D01*
X64664819Y-72517143D02*
X64664819Y-72755238D01*
X64664819Y-72755238D02*
X64712438Y-72850476D01*
X64712438Y-72850476D02*
X64760057Y-72898095D01*
X64760057Y-72898095D02*
X64855295Y-72945714D01*
X64855295Y-72945714D02*
X64950533Y-72945714D01*
X64950533Y-72945714D02*
X65093390Y-72898095D01*
X65093390Y-72898095D02*
X65664819Y-72326667D01*
X65664819Y-72326667D02*
X65664819Y-72945714D01*
X118059819Y-79325048D02*
X117583628Y-78991715D01*
X118059819Y-78753620D02*
X117059819Y-78753620D01*
X117059819Y-78753620D02*
X117059819Y-79134572D01*
X117059819Y-79134572D02*
X117107438Y-79229810D01*
X117107438Y-79229810D02*
X117155057Y-79277429D01*
X117155057Y-79277429D02*
X117250295Y-79325048D01*
X117250295Y-79325048D02*
X117393152Y-79325048D01*
X117393152Y-79325048D02*
X117488390Y-79277429D01*
X117488390Y-79277429D02*
X117536009Y-79229810D01*
X117536009Y-79229810D02*
X117583628Y-79134572D01*
X117583628Y-79134572D02*
X117583628Y-78753620D01*
X118059819Y-80277429D02*
X118059819Y-79706001D01*
X118059819Y-79991715D02*
X117059819Y-79991715D01*
X117059819Y-79991715D02*
X117202676Y-79896477D01*
X117202676Y-79896477D02*
X117297914Y-79801239D01*
X117297914Y-79801239D02*
X117345533Y-79706001D01*
X117488390Y-80848858D02*
X117440771Y-80753620D01*
X117440771Y-80753620D02*
X117393152Y-80706001D01*
X117393152Y-80706001D02*
X117297914Y-80658382D01*
X117297914Y-80658382D02*
X117250295Y-80658382D01*
X117250295Y-80658382D02*
X117155057Y-80706001D01*
X117155057Y-80706001D02*
X117107438Y-80753620D01*
X117107438Y-80753620D02*
X117059819Y-80848858D01*
X117059819Y-80848858D02*
X117059819Y-81039334D01*
X117059819Y-81039334D02*
X117107438Y-81134572D01*
X117107438Y-81134572D02*
X117155057Y-81182191D01*
X117155057Y-81182191D02*
X117250295Y-81229810D01*
X117250295Y-81229810D02*
X117297914Y-81229810D01*
X117297914Y-81229810D02*
X117393152Y-81182191D01*
X117393152Y-81182191D02*
X117440771Y-81134572D01*
X117440771Y-81134572D02*
X117488390Y-81039334D01*
X117488390Y-81039334D02*
X117488390Y-80848858D01*
X117488390Y-80848858D02*
X117536009Y-80753620D01*
X117536009Y-80753620D02*
X117583628Y-80706001D01*
X117583628Y-80706001D02*
X117678866Y-80658382D01*
X117678866Y-80658382D02*
X117869342Y-80658382D01*
X117869342Y-80658382D02*
X117964580Y-80706001D01*
X117964580Y-80706001D02*
X118012200Y-80753620D01*
X118012200Y-80753620D02*
X118059819Y-80848858D01*
X118059819Y-80848858D02*
X118059819Y-81039334D01*
X118059819Y-81039334D02*
X118012200Y-81134572D01*
X118012200Y-81134572D02*
X117964580Y-81182191D01*
X117964580Y-81182191D02*
X117869342Y-81229810D01*
X117869342Y-81229810D02*
X117678866Y-81229810D01*
X117678866Y-81229810D02*
X117583628Y-81182191D01*
X117583628Y-81182191D02*
X117536009Y-81134572D01*
X117536009Y-81134572D02*
X117488390Y-81039334D01*
X71910000Y-107994819D02*
X72243333Y-107518628D01*
X72481428Y-107994819D02*
X72481428Y-106994819D01*
X72481428Y-106994819D02*
X72100476Y-106994819D01*
X72100476Y-106994819D02*
X72005238Y-107042438D01*
X72005238Y-107042438D02*
X71957619Y-107090057D01*
X71957619Y-107090057D02*
X71910000Y-107185295D01*
X71910000Y-107185295D02*
X71910000Y-107328152D01*
X71910000Y-107328152D02*
X71957619Y-107423390D01*
X71957619Y-107423390D02*
X72005238Y-107471009D01*
X72005238Y-107471009D02*
X72100476Y-107518628D01*
X72100476Y-107518628D02*
X72481428Y-107518628D01*
X71719524Y-108090057D02*
X70957619Y-108090057D01*
X70719523Y-107471009D02*
X70386190Y-107471009D01*
X70243333Y-107994819D02*
X70719523Y-107994819D01*
X70719523Y-107994819D02*
X70719523Y-106994819D01*
X70719523Y-106994819D02*
X70243333Y-106994819D01*
X69290952Y-107994819D02*
X69862380Y-107994819D01*
X69576666Y-107994819D02*
X69576666Y-106994819D01*
X69576666Y-106994819D02*
X69671904Y-107137676D01*
X69671904Y-107137676D02*
X69767142Y-107232914D01*
X69767142Y-107232914D02*
X69862380Y-107280533D01*
X148924819Y-61046666D02*
X149639104Y-61046666D01*
X149639104Y-61046666D02*
X149781961Y-60999047D01*
X149781961Y-60999047D02*
X149877200Y-60903809D01*
X149877200Y-60903809D02*
X149924819Y-60760952D01*
X149924819Y-60760952D02*
X149924819Y-60665714D01*
X148924819Y-61999047D02*
X148924819Y-61522857D01*
X148924819Y-61522857D02*
X149401009Y-61475238D01*
X149401009Y-61475238D02*
X149353390Y-61522857D01*
X149353390Y-61522857D02*
X149305771Y-61618095D01*
X149305771Y-61618095D02*
X149305771Y-61856190D01*
X149305771Y-61856190D02*
X149353390Y-61951428D01*
X149353390Y-61951428D02*
X149401009Y-61999047D01*
X149401009Y-61999047D02*
X149496247Y-62046666D01*
X149496247Y-62046666D02*
X149734342Y-62046666D01*
X149734342Y-62046666D02*
X149829580Y-61999047D01*
X149829580Y-61999047D02*
X149877200Y-61951428D01*
X149877200Y-61951428D02*
X149924819Y-61856190D01*
X149924819Y-61856190D02*
X149924819Y-61618095D01*
X149924819Y-61618095D02*
X149877200Y-61522857D01*
X149877200Y-61522857D02*
X149829580Y-61475238D01*
D12*
X216223752Y-109971999D02*
X216223752Y-110697714D01*
X216659181Y-109826856D02*
X215135181Y-110334856D01*
X215135181Y-110334856D02*
X216659181Y-110842856D01*
X215860895Y-111350857D02*
X215860895Y-111858857D01*
X216659181Y-112076571D02*
X216659181Y-111350857D01*
X216659181Y-111350857D02*
X215135181Y-111350857D01*
X215135181Y-111350857D02*
X215135181Y-112076571D01*
X216659181Y-113527999D02*
X216659181Y-112657142D01*
X216659181Y-113092571D02*
X215135181Y-113092571D01*
X215135181Y-113092571D02*
X215352895Y-112947428D01*
X215352895Y-112947428D02*
X215498038Y-112802285D01*
X215498038Y-112802285D02*
X215570610Y-112657142D01*
D10*
X71296666Y-64314819D02*
X71629999Y-63838628D01*
X71868094Y-64314819D02*
X71868094Y-63314819D01*
X71868094Y-63314819D02*
X71487142Y-63314819D01*
X71487142Y-63314819D02*
X71391904Y-63362438D01*
X71391904Y-63362438D02*
X71344285Y-63410057D01*
X71344285Y-63410057D02*
X71296666Y-63505295D01*
X71296666Y-63505295D02*
X71296666Y-63648152D01*
X71296666Y-63648152D02*
X71344285Y-63743390D01*
X71344285Y-63743390D02*
X71391904Y-63791009D01*
X71391904Y-63791009D02*
X71487142Y-63838628D01*
X71487142Y-63838628D02*
X71868094Y-63838628D01*
X70344285Y-64314819D02*
X70915713Y-64314819D01*
X70629999Y-64314819D02*
X70629999Y-63314819D01*
X70629999Y-63314819D02*
X70725237Y-63457676D01*
X70725237Y-63457676D02*
X70820475Y-63552914D01*
X70820475Y-63552914D02*
X70915713Y-63600533D01*
D13*
X84391904Y-94202219D02*
X84391904Y-95011742D01*
X84391904Y-95011742D02*
X84344285Y-95106980D01*
X84344285Y-95106980D02*
X84296666Y-95154600D01*
X84296666Y-95154600D02*
X84201428Y-95202219D01*
X84201428Y-95202219D02*
X84010952Y-95202219D01*
X84010952Y-95202219D02*
X83915714Y-95154600D01*
X83915714Y-95154600D02*
X83868095Y-95106980D01*
X83868095Y-95106980D02*
X83820476Y-95011742D01*
X83820476Y-95011742D02*
X83820476Y-94202219D01*
X82915714Y-94535552D02*
X82915714Y-95202219D01*
X83153809Y-94154600D02*
X83391904Y-94868885D01*
X83391904Y-94868885D02*
X82772857Y-94868885D01*
D10*
X61246666Y-68969580D02*
X61294285Y-69017200D01*
X61294285Y-69017200D02*
X61437142Y-69064819D01*
X61437142Y-69064819D02*
X61532380Y-69064819D01*
X61532380Y-69064819D02*
X61675237Y-69017200D01*
X61675237Y-69017200D02*
X61770475Y-68921961D01*
X61770475Y-68921961D02*
X61818094Y-68826723D01*
X61818094Y-68826723D02*
X61865713Y-68636247D01*
X61865713Y-68636247D02*
X61865713Y-68493390D01*
X61865713Y-68493390D02*
X61818094Y-68302914D01*
X61818094Y-68302914D02*
X61770475Y-68207676D01*
X61770475Y-68207676D02*
X61675237Y-68112438D01*
X61675237Y-68112438D02*
X61532380Y-68064819D01*
X61532380Y-68064819D02*
X61437142Y-68064819D01*
X61437142Y-68064819D02*
X61294285Y-68112438D01*
X61294285Y-68112438D02*
X61246666Y-68160057D01*
X60770475Y-69064819D02*
X60579999Y-69064819D01*
X60579999Y-69064819D02*
X60484761Y-69017200D01*
X60484761Y-69017200D02*
X60437142Y-68969580D01*
X60437142Y-68969580D02*
X60341904Y-68826723D01*
X60341904Y-68826723D02*
X60294285Y-68636247D01*
X60294285Y-68636247D02*
X60294285Y-68255295D01*
X60294285Y-68255295D02*
X60341904Y-68160057D01*
X60341904Y-68160057D02*
X60389523Y-68112438D01*
X60389523Y-68112438D02*
X60484761Y-68064819D01*
X60484761Y-68064819D02*
X60675237Y-68064819D01*
X60675237Y-68064819D02*
X60770475Y-68112438D01*
X60770475Y-68112438D02*
X60818094Y-68160057D01*
X60818094Y-68160057D02*
X60865713Y-68255295D01*
X60865713Y-68255295D02*
X60865713Y-68493390D01*
X60865713Y-68493390D02*
X60818094Y-68588628D01*
X60818094Y-68588628D02*
X60770475Y-68636247D01*
X60770475Y-68636247D02*
X60675237Y-68683866D01*
X60675237Y-68683866D02*
X60484761Y-68683866D01*
X60484761Y-68683866D02*
X60389523Y-68636247D01*
X60389523Y-68636247D02*
X60341904Y-68588628D01*
X60341904Y-68588628D02*
X60294285Y-68493390D01*
X193536666Y-87289580D02*
X193584285Y-87337200D01*
X193584285Y-87337200D02*
X193727142Y-87384819D01*
X193727142Y-87384819D02*
X193822380Y-87384819D01*
X193822380Y-87384819D02*
X193965237Y-87337200D01*
X193965237Y-87337200D02*
X194060475Y-87241961D01*
X194060475Y-87241961D02*
X194108094Y-87146723D01*
X194108094Y-87146723D02*
X194155713Y-86956247D01*
X194155713Y-86956247D02*
X194155713Y-86813390D01*
X194155713Y-86813390D02*
X194108094Y-86622914D01*
X194108094Y-86622914D02*
X194060475Y-86527676D01*
X194060475Y-86527676D02*
X193965237Y-86432438D01*
X193965237Y-86432438D02*
X193822380Y-86384819D01*
X193822380Y-86384819D02*
X193727142Y-86384819D01*
X193727142Y-86384819D02*
X193584285Y-86432438D01*
X193584285Y-86432438D02*
X193536666Y-86480057D01*
X192584285Y-87384819D02*
X193155713Y-87384819D01*
X192869999Y-87384819D02*
X192869999Y-86384819D01*
X192869999Y-86384819D02*
X192965237Y-86527676D01*
X192965237Y-86527676D02*
X193060475Y-86622914D01*
X193060475Y-86622914D02*
X193155713Y-86670533D01*
X74979510Y-66733333D02*
X75027130Y-66685714D01*
X75027130Y-66685714D02*
X75074749Y-66542857D01*
X75074749Y-66542857D02*
X75074749Y-66447619D01*
X75074749Y-66447619D02*
X75027130Y-66304762D01*
X75027130Y-66304762D02*
X74931891Y-66209524D01*
X74931891Y-66209524D02*
X74836653Y-66161905D01*
X74836653Y-66161905D02*
X74646177Y-66114286D01*
X74646177Y-66114286D02*
X74503320Y-66114286D01*
X74503320Y-66114286D02*
X74312844Y-66161905D01*
X74312844Y-66161905D02*
X74217606Y-66209524D01*
X74217606Y-66209524D02*
X74122368Y-66304762D01*
X74122368Y-66304762D02*
X74074749Y-66447619D01*
X74074749Y-66447619D02*
X74074749Y-66542857D01*
X74074749Y-66542857D02*
X74122368Y-66685714D01*
X74122368Y-66685714D02*
X74169987Y-66733333D01*
X74074749Y-67590476D02*
X74074749Y-67400000D01*
X74074749Y-67400000D02*
X74122368Y-67304762D01*
X74122368Y-67304762D02*
X74169987Y-67257143D01*
X74169987Y-67257143D02*
X74312844Y-67161905D01*
X74312844Y-67161905D02*
X74503320Y-67114286D01*
X74503320Y-67114286D02*
X74884272Y-67114286D01*
X74884272Y-67114286D02*
X74979510Y-67161905D01*
X74979510Y-67161905D02*
X75027130Y-67209524D01*
X75027130Y-67209524D02*
X75074749Y-67304762D01*
X75074749Y-67304762D02*
X75074749Y-67495238D01*
X75074749Y-67495238D02*
X75027130Y-67590476D01*
X75027130Y-67590476D02*
X74979510Y-67638095D01*
X74979510Y-67638095D02*
X74884272Y-67685714D01*
X74884272Y-67685714D02*
X74646177Y-67685714D01*
X74646177Y-67685714D02*
X74550939Y-67638095D01*
X74550939Y-67638095D02*
X74503320Y-67590476D01*
X74503320Y-67590476D02*
X74455701Y-67495238D01*
X74455701Y-67495238D02*
X74455701Y-67304762D01*
X74455701Y-67304762D02*
X74503320Y-67209524D01*
X74503320Y-67209524D02*
X74550939Y-67161905D01*
X74550939Y-67161905D02*
X74646177Y-67114286D01*
X143764819Y-86241905D02*
X143764819Y-86813333D01*
X144764819Y-86527619D02*
X143764819Y-86527619D01*
X144764819Y-87146667D02*
X143764819Y-87146667D01*
X143764819Y-87146667D02*
X143764819Y-87527619D01*
X143764819Y-87527619D02*
X143812438Y-87622857D01*
X143812438Y-87622857D02*
X143860057Y-87670476D01*
X143860057Y-87670476D02*
X143955295Y-87718095D01*
X143955295Y-87718095D02*
X144098152Y-87718095D01*
X144098152Y-87718095D02*
X144193390Y-87670476D01*
X144193390Y-87670476D02*
X144241009Y-87622857D01*
X144241009Y-87622857D02*
X144288628Y-87527619D01*
X144288628Y-87527619D02*
X144288628Y-87146667D01*
X144764819Y-88670476D02*
X144764819Y-88099048D01*
X144764819Y-88384762D02*
X143764819Y-88384762D01*
X143764819Y-88384762D02*
X143907676Y-88289524D01*
X143907676Y-88289524D02*
X144002914Y-88194286D01*
X144002914Y-88194286D02*
X144050533Y-88099048D01*
X144764819Y-89622857D02*
X144764819Y-89051429D01*
X144764819Y-89337143D02*
X143764819Y-89337143D01*
X143764819Y-89337143D02*
X143907676Y-89241905D01*
X143907676Y-89241905D02*
X144002914Y-89146667D01*
X144002914Y-89146667D02*
X144050533Y-89051429D01*
D14*
X177304318Y-49376667D02*
X178211461Y-49376667D01*
X178211461Y-49376667D02*
X178392889Y-49316190D01*
X178392889Y-49316190D02*
X178513842Y-49195238D01*
X178513842Y-49195238D02*
X178574318Y-49013809D01*
X178574318Y-49013809D02*
X178574318Y-48892857D01*
X177727651Y-50525714D02*
X178574318Y-50525714D01*
X177243842Y-50223333D02*
X178150984Y-49920952D01*
X178150984Y-49920952D02*
X178150984Y-50707143D01*
D10*
X74453333Y-46454819D02*
X74453333Y-47169104D01*
X74453333Y-47169104D02*
X74500952Y-47311961D01*
X74500952Y-47311961D02*
X74596190Y-47407200D01*
X74596190Y-47407200D02*
X74739047Y-47454819D01*
X74739047Y-47454819D02*
X74834285Y-47454819D01*
X73929523Y-47454819D02*
X73739047Y-47454819D01*
X73739047Y-47454819D02*
X73643809Y-47407200D01*
X73643809Y-47407200D02*
X73596190Y-47359580D01*
X73596190Y-47359580D02*
X73500952Y-47216723D01*
X73500952Y-47216723D02*
X73453333Y-47026247D01*
X73453333Y-47026247D02*
X73453333Y-46645295D01*
X73453333Y-46645295D02*
X73500952Y-46550057D01*
X73500952Y-46550057D02*
X73548571Y-46502438D01*
X73548571Y-46502438D02*
X73643809Y-46454819D01*
X73643809Y-46454819D02*
X73834285Y-46454819D01*
X73834285Y-46454819D02*
X73929523Y-46502438D01*
X73929523Y-46502438D02*
X73977142Y-46550057D01*
X73977142Y-46550057D02*
X74024761Y-46645295D01*
X74024761Y-46645295D02*
X74024761Y-46883390D01*
X74024761Y-46883390D02*
X73977142Y-46978628D01*
X73977142Y-46978628D02*
X73929523Y-47026247D01*
X73929523Y-47026247D02*
X73834285Y-47073866D01*
X73834285Y-47073866D02*
X73643809Y-47073866D01*
X73643809Y-47073866D02*
X73548571Y-47026247D01*
X73548571Y-47026247D02*
X73500952Y-46978628D01*
X73500952Y-46978628D02*
X73453333Y-46883390D01*
X120359819Y-79325048D02*
X119883628Y-78991715D01*
X120359819Y-78753620D02*
X119359819Y-78753620D01*
X119359819Y-78753620D02*
X119359819Y-79134572D01*
X119359819Y-79134572D02*
X119407438Y-79229810D01*
X119407438Y-79229810D02*
X119455057Y-79277429D01*
X119455057Y-79277429D02*
X119550295Y-79325048D01*
X119550295Y-79325048D02*
X119693152Y-79325048D01*
X119693152Y-79325048D02*
X119788390Y-79277429D01*
X119788390Y-79277429D02*
X119836009Y-79229810D01*
X119836009Y-79229810D02*
X119883628Y-79134572D01*
X119883628Y-79134572D02*
X119883628Y-78753620D01*
X120359819Y-80277429D02*
X120359819Y-79706001D01*
X120359819Y-79991715D02*
X119359819Y-79991715D01*
X119359819Y-79991715D02*
X119502676Y-79896477D01*
X119502676Y-79896477D02*
X119597914Y-79801239D01*
X119597914Y-79801239D02*
X119645533Y-79706001D01*
X119359819Y-80610763D02*
X119359819Y-81277429D01*
X119359819Y-81277429D02*
X120359819Y-80848858D01*
X72481834Y-68604819D02*
X72481834Y-69414342D01*
X72481834Y-69414342D02*
X72434215Y-69509580D01*
X72434215Y-69509580D02*
X72386596Y-69557200D01*
X72386596Y-69557200D02*
X72291358Y-69604819D01*
X72291358Y-69604819D02*
X72100882Y-69604819D01*
X72100882Y-69604819D02*
X72005644Y-69557200D01*
X72005644Y-69557200D02*
X71958025Y-69509580D01*
X71958025Y-69509580D02*
X71910406Y-69414342D01*
X71910406Y-69414342D02*
X71910406Y-68604819D01*
X71481834Y-68700057D02*
X71434215Y-68652438D01*
X71434215Y-68652438D02*
X71338977Y-68604819D01*
X71338977Y-68604819D02*
X71100882Y-68604819D01*
X71100882Y-68604819D02*
X71005644Y-68652438D01*
X71005644Y-68652438D02*
X70958025Y-68700057D01*
X70958025Y-68700057D02*
X70910406Y-68795295D01*
X70910406Y-68795295D02*
X70910406Y-68890533D01*
X70910406Y-68890533D02*
X70958025Y-69033390D01*
X70958025Y-69033390D02*
X71529453Y-69604819D01*
X71529453Y-69604819D02*
X70910406Y-69604819D01*
X67424819Y-113519999D02*
X66948628Y-113186666D01*
X67424819Y-112948571D02*
X66424819Y-112948571D01*
X66424819Y-112948571D02*
X66424819Y-113329523D01*
X66424819Y-113329523D02*
X66472438Y-113424761D01*
X66472438Y-113424761D02*
X66520057Y-113472380D01*
X66520057Y-113472380D02*
X66615295Y-113519999D01*
X66615295Y-113519999D02*
X66758152Y-113519999D01*
X66758152Y-113519999D02*
X66853390Y-113472380D01*
X66853390Y-113472380D02*
X66901009Y-113424761D01*
X66901009Y-113424761D02*
X66948628Y-113329523D01*
X66948628Y-113329523D02*
X66948628Y-112948571D01*
X67520057Y-113710476D02*
X67520057Y-114472380D01*
X66901009Y-114710476D02*
X66901009Y-115043809D01*
X67424819Y-115186666D02*
X67424819Y-114710476D01*
X67424819Y-114710476D02*
X66424819Y-114710476D01*
X66424819Y-114710476D02*
X66424819Y-115186666D01*
X66520057Y-115567619D02*
X66472438Y-115615238D01*
X66472438Y-115615238D02*
X66424819Y-115710476D01*
X66424819Y-115710476D02*
X66424819Y-115948571D01*
X66424819Y-115948571D02*
X66472438Y-116043809D01*
X66472438Y-116043809D02*
X66520057Y-116091428D01*
X66520057Y-116091428D02*
X66615295Y-116139047D01*
X66615295Y-116139047D02*
X66710533Y-116139047D01*
X66710533Y-116139047D02*
X66853390Y-116091428D01*
X66853390Y-116091428D02*
X67424819Y-115520000D01*
X67424819Y-115520000D02*
X67424819Y-116139047D01*
X120332857Y-82744819D02*
X120666190Y-82268628D01*
X120904285Y-82744819D02*
X120904285Y-81744819D01*
X120904285Y-81744819D02*
X120523333Y-81744819D01*
X120523333Y-81744819D02*
X120428095Y-81792438D01*
X120428095Y-81792438D02*
X120380476Y-81840057D01*
X120380476Y-81840057D02*
X120332857Y-81935295D01*
X120332857Y-81935295D02*
X120332857Y-82078152D01*
X120332857Y-82078152D02*
X120380476Y-82173390D01*
X120380476Y-82173390D02*
X120428095Y-82221009D01*
X120428095Y-82221009D02*
X120523333Y-82268628D01*
X120523333Y-82268628D02*
X120904285Y-82268628D01*
X119951904Y-82697200D02*
X119809047Y-82744819D01*
X119809047Y-82744819D02*
X119570952Y-82744819D01*
X119570952Y-82744819D02*
X119475714Y-82697200D01*
X119475714Y-82697200D02*
X119428095Y-82649580D01*
X119428095Y-82649580D02*
X119380476Y-82554342D01*
X119380476Y-82554342D02*
X119380476Y-82459104D01*
X119380476Y-82459104D02*
X119428095Y-82363866D01*
X119428095Y-82363866D02*
X119475714Y-82316247D01*
X119475714Y-82316247D02*
X119570952Y-82268628D01*
X119570952Y-82268628D02*
X119761428Y-82221009D01*
X119761428Y-82221009D02*
X119856666Y-82173390D01*
X119856666Y-82173390D02*
X119904285Y-82125771D01*
X119904285Y-82125771D02*
X119951904Y-82030533D01*
X119951904Y-82030533D02*
X119951904Y-81935295D01*
X119951904Y-81935295D02*
X119904285Y-81840057D01*
X119904285Y-81840057D02*
X119856666Y-81792438D01*
X119856666Y-81792438D02*
X119761428Y-81744819D01*
X119761428Y-81744819D02*
X119523333Y-81744819D01*
X119523333Y-81744819D02*
X119380476Y-81792438D01*
X118428095Y-82744819D02*
X118999523Y-82744819D01*
X118713809Y-82744819D02*
X118713809Y-81744819D01*
X118713809Y-81744819D02*
X118809047Y-81887676D01*
X118809047Y-81887676D02*
X118904285Y-81982914D01*
X118904285Y-81982914D02*
X118999523Y-82030533D01*
D15*
X114415000Y-68530000D02*
X114415000Y-70480000D01*
X114415000Y-72430000D02*
X114415000Y-70480000D01*
X119535000Y-68530000D02*
X119535000Y-70480000D01*
X119535000Y-72430000D02*
X119535000Y-70480000D01*
X119770000Y-73420000D02*
X119440000Y-73180000D01*
X119770000Y-72940000D01*
X119770000Y-73420000D01*
G36*
X119770000Y-73420000D02*
G01*
X119440000Y-73180000D01*
X119770000Y-72940000D01*
X119770000Y-73420000D01*
G37*
X182400000Y-119730000D02*
G75*
G02*
X179400000Y-119730000I-1500000J0D01*
G01*
X179400000Y-119730000D02*
G75*
G02*
X182400000Y-119730000I1500000J0D01*
G01*
X75759930Y-69453733D02*
X75759930Y-69746267D01*
X76779930Y-69453733D02*
X76779930Y-69746267D01*
X191460000Y-91370000D02*
X203880000Y-91370000D01*
X191460000Y-91820000D02*
X191460000Y-91370000D01*
X191460000Y-101420000D02*
X191460000Y-99740000D01*
X191460000Y-107580000D02*
X191460000Y-107140000D01*
X191460000Y-107590000D02*
X203880000Y-107590000D01*
X203880000Y-91820000D02*
X203880000Y-91370000D01*
X203880000Y-101420000D02*
X203880000Y-99740000D01*
X203880000Y-107590000D02*
X203880000Y-107140000D01*
X204370000Y-91820000D02*
X204130000Y-91490000D01*
X204610000Y-91490000D01*
X204370000Y-91820000D01*
G36*
X204370000Y-91820000D02*
G01*
X204130000Y-91490000D01*
X204610000Y-91490000D01*
X204370000Y-91820000D01*
G37*
X129669930Y-74050000D02*
X130999930Y-74050000D01*
X129669930Y-75380000D02*
X129669930Y-74050000D01*
X129669930Y-76650000D02*
X132329930Y-76650000D01*
X129669930Y-91950000D02*
X129669930Y-76650000D01*
X129669930Y-91950000D02*
X132329930Y-91950000D01*
X132329930Y-91950000D02*
X132329930Y-76650000D01*
X105227922Y-89165000D02*
X104705418Y-89165000D01*
X105227922Y-90635000D02*
X104705418Y-90635000D01*
X60170000Y-62400000D02*
X60970000Y-62400000D01*
X60170000Y-65520000D02*
X60970000Y-65520000D01*
X61770000Y-62400000D02*
X60970000Y-62400000D01*
X61770000Y-65520000D02*
X60970000Y-65520000D01*
X59910000Y-65800000D02*
X59430000Y-65800000D01*
X59670000Y-65470000D01*
X59910000Y-65800000D01*
G36*
X59910000Y-65800000D02*
G01*
X59430000Y-65800000D01*
X59670000Y-65470000D01*
X59910000Y-65800000D01*
G37*
X207870000Y-93950000D02*
X207870000Y-96610000D01*
X207870000Y-93950000D02*
X215550000Y-93950000D01*
X207870000Y-96610000D02*
X215550000Y-96610000D01*
X215550000Y-93950000D02*
X215550000Y-96610000D01*
X218150000Y-95280000D02*
X218150000Y-96610000D01*
X218150000Y-96610000D02*
X216820000Y-96610000D01*
D16*
X152062500Y-119600000D02*
X152062500Y-59600000D01*
X177462500Y-59600000D02*
X152062500Y-59600000D01*
X177462500Y-119600000D02*
X152062500Y-119600000D01*
X177462500Y-119600000D02*
X177462500Y-59600000D01*
D13*
X178312500Y-70920000D02*
G75*
G02*
X178112500Y-70920000I-100000J0D01*
G01*
X178112500Y-70920000D02*
G75*
G02*
X178312500Y-70920000I100000J0D01*
G01*
D15*
X122745000Y-86147064D02*
X122745000Y-85692936D01*
X124215000Y-86147064D02*
X124215000Y-85692936D01*
X146972936Y-84365000D02*
X147427064Y-84365000D01*
X146972936Y-85835000D02*
X147427064Y-85835000D01*
X189210000Y-92538733D02*
X189210000Y-92831267D01*
X190230000Y-92538733D02*
X190230000Y-92831267D01*
X71408678Y-73790000D02*
X71931182Y-73790000D01*
X71408678Y-76010000D02*
X71931182Y-76010000D01*
X208230000Y-104099800D02*
X208230000Y-104300200D01*
X208950000Y-104099800D02*
X208950000Y-104300200D01*
X74334930Y-73503733D02*
X74334930Y-73796267D01*
X75354930Y-73503733D02*
X75354930Y-73796267D01*
X81440000Y-70410000D02*
G75*
G02*
X78440000Y-70410000I-1500000J0D01*
G01*
X78440000Y-70410000D02*
G75*
G02*
X81440000Y-70410000I1500000J0D01*
G01*
X118066252Y-64766976D02*
X117543748Y-64766976D01*
X118066252Y-66236976D02*
X117543748Y-66236976D01*
X207845000Y-100851252D02*
X207845000Y-100328748D01*
X209315000Y-100851252D02*
X209315000Y-100328748D01*
X148240000Y-110810000D02*
G75*
G02*
X145240000Y-110810000I-1500000J0D01*
G01*
X145240000Y-110810000D02*
G75*
G02*
X148240000Y-110810000I1500000J0D01*
G01*
X63347064Y-119255000D02*
X62892936Y-119255000D01*
X63347064Y-120725000D02*
X62892936Y-120725000D01*
X114620000Y-76442936D02*
X114620000Y-76897064D01*
X116090000Y-76442936D02*
X116090000Y-76897064D01*
X120155000Y-69317064D02*
X120155000Y-68862936D01*
X121625000Y-69317064D02*
X121625000Y-68862936D01*
X116318748Y-83785000D02*
X116841252Y-83785000D01*
X116318748Y-85255000D02*
X116841252Y-85255000D01*
X55644930Y-75345000D02*
X56974930Y-75345000D01*
X55644930Y-76675000D02*
X55644930Y-75345000D01*
X55644930Y-77945000D02*
X58304930Y-77945000D01*
X55644930Y-90705000D02*
X55644930Y-77945000D01*
X55644930Y-90705000D02*
X58304930Y-90705000D01*
X58304930Y-90705000D02*
X58304930Y-77945000D01*
X182140000Y-112840000D02*
G75*
G02*
X179140000Y-112840000I-1500000J0D01*
G01*
X179140000Y-112840000D02*
G75*
G02*
X182140000Y-112840000I1500000J0D01*
G01*
X205390000Y-101827064D02*
X205390000Y-100372936D01*
X207210000Y-101827064D02*
X207210000Y-100372936D01*
X122745000Y-90752936D02*
X122745000Y-91207064D01*
X124215000Y-90752936D02*
X124215000Y-91207064D01*
X187150000Y-88020000D02*
G75*
G02*
X184150000Y-88020000I-1500000J0D01*
G01*
X184150000Y-88020000D02*
G75*
G02*
X187150000Y-88020000I1500000J0D01*
G01*
X187440000Y-72400000D02*
G75*
G02*
X184440000Y-72400000I-1500000J0D01*
G01*
X184440000Y-72400000D02*
G75*
G02*
X187440000Y-72400000I1500000J0D01*
G01*
X187120000Y-81610000D02*
G75*
G02*
X184120000Y-81610000I-1500000J0D01*
G01*
X184120000Y-81610000D02*
G75*
G02*
X187120000Y-81610000I1500000J0D01*
G01*
X115690000Y-85910000D02*
X116490000Y-85910000D01*
X115690000Y-89030000D02*
X116490000Y-89030000D01*
X117290000Y-85910000D02*
X116490000Y-85910000D01*
X117290000Y-89030000D02*
X116490000Y-89030000D01*
X117790000Y-85985000D02*
X117550000Y-85655000D01*
X118030000Y-85655000D01*
X117790000Y-85985000D01*
G36*
X117790000Y-85985000D02*
G01*
X117550000Y-85655000D01*
X118030000Y-85655000D01*
X117790000Y-85985000D01*
G37*
X112045000Y-66777064D02*
X112045000Y-66322936D01*
X113515000Y-66777064D02*
X113515000Y-66322936D01*
X66090000Y-72890000D02*
X66090000Y-67380000D01*
X69390000Y-67380000D02*
X66090000Y-67380000D01*
X69390000Y-72890000D02*
X69390000Y-67380000D01*
X116870000Y-76440842D02*
X116870000Y-76894970D01*
X118340000Y-76440842D02*
X118340000Y-76894970D01*
X71127064Y-108565000D02*
X70672936Y-108565000D01*
X71127064Y-110035000D02*
X70672936Y-110035000D01*
X148370000Y-91907500D02*
G75*
G02*
X145370000Y-91907500I-1500000J0D01*
G01*
X145370000Y-91907500D02*
G75*
G02*
X148370000Y-91907500I1500000J0D01*
G01*
X142830000Y-60050000D02*
X142830000Y-62710000D01*
X142830000Y-60050000D02*
X145430000Y-60050000D01*
X142830000Y-62710000D02*
X145430000Y-62710000D01*
X145430000Y-60050000D02*
X145430000Y-62710000D01*
X146700000Y-60050000D02*
X148030000Y-60050000D01*
X148030000Y-60050000D02*
X148030000Y-61380000D01*
D13*
X210255250Y-106396000D02*
X210255250Y-104364000D01*
X212795250Y-101824000D02*
X214827250Y-101824000D01*
X212795250Y-108936000D02*
X214827250Y-108936000D01*
X217367250Y-106396000D02*
X217367250Y-104364000D01*
X215311250Y-105380000D02*
G75*
G02*
X212311250Y-105380000I-1500000J0D01*
G01*
X212311250Y-105380000D02*
G75*
G02*
X215311250Y-105380000I1500000J0D01*
G01*
D15*
X148290000Y-115250000D02*
G75*
G02*
X145290000Y-115250000I-1500000J0D01*
G01*
X145290000Y-115250000D02*
G75*
G02*
X148290000Y-115250000I1500000J0D01*
G01*
X68745000Y-63632936D02*
X68745000Y-64087064D01*
X70215000Y-63632936D02*
X70215000Y-64087064D01*
D10*
X85000000Y-90850000D02*
X103000000Y-90850000D01*
X85000000Y-98550000D02*
X85000000Y-90850000D01*
X103000000Y-90850000D02*
X103000000Y-98550000D01*
X103000000Y-98550000D02*
X85000000Y-98550000D01*
D17*
X102200000Y-97300000D02*
G75*
G02*
X101400000Y-97300000I-400000J0D01*
G01*
X101400000Y-97300000D02*
G75*
G02*
X102200000Y-97300000I400000J0D01*
G01*
D15*
X61341252Y-66195000D02*
X60818748Y-66195000D01*
X61341252Y-67665000D02*
X60818748Y-67665000D01*
X191620000Y-90790000D02*
X196005000Y-90790000D01*
X196005000Y-87770000D02*
X191620000Y-87770000D01*
X196005000Y-90790000D02*
X196005000Y-87770000D01*
X74059930Y-69453733D02*
X74059930Y-69746267D01*
X75079930Y-69453733D02*
X75079930Y-69746267D01*
X146932936Y-87232500D02*
X147387064Y-87232500D01*
X146932936Y-88702500D02*
X147387064Y-88702500D01*
X148130000Y-105740000D02*
G75*
G02*
X145130000Y-105740000I-1500000J0D01*
G01*
X145130000Y-105740000D02*
G75*
G02*
X148130000Y-105740000I1500000J0D01*
G01*
D13*
X179529000Y-47694000D02*
X179529000Y-52086000D01*
X182953000Y-45940000D02*
X186378000Y-45940000D01*
X182953000Y-53840000D02*
X186378000Y-53840000D01*
X186378000Y-47990000D02*
X186378000Y-45940000D01*
X186378000Y-51790000D02*
X186378000Y-53840000D01*
X189012000Y-50959000D02*
G75*
G02*
X188908000Y-50959000I-52000J0D01*
G01*
X188908000Y-50959000D02*
G75*
G02*
X189012000Y-50959000I52000J0D01*
G01*
D15*
X148130000Y-99020000D02*
G75*
G02*
X145130000Y-99020000I-1500000J0D01*
G01*
X145130000Y-99020000D02*
G75*
G02*
X148130000Y-99020000I1500000J0D01*
G01*
X70360000Y-48185000D02*
X70360000Y-50845000D01*
X70360000Y-48185000D02*
X75500000Y-48185000D01*
X70360000Y-50845000D02*
X75500000Y-50845000D01*
X75500000Y-48185000D02*
X75500000Y-50845000D01*
X76770000Y-48185000D02*
X78100000Y-48185000D01*
X78100000Y-48185000D02*
X78100000Y-49515000D01*
X119170000Y-76440842D02*
X119170000Y-76894970D01*
X120640000Y-76440842D02*
X120640000Y-76894970D01*
X70819930Y-69990000D02*
X71619930Y-69990000D01*
X70819930Y-73110000D02*
X71619930Y-73110000D01*
X72419930Y-69990000D02*
X71619930Y-69990000D01*
X72419930Y-73110000D02*
X71619930Y-73110000D01*
X70559930Y-73390000D02*
X70079930Y-73390000D01*
X70319930Y-73060000D01*
X70559930Y-73390000D01*
G36*
X70559930Y-73390000D02*
G01*
X70079930Y-73390000D01*
X70319930Y-73060000D01*
X70559930Y-73390000D01*
G37*
X66235000Y-118517064D02*
X66235000Y-118062936D01*
X67705000Y-118517064D02*
X67705000Y-118062936D01*
X116332936Y-81535000D02*
X116787064Y-81535000D01*
X116332936Y-83005000D02*
X116787064Y-83005000D01*
%LPC*%
D18*
X86250000Y-56050000D03*
X101750000Y-56050000D03*
X86250000Y-58590000D03*
X86250000Y-61130000D03*
X101750000Y-61130000D03*
X101750000Y-58590000D03*
D19*
X125500000Y-114500000D03*
D20*
X105730000Y-49330000D03*
X101030000Y-49330000D03*
D21*
X108930000Y-50930000D03*
X108930000Y-47730000D03*
D20*
X96330000Y-49330000D03*
D21*
X93130000Y-50930000D03*
X93130000Y-47730000D03*
D22*
X85620000Y-49430000D03*
X84970000Y-48430000D03*
X84320000Y-49430000D03*
X83670000Y-48430000D03*
X83020000Y-49430000D03*
D23*
X87895000Y-49540000D03*
X80745000Y-49540000D03*
D19*
X125500000Y-51500000D03*
D18*
X87650000Y-105700000D03*
X90190000Y-105700000D03*
X92730000Y-105700000D03*
X95270000Y-105700000D03*
X97810000Y-105700000D03*
X100350000Y-105700000D03*
X100350000Y-83800000D03*
X97810000Y-83800000D03*
X95270000Y-83800000D03*
X92730000Y-83800000D03*
X90190000Y-83800000D03*
X87650000Y-83800000D03*
X66000000Y-56050000D03*
X81500000Y-56050000D03*
X66000000Y-58590000D03*
X66000000Y-61130000D03*
X81500000Y-61130000D03*
X81500000Y-58590000D03*
D19*
X62500000Y-51500000D03*
D24*
X215450000Y-75380000D03*
D25*
X215450000Y-77920000D03*
X215450000Y-80460000D03*
X215450000Y-83000000D03*
X215450000Y-85540000D03*
X215450000Y-88080000D03*
X215450000Y-90620000D03*
D24*
X141450000Y-76650000D03*
D25*
X141450000Y-79190000D03*
X141450000Y-81730000D03*
X141450000Y-84270000D03*
X141450000Y-86810000D03*
X141450000Y-89350000D03*
D18*
X106500000Y-56050000D03*
X122000000Y-56050000D03*
X106500000Y-58590000D03*
X106500000Y-61130000D03*
X122000000Y-61130000D03*
X122000000Y-58590000D03*
D26*
X87650000Y-119880000D03*
D27*
X90190000Y-119880000D03*
X92730000Y-119880000D03*
X95270000Y-119880000D03*
X97810000Y-119880000D03*
X100350000Y-119880000D03*
X102890000Y-119880000D03*
X102890000Y-109720000D03*
X95270000Y-109720000D03*
X92730000Y-109720000D03*
X87650000Y-109720000D03*
X85110000Y-109720000D03*
D28*
X70000000Y-117000000D03*
D29*
X70000000Y-112000000D03*
X70000000Y-114500000D03*
X55500000Y-117000000D03*
X55500000Y-112000000D03*
D30*
X118880000Y-72955000D03*
X117610000Y-72955000D03*
X116340000Y-72955000D03*
X115070000Y-72955000D03*
X115070000Y-68005000D03*
X116340000Y-68005000D03*
X117610000Y-68005000D03*
X118880000Y-68005000D03*
D29*
X180900000Y-119730000D03*
D31*
X76269930Y-70462500D03*
X76269930Y-68737500D03*
D19*
X200600000Y-114520000D03*
X146950000Y-70100000D03*
D32*
X203670000Y-92480000D03*
X203670000Y-93580000D03*
X203670000Y-94680000D03*
X203670000Y-95780000D03*
X203670000Y-96880000D03*
X203670000Y-97980000D03*
X203670000Y-99080000D03*
X203670000Y-102080000D03*
X203670000Y-103180000D03*
X203670000Y-104280000D03*
X203670000Y-105380000D03*
X203670000Y-106480000D03*
X191670000Y-106480000D03*
X191670000Y-105380000D03*
X191670000Y-104280000D03*
X191670000Y-103180000D03*
X191670000Y-102080000D03*
X191670000Y-99080000D03*
X191670000Y-97980000D03*
X191670000Y-96880000D03*
X191670000Y-95780000D03*
X191670000Y-94680000D03*
X191670000Y-93580000D03*
X191670000Y-92480000D03*
D24*
X130999930Y-75380000D03*
D25*
X130999930Y-77920000D03*
X130999930Y-80460000D03*
X130999930Y-83000000D03*
X130999930Y-85540000D03*
X130999930Y-88080000D03*
X130999930Y-90620000D03*
D33*
X103929170Y-89900000D03*
X106004170Y-89900000D03*
D34*
X59832500Y-64910000D03*
X59832500Y-63960000D03*
X59832500Y-63010000D03*
X62107500Y-63010000D03*
X62107500Y-64910000D03*
D24*
X216820000Y-95280000D03*
D25*
X214280000Y-95280000D03*
X211740000Y-95280000D03*
X209200000Y-95280000D03*
D29*
X175862500Y-61200000D03*
X153662500Y-118000000D03*
D35*
X176012500Y-70920000D03*
D36*
X176012500Y-73460000D03*
X176012500Y-76000000D03*
X176012500Y-78540000D03*
X176012500Y-81080000D03*
X176012500Y-83620000D03*
X176012500Y-86160000D03*
X176012500Y-88700000D03*
X176012500Y-91240000D03*
X176012500Y-93780000D03*
X176012500Y-96320000D03*
X176012500Y-98860000D03*
X176012500Y-101400000D03*
X176012500Y-103940000D03*
X176012500Y-106480000D03*
X176012500Y-109020000D03*
X176012500Y-111560000D03*
X176012500Y-114100000D03*
X153512500Y-114100000D03*
X153512500Y-111560000D03*
X153512500Y-109020000D03*
X153512500Y-106480000D03*
X153512500Y-93780000D03*
X153512500Y-91240000D03*
X153512500Y-88700000D03*
X153512500Y-86160000D03*
X153512500Y-83620000D03*
X153512500Y-81080000D03*
D37*
X123480000Y-84920000D03*
X123480000Y-86920000D03*
D38*
X148200000Y-85100000D03*
X146200000Y-85100000D03*
D31*
X189720000Y-93547500D03*
X189720000Y-91822500D03*
D39*
X72832430Y-74900000D03*
X70507430Y-74900000D03*
D19*
X210000000Y-51500000D03*
X200580000Y-70020000D03*
D40*
X208590000Y-104772500D03*
X208590000Y-103627500D03*
D31*
X74844930Y-74512500D03*
X74844930Y-72787500D03*
D29*
X79940000Y-70410000D03*
D33*
X116767500Y-65501976D03*
X118842500Y-65501976D03*
D41*
X208580000Y-99552500D03*
X208580000Y-101627500D03*
D29*
X146740000Y-110810000D03*
D42*
X62120000Y-119990000D03*
X64120000Y-119990000D03*
D43*
X115355000Y-77670000D03*
X115355000Y-75670000D03*
D37*
X120890000Y-68090000D03*
X120890000Y-70090000D03*
D44*
X117617500Y-84520000D03*
X115542500Y-84520000D03*
D24*
X56974930Y-76675000D03*
D25*
X56974930Y-79215000D03*
X56974930Y-81755000D03*
X56974930Y-84295000D03*
X56974930Y-86835000D03*
X56974930Y-89375000D03*
D19*
X210000000Y-114500000D03*
D29*
X180640000Y-112840000D03*
D45*
X206300000Y-99550000D03*
X206300000Y-102650000D03*
D43*
X123480000Y-91980000D03*
X123480000Y-89980000D03*
D29*
X185650000Y-88020000D03*
X185940000Y-72400000D03*
X185620000Y-81610000D03*
D46*
X117627500Y-86495000D03*
X117627500Y-87145000D03*
X117627500Y-87795000D03*
X117627500Y-88445000D03*
X115352500Y-88445000D03*
X115352500Y-87795000D03*
X115352500Y-87145000D03*
X115352500Y-86495000D03*
D37*
X112780000Y-65550000D03*
X112780000Y-67550000D03*
D47*
X67740000Y-68890000D03*
X67740000Y-72890000D03*
D43*
X117605000Y-77667906D03*
X117605000Y-75667906D03*
D42*
X69900000Y-109300000D03*
X71900000Y-109300000D03*
D29*
X146870000Y-91907500D03*
D24*
X146700000Y-61380000D03*
D25*
X144160000Y-61380000D03*
D48*
X213811250Y-105380000D03*
X211271250Y-107920000D03*
X216351250Y-107920000D03*
X211271250Y-102840000D03*
X216351250Y-102840000D03*
D29*
X146790000Y-115250000D03*
D43*
X69480000Y-64860000D03*
X69480000Y-62860000D03*
D49*
X102255000Y-99400000D03*
X100985000Y-99400000D03*
X99715000Y-99400000D03*
X98445000Y-99400000D03*
X97175000Y-99400000D03*
X95905000Y-99400000D03*
X94635000Y-99400000D03*
X93365000Y-99400000D03*
X92095000Y-99400000D03*
X90825000Y-99400000D03*
X89555000Y-99400000D03*
X88285000Y-99400000D03*
X87015000Y-99400000D03*
X85745000Y-99400000D03*
X85745000Y-90000000D03*
X87015000Y-90000000D03*
X88285000Y-90000000D03*
X89555000Y-90000000D03*
X90825000Y-90000000D03*
X92095000Y-90000000D03*
X93365000Y-90000000D03*
X94635000Y-90000000D03*
X95905000Y-90000000D03*
X97175000Y-90000000D03*
X98445000Y-90000000D03*
X99715000Y-90000000D03*
X100985000Y-90000000D03*
X102255000Y-90000000D03*
D33*
X60042500Y-66930000D03*
X62117500Y-66930000D03*
D50*
X194995000Y-89280000D03*
X191745000Y-89280000D03*
D31*
X74569930Y-70462500D03*
X74569930Y-68737500D03*
D38*
X148160000Y-87967500D03*
X146160000Y-87967500D03*
D29*
X146630000Y-105740000D03*
D51*
X186378000Y-50890000D03*
X186378000Y-48890000D03*
D52*
X180828000Y-53240000D03*
X180828000Y-46540000D03*
D29*
X146630000Y-99020000D03*
D24*
X76770000Y-49515000D03*
D25*
X74230000Y-49515000D03*
X71690000Y-49515000D03*
D43*
X119905000Y-77667906D03*
X119905000Y-75667906D03*
D34*
X70482430Y-72500000D03*
X70482430Y-71550000D03*
X70482430Y-70600000D03*
X72757430Y-70600000D03*
X72757430Y-72500000D03*
D37*
X66970000Y-117290000D03*
X66970000Y-119290000D03*
D38*
X117560000Y-82270000D03*
X115560000Y-82270000D03*
D19*
X147000000Y-51500000D03*
%LPD*%
M02*
