G04 #@! TF.GenerationSoftware,KiCad,Pcbnew,8.0.4*
G04 #@! TF.CreationDate,2024-07-29T21:25:00+02:00*
G04 #@! TF.ProjectId,gps,6770732e-6b69-4636-9164-5f7063625858,rev?*
G04 #@! TF.SameCoordinates,Original*
G04 #@! TF.FileFunction,Soldermask,Top*
G04 #@! TF.FilePolarity,Negative*
%FSLAX46Y46*%
G04 Gerber Fmt 4.6, Leading zero omitted, Abs format (unit mm)*
G04 Created by KiCad (PCBNEW 8.0.4) date 2024-07-29 21:25:00*
%MOMM*%
%LPD*%
G01*
G04 APERTURE LIST*
G04 Aperture macros list*
%AMRoundRect*
0 Rectangle with rounded corners*
0 $1 Rounding radius*
0 $2 $3 $4 $5 $6 $7 $8 $9 X,Y pos of 4 corners*
0 Add a 4 corners polygon primitive as box body*
4,1,4,$2,$3,$4,$5,$6,$7,$8,$9,$2,$3,0*
0 Add four circle primitives for the rounded corners*
1,1,$1+$1,$2,$3*
1,1,$1+$1,$4,$5*
1,1,$1+$1,$6,$7*
1,1,$1+$1,$8,$9*
0 Add four rect primitives between the rounded corners*
20,1,$1+$1,$2,$3,$4,$5,0*
20,1,$1+$1,$4,$5,$6,$7,0*
20,1,$1+$1,$6,$7,$8,$9,0*
20,1,$1+$1,$8,$9,$2,$3,0*%
G04 Aperture macros list end*
%ADD10C,1.700000*%
%ADD11C,4.300000*%
%ADD12C,1.800000*%
%ADD13C,1.600000*%
%ADD14C,0.800000*%
%ADD15C,1.803150*%
%ADD16R,1.700000X1.700000*%
%ADD17O,1.700000X1.700000*%
%ADD18R,1.337000X1.337000*%
%ADD19C,1.337000*%
%ADD20R,2.000000X2.000000*%
%ADD21C,2.000000*%
%ADD22RoundRect,0.102000X0.900000X0.900000X-0.900000X0.900000X-0.900000X-0.900000X0.900000X-0.900000X0*%
%ADD23C,2.004000*%
%ADD24C,2.300000*%
G04 APERTURE END LIST*
D10*
X86250000Y-56050000D03*
X101750000Y-56050000D03*
X86250000Y-58590000D03*
X86250000Y-61130000D03*
X101750000Y-61130000D03*
X101750000Y-58590000D03*
D11*
X125500000Y-114500000D03*
D12*
X105730000Y-49330000D03*
X101030000Y-49330000D03*
D13*
X108930000Y-50930000D03*
X108930000Y-47730000D03*
D12*
X96330000Y-49330000D03*
D13*
X93130000Y-50930000D03*
X93130000Y-47730000D03*
D14*
X85620000Y-49430000D03*
X84970000Y-48430000D03*
X84320000Y-49430000D03*
X83670000Y-48430000D03*
X83020000Y-49430000D03*
D15*
X87895000Y-49540000D03*
X80745000Y-49540000D03*
D11*
X125500000Y-51500000D03*
D10*
X87650000Y-105700000D03*
X90190000Y-105700000D03*
X92730000Y-105700000D03*
X95270000Y-105700000D03*
X97810000Y-105700000D03*
X100350000Y-105700000D03*
X100350000Y-83800000D03*
X97810000Y-83800000D03*
X95270000Y-83800000D03*
X92730000Y-83800000D03*
X90190000Y-83800000D03*
X87650000Y-83800000D03*
X66000000Y-56050000D03*
X81500000Y-56050000D03*
X66000000Y-58590000D03*
X66000000Y-61130000D03*
X81500000Y-61130000D03*
X81500000Y-58590000D03*
D11*
X62500000Y-51500000D03*
D16*
X215450000Y-75380000D03*
D17*
X215450000Y-77920000D03*
X215450000Y-80460000D03*
X215450000Y-83000000D03*
X215450000Y-85540000D03*
X215450000Y-88080000D03*
X215450000Y-90620000D03*
D16*
X141450000Y-76650000D03*
D17*
X141450000Y-79190000D03*
X141450000Y-81730000D03*
X141450000Y-84270000D03*
X141450000Y-86810000D03*
X141450000Y-89350000D03*
D10*
X106500000Y-56050000D03*
X122000000Y-56050000D03*
X106500000Y-58590000D03*
X106500000Y-61130000D03*
X122000000Y-61130000D03*
X122000000Y-58590000D03*
D18*
X87650000Y-119880000D03*
D19*
X90190000Y-119880000D03*
X92730000Y-119880000D03*
X95270000Y-119880000D03*
X97810000Y-119880000D03*
X100350000Y-119880000D03*
X102890000Y-119880000D03*
X102890000Y-109720000D03*
X95270000Y-109720000D03*
X92730000Y-109720000D03*
X87650000Y-109720000D03*
X85110000Y-109720000D03*
D20*
X70000000Y-117000000D03*
D21*
X70000000Y-112000000D03*
X70000000Y-114500000D03*
X55500000Y-117000000D03*
X55500000Y-112000000D03*
X180900000Y-119730000D03*
D11*
X200600000Y-114520000D03*
X146950000Y-70100000D03*
D16*
X130999930Y-75380000D03*
D17*
X130999930Y-77920000D03*
X130999930Y-80460000D03*
X130999930Y-83000000D03*
X130999930Y-85540000D03*
X130999930Y-88080000D03*
X130999930Y-90620000D03*
D16*
X216820000Y-95280000D03*
D17*
X214280000Y-95280000D03*
X211740000Y-95280000D03*
X209200000Y-95280000D03*
D21*
X175862500Y-61200000D03*
X153662500Y-118000000D03*
D22*
X176012500Y-70920000D03*
D23*
X176012500Y-73460000D03*
X176012500Y-76000000D03*
X176012500Y-78540000D03*
X176012500Y-81080000D03*
X176012500Y-83620000D03*
X176012500Y-86160000D03*
X176012500Y-88700000D03*
X176012500Y-91240000D03*
X176012500Y-93780000D03*
X176012500Y-96320000D03*
X176012500Y-98860000D03*
X176012500Y-101400000D03*
X176012500Y-103940000D03*
X176012500Y-106480000D03*
X176012500Y-109020000D03*
X176012500Y-111560000D03*
X176012500Y-114100000D03*
X153512500Y-114100000D03*
X153512500Y-111560000D03*
X153512500Y-109020000D03*
X153512500Y-106480000D03*
X153512500Y-93780000D03*
X153512500Y-91240000D03*
X153512500Y-88700000D03*
X153512500Y-86160000D03*
X153512500Y-83620000D03*
X153512500Y-81080000D03*
D11*
X210000000Y-51500000D03*
X200580000Y-70020000D03*
D21*
X79940000Y-70410000D03*
X146740000Y-110810000D03*
D16*
X56974930Y-76675000D03*
D17*
X56974930Y-79215000D03*
X56974930Y-81755000D03*
X56974930Y-84295000D03*
X56974930Y-86835000D03*
X56974930Y-89375000D03*
D11*
X210000000Y-114500000D03*
D21*
X180640000Y-112840000D03*
X185650000Y-88020000D03*
X185940000Y-72400000D03*
X185620000Y-81610000D03*
X146870000Y-91907500D03*
D16*
X146700000Y-61380000D03*
D17*
X144160000Y-61380000D03*
D24*
X213811250Y-105380000D03*
X211271250Y-107920000D03*
X216351250Y-107920000D03*
X211271250Y-102840000D03*
X216351250Y-102840000D03*
D21*
X146790000Y-115250000D03*
X146630000Y-105740000D03*
X146630000Y-99020000D03*
D16*
X76770000Y-49515000D03*
D17*
X74230000Y-49515000D03*
X71690000Y-49515000D03*
D11*
X147000000Y-51500000D03*
M02*
